<svg width="270" height="98" viewBox="0 0 270 98" fill="none" xmlns="http://www.w3.org/2000/svg">
<path d="M52.2828 97.7568V55.4766H97.0543L101.858 61.7379L106.82 55.4766H269.33V94.8409C269.33 94.8409 265.08 97.7145 260.164 97.7568H170.18L164.764 91.0919V97.7568H147.017V86.3796C147.017 86.3796 144.593 87.9678 139.351 87.9678H133.311V97.7568H106.44L101.644 91.3612L96.7735 97.7568H52.2828Z" fill="white"/>
<path d="M0 23.6102L10.0961 0.0749512H27.5564L33.286 13.2585V0.0749512H54.9907L58.4016 9.60357L61.7083 0.0749512H159.14V4.86531C159.14 4.86531 164.262 0.0749512 172.679 0.0749512L204.292 0.185418L209.923 13.1964V0.0749512H228.087L233.086 7.54869V0.0749512H251.416V42.3551H233.086L228.295 34.8572V42.3551H201.608L198.925 35.6903H191.751L189.111 42.3551H171.013C163.77 42.3551 159.14 37.6626 159.14 37.6626V42.3551H131.853L126.437 35.6903V42.3551H24.9697L22.2879 35.6903H15.1366L12.4737 42.3551H0V23.6102Z" fill="white"/>
<path d="M13.6696 5.28711L0.052063 36.9452H8.91776L11.4304 30.6058H26.0373L28.5368 36.9452H37.5978L23.9933 5.28711H13.6696ZM18.7078 12.6549L23.1601 23.7327H14.2424L18.7078 12.6549Z" fill="#016FD0"/>
<path d="M38.5352 36.9401V5.28198L51.1338 5.32878L58.4616 25.7399L65.6139 5.28198H78.1118V36.9401H70.1965V13.6131L61.806 36.9401H54.8643L46.4505 13.6131V36.9401H38.5352Z" fill="#016FD0"/>
<path d="M83.5276 36.9401V5.28198H109.357V12.3634H91.5262V17.7786H108.94V24.4435H91.5262V30.0669H109.357V36.9401H83.5276Z" fill="#016FD0"/>
<path d="M113.939 5.28711V36.9452H121.854V25.6982H125.187L134.678 36.9452H144.351L133.936 25.2817C138.21 24.9211 142.619 21.2528 142.619 15.5578C142.619 8.89582 137.39 5.28711 131.553 5.28711H113.939ZM121.854 12.3685H130.902C133.073 12.3685 134.652 14.0662 134.652 15.701C134.652 17.8042 132.606 19.0334 131.02 19.0334H121.854V12.3685Z" fill="#016FD0"/>
<path d="M153.932 36.9401H145.85V5.28198H153.932V36.9401Z" fill="#016FD0"/>
<path d="M173.096 36.9401H171.351C162.911 36.9401 157.786 30.2909 157.786 21.2412C157.786 11.968 162.853 5.28198 173.512 5.28198H182.261V12.7799H173.193C168.866 12.7799 165.805 16.1564 165.805 21.3193C165.805 27.4503 169.305 30.0253 174.346 30.0253H176.429L173.096 36.9401Z" fill="#016FD0"/>
<path d="M190.319 5.28711L176.702 36.9452H185.568L188.08 30.6058H202.687L205.187 36.9452H214.248L200.643 5.28711H190.319ZM195.358 12.6549L199.81 23.7327H190.892L195.358 12.6549Z" fill="#016FD0"/>
<path d="M215.172 36.9401V5.28198H225.235L238.085 25.1724V5.28198H246V36.9401H236.262L223.087 16.5289V36.9401H215.172Z" fill="#016FD0"/>
<path d="M57.6986 92.3417V60.6836H83.5276V67.765H65.6973V73.1802H83.111V79.8451H65.6973V85.4686H83.5276V92.3417H57.6986Z" fill="#016FD0"/>
<path d="M184.261 92.3417V60.6836H210.09V67.765H192.259V73.1802H209.59V79.8451H192.259V85.4686H210.09V92.3417H184.261Z" fill="#016FD0"/>
<path d="M84.53 92.3417L97.106 76.7079L84.2306 60.6836H94.2028L101.871 70.5898L109.565 60.6836H119.147L106.44 76.5126L119.04 92.3417H109.069L101.623 82.5917L94.3591 92.3417H84.53Z" fill="#016FD0"/>
<path d="M119.98 60.689V92.3471H128.103V82.3498H136.435C143.485 82.3498 148.829 78.61 148.829 71.3371C148.829 65.3123 144.638 60.689 137.464 60.689H119.98ZM128.103 67.8485H136.878C139.155 67.8485 140.784 69.2443 140.784 71.4933C140.784 73.6062 139.164 75.1382 136.852 75.1382H128.103V67.8485Z" fill="#016FD0"/>
<path d="M152.266 60.6836V92.3417H160.181V81.0947H163.514L173.005 92.3417H182.677L172.263 80.6782C176.537 80.3175 180.946 76.6493 180.946 70.9542C180.946 64.2923 175.717 60.6836 169.88 60.6836H152.266ZM160.181 67.765H169.229C171.4 67.765 172.979 69.4626 172.979 71.0974C172.979 73.2007 170.933 74.4299 169.346 74.4299H160.181V67.765Z" fill="#016FD0"/>
<path d="M213.756 92.3417V85.4686H229.597C231.941 85.4686 232.955 84.2021 232.955 82.813C232.955 81.4822 231.944 80.1367 229.597 80.1367H222.438C216.216 80.1367 212.751 76.346 212.751 70.6549C212.751 65.5788 215.924 60.6836 225.17 60.6836H240.584L237.252 67.8067H223.921C221.372 67.8067 220.588 69.1437 220.588 70.4206C220.588 71.733 221.557 73.1802 223.504 73.1802H231.003C237.939 73.1802 240.949 77.1144 240.949 82.2663C240.949 87.8051 237.595 92.3417 230.625 92.3417H213.756Z" fill="#016FD0"/>
<path d="M242.807 92.3417V85.4686H258.648C260.992 85.4686 262.007 84.2021 262.007 82.813C262.007 81.4822 260.995 80.1367 258.648 80.1367H251.489C245.267 80.1367 241.802 76.346 241.802 70.6549C241.802 65.5788 244.975 60.6836 254.221 60.6836H269.635L266.303 67.8067H252.972C250.423 67.8067 249.639 69.1437 249.639 70.4206C249.639 71.733 250.608 73.1802 252.555 73.1802H260.054C266.99 73.1802 270 77.1144 270 82.2663C270 87.8051 266.646 92.3417 259.676 92.3417H242.807Z" fill="#016FD0"/>
</svg>
