<svg width="99" height="36" viewBox="0 0 99 36" fill="none" xmlns="http://www.w3.org/2000/svg">
<g clip-path="url(#clip0)">
<path d="M19.7422 35.8993V20.6416H35.8989L37.6323 22.9011L39.4231 20.6416H98.0678V34.847C98.0678 34.847 96.5341 35.884 94.7604 35.8993H62.2876L60.3332 33.4941V35.8993H53.9288V31.7936C53.9288 31.7936 53.054 32.3667 51.1626 32.3667H48.9827V35.8993H39.286L37.555 33.5913L35.7975 35.8993H19.7422Z" fill="white"/>
<path d="M0.875 9.14233L4.51839 0.64917H10.8193L12.8869 5.4067V0.64917H20.7195L21.9504 4.08776L23.1437 0.64917H58.3037V2.37787C58.3037 2.37787 60.1521 0.64917 63.1897 0.64917L74.5978 0.689034L76.6298 5.38429V0.64917H83.1845L84.9886 3.34622V0.64917H91.6034V15.9068H84.9886L83.2597 13.201V15.9068H73.6294L72.6609 13.5017H70.072L69.1193 15.9068H62.5883C59.9746 15.9068 58.3037 14.2134 58.3037 14.2134V15.9068H48.4567L46.5023 13.5017V15.9068H9.88583L8.91803 13.5017H6.33734L5.37638 15.9068H0.875V9.14233Z" fill="white"/>
<path d="M5.80867 2.52954L0.894531 13.954H4.09389L5.00061 11.6663H10.2718L11.1738 13.954H14.4437L9.53421 2.52954H5.80867ZM7.62681 5.18835L9.23354 9.18599H6.01539L7.62681 5.18835Z" fill="#016FD0"/>
<path d="M14.7793 13.9523V2.52783L19.3258 2.54472L21.9701 9.91048L24.5512 2.52783H29.0613V13.9523H26.2049V5.53427L23.1771 13.9523H20.672L17.6357 5.53427V13.9523H14.7793Z" fill="#016FD0"/>
<path d="M31.0156 13.9523V2.52783H40.3365V5.08331H33.9021V7.03748H40.1862V9.44263H33.9021V11.472H40.3365V13.9523H31.0156Z" fill="#016FD0"/>
<path d="M41.9922 2.52954V13.954H44.8486V9.8953H46.0513L49.4762 13.954H52.9668L49.2084 9.74499C50.7508 9.61484 52.342 8.29109 52.342 6.23592C52.342 3.83182 50.4548 2.52954 48.3486 2.52954H41.9922ZM44.8486 5.08501H48.1137C48.897 5.08501 49.4668 5.69764 49.4668 6.28758C49.4668 7.04657 48.7285 7.49016 48.156 7.49016H44.8486V5.08501Z" fill="#016FD0"/>
<path d="M56.4244 13.9523H53.5078V2.52783H56.4244V13.9523Z" fill="#016FD0"/>
<path d="M63.3393 13.9523H62.7098C59.6638 13.9523 57.8145 11.5528 57.8145 8.28703C57.8145 4.9406 59.6431 2.52783 63.4897 2.52783H66.6468V5.23362H63.3743C61.8128 5.23362 60.7084 6.45208 60.7084 8.31522C60.7084 10.5277 61.9712 11.4569 63.7904 11.4569H64.542L63.3393 13.9523Z" fill="#016FD0"/>
<path d="M69.5567 2.52954L64.6426 13.954H67.8419L68.7487 11.6663H74.0199L74.9219 13.954H78.1917L73.2823 2.52954H69.5567ZM71.3749 5.18835L72.9816 9.18599H69.7634L71.3749 5.18835Z" fill="#016FD0"/>
<path d="M78.5234 13.9523V2.52783H82.155L86.792 9.7057V2.52783H89.6484V13.9523H86.1343L81.3798 6.58652V13.9523H78.5234Z" fill="#016FD0"/>
<path d="M21.6973 33.9452V22.5208H31.0182V25.0762H24.5837V27.0304H30.8678V29.4356H24.5837V31.4649H31.0182V33.9452H21.6973Z" fill="#016FD0"/>
<path d="M67.3672 33.9452V22.5208H76.6881V25.0762H70.2537V27.0304H76.5077V29.4356H70.2537V31.4649H76.6881V33.9452H67.3672Z" fill="#016FD0"/>
<path d="M31.3776 33.9452L35.9159 28.3034L31.2695 22.5208H34.8682L37.6354 26.0956L40.4119 22.5208H43.8697L39.2844 28.233L43.831 33.9452H40.2329L37.5461 30.4267L34.9246 33.9452H31.3776Z" fill="#016FD0"/>
<path d="M44.1699 22.5227V33.9472H47.1015V30.3394H50.1082C52.6524 30.3394 54.5808 28.9899 54.5808 26.3653C54.5808 24.1911 53.0683 22.5227 50.4794 22.5227H44.1699ZM47.1015 25.1064H50.268C51.0899 25.1064 51.6774 25.6101 51.6774 26.4217C51.6774 27.1841 51.0928 27.737 50.2586 27.737H47.1015V25.1064Z" fill="#016FD0"/>
<path d="M55.8223 22.5208V33.9452H58.6787V29.8865H59.8814L63.3062 33.9452H66.7969L63.0384 29.7362C64.5809 29.606 66.172 28.2823 66.172 26.2271C66.172 23.823 64.2849 22.5208 62.1787 22.5208H55.8223ZM58.6787 25.0762H61.9438C62.7271 25.0762 63.2968 25.6888 63.2968 26.2788C63.2968 27.0378 62.5586 27.4814 61.9861 27.4814H58.6787V25.0762Z" fill="#016FD0"/>
<path d="M78.0111 33.9452V31.4649H83.7277C84.5735 31.4649 84.9398 31.0079 84.9398 30.5066C84.9398 30.0263 84.5747 29.5408 83.7277 29.5408H81.1444C78.899 29.5408 77.6484 28.1729 77.6484 26.1191C77.6484 24.2873 78.7936 22.5208 82.1304 22.5208H87.6928L86.4901 25.0912H81.6794C80.7597 25.0912 80.4767 25.5738 80.4767 26.0345C80.4767 26.5081 80.8265 27.0304 81.529 27.0304H84.2351C86.7382 27.0304 87.8244 28.4501 87.8244 30.3093C87.8244 32.3081 86.614 33.9452 84.0988 33.9452H78.0111Z" fill="#016FD0"/>
<path d="M88.4955 33.9452V31.4649H94.2121C95.0579 31.4649 95.4242 31.0079 95.4242 30.5066C95.4242 30.0263 95.0591 29.5408 94.2121 29.5408H91.6288C89.3834 29.5408 88.1328 28.1729 88.1328 26.1191C88.1328 24.2873 89.278 22.5208 92.6147 22.5208H98.1772L96.9745 25.0912H92.1637C91.2441 25.0912 90.961 25.5738 90.961 26.0345C90.961 26.5081 91.3109 27.0304 92.0134 27.0304H94.7195C97.2226 27.0304 98.3088 28.4501 98.3088 30.3093C98.3088 32.3081 97.0984 33.9452 94.5832 33.9452H88.4955Z" fill="#016FD0"/>
</g>
<defs>
<clipPath id="clip0">
<rect width="97.4348" height="35.3652" fill="white" transform="translate(0.875 0.621826)"/>
</clipPath>
</defs>
</svg>
