<svg width="159" height="58" viewBox="0 0 159 58" fill="none" xmlns="http://www.w3.org/2000/svg">
<path d="M31.2715 57.4991V32.8472H57.3759L60.1767 36.4979L63.07 32.8472H157.823V55.799C157.823 55.799 155.345 57.4744 152.479 57.4991H100.012L96.8547 53.6131V57.4991H86.5071V50.8655C86.5071 50.8655 85.0936 51.7915 82.0377 51.7915H78.5157V57.4991H62.8486L60.0518 53.77L57.2122 57.4991H31.2715Z" fill="white"/>
<path d="M0.787109 14.2676L6.67377 0.545166H16.8541L20.1949 8.23193V0.545166H32.85L34.8387 6.10092L36.7668 0.545166H93.5751V3.33823C93.5751 3.33823 96.5615 0.545166 101.469 0.545166L119.902 0.609575L123.185 8.19573V0.545166H133.775L136.69 4.9028V0.545166H147.378V25.197H136.69L133.897 20.8253V25.197H118.337L116.772 21.311H112.589L111.05 25.197H100.498C96.2747 25.197 93.5751 22.461 93.5751 22.461V25.197H77.6651L74.5074 21.311V25.197H15.346L13.7823 21.311H9.61265L8.06002 25.197H0.787109V14.2676Z" fill="white"/>
<path d="M8.75817 3.5835L0.818359 22.0421H5.98759L7.45258 18.3458H15.9693L17.4267 22.0421H22.7098L14.7776 3.5835H8.75817ZM11.6958 7.87936L14.2918 14.3384H9.09216L11.6958 7.87936Z" fill="#016FD0"/>
<path d="M23.2559 22.0391V3.58057L30.6016 3.60785L34.8742 15.5088L39.0444 3.58057H46.3314V22.0391H41.7163V8.43809L36.8242 22.0391H32.7767L27.871 8.43809V22.0391H23.2559Z" fill="#016FD0"/>
<path d="M49.4883 22.0391V3.58057H64.5481V7.70947H54.152V10.8668H64.3052V14.7529H54.152V18.0317H64.5481V22.0391H49.4883Z" fill="#016FD0"/>
<path d="M67.2207 3.5835V22.0421H71.8358V15.4844H73.779L79.3126 22.0421H84.9524L78.8799 15.2415C81.3721 15.0313 83.9429 12.8925 83.9429 9.57192C83.9429 5.68759 80.8938 3.5835 77.4908 3.5835H67.2207ZM71.8358 7.71238H77.1113C78.3768 7.71238 79.2974 8.70221 79.2974 9.65539C79.2974 10.8817 78.1046 11.5984 77.1796 11.5984H71.8358V7.71238Z" fill="#016FD0"/>
<path d="M90.5404 22.0391H85.8281V3.58057H90.5404V22.0391Z" fill="#016FD0"/>
<path d="M101.714 22.0391H100.697C95.7752 22.0391 92.7871 18.1622 92.7871 12.8857C92.7871 7.4789 95.7417 3.58057 101.957 3.58057H107.058V7.95233H101.77C99.2472 7.95233 97.4629 9.92101 97.4629 12.9313C97.4629 16.506 99.5032 18.0074 102.442 18.0074H103.657L101.714 22.0391Z" fill="#016FD0"/>
<path d="M111.756 3.5835L103.816 22.0421H108.986L110.451 18.3458H118.967L120.425 22.0421H125.708L117.776 3.5835H111.756ZM114.694 7.87936L117.29 14.3384H112.09L114.694 7.87936Z" fill="#016FD0"/>
<path d="M126.246 22.0391V3.58057H132.114L139.606 15.1779V3.58057H144.221V22.0391H138.543L130.861 10.1382V22.0391H126.246Z" fill="#016FD0"/>
<path d="M34.4297 54.3419V35.8833H49.4895V40.0122H39.0934V43.1696H49.2466V47.0556H39.0934V50.3344H49.4895V54.3419H34.4297Z" fill="#016FD0"/>
<path d="M108.223 54.3419V35.8833H123.282V40.0122H112.886V43.1696H122.991V47.0556H112.886V50.3344H123.282V54.3419H108.223Z" fill="#016FD0"/>
<path d="M50.073 54.3419L57.4056 45.2264L49.8984 35.8833H55.7129L60.1838 41.6592L64.6698 35.8833H70.2565L62.8481 45.1126L70.1941 54.3419H64.3806L60.0395 48.657L55.804 54.3419H50.073Z" fill="#016FD0"/>
<path d="M70.7422 35.8862V54.3448H75.4788V48.5158H80.3368C84.4473 48.5158 87.5631 46.3353 87.5631 42.0947C87.5631 38.5819 85.1194 35.8862 80.9364 35.8862H70.7422ZM75.4788 40.0607H80.5948C81.9228 40.0607 82.872 40.8745 82.872 42.1858C82.872 43.4177 81.9276 44.311 80.5797 44.311H75.4788V40.0607Z" fill="#016FD0"/>
<path d="M89.5684 35.8833V54.3419H94.1835V47.7842H96.1267L101.66 54.3419H107.3L101.228 47.5413C103.72 47.331 106.291 45.1923 106.291 41.8717C106.291 37.9874 103.241 35.8833 99.8385 35.8833H89.5684ZM94.1835 40.0122H99.459C100.724 40.0122 101.645 41.002 101.645 41.9552C101.645 43.1815 100.452 43.8982 99.5273 43.8982H94.1835V40.0122Z" fill="#016FD0"/>
<path d="M125.42 54.3419V50.3344H134.656C136.023 50.3344 136.615 49.596 136.615 48.7861C136.615 48.0101 136.025 47.2256 134.656 47.2256H130.483C126.855 47.2256 124.834 45.0154 124.834 41.6972C124.834 38.7375 126.684 35.8833 132.075 35.8833H141.063L139.12 40.0365H131.347C129.861 40.0365 129.404 40.8161 129.404 41.5605C129.404 42.3257 129.969 43.1696 131.104 43.1696H135.476C139.52 43.1696 141.275 45.4634 141.275 48.4673C141.275 51.6968 139.32 54.3419 135.256 54.3419H125.42Z" fill="#016FD0"/>
<path d="M142.357 54.3419V50.3344H151.594C152.96 50.3344 153.552 49.596 153.552 48.7861C153.552 48.0101 152.962 47.2256 151.594 47.2256H147.42C143.792 47.2256 141.771 45.0154 141.771 41.6972C141.771 38.7375 143.622 35.8833 149.013 35.8833H158L156.057 40.0365H148.284C146.798 40.0365 146.341 40.8161 146.341 41.5605C146.341 42.3257 146.906 43.1696 148.041 43.1696H152.414C156.458 43.1696 158.213 45.4634 158.213 48.4673C158.213 51.6968 156.257 54.3419 152.193 54.3419H142.357Z" fill="#016FD0"/>
</svg>
