<svg width="170" height="45" viewBox="0 0 170 45" fill="none" xmlns="http://www.w3.org/2000/svg">
<g clip-path="url(#clip0)">
<path d="M45 22.5C45 34.9264 34.9264 45 22.5 45C10.0736 45 0 34.9264 0 22.5C0 10.0736 10.0736 0 22.5 0C34.9264 0 45 10.0736 45 22.5Z" fill="white"/>
<path d="M36.1553 22.5855C36.1553 22.6473 36.1089 23.3735 36.0162 24.764H17.7543C18.1251 26.0618 18.8358 27.066 19.8864 27.7767C20.9679 28.4565 22.3121 28.7964 23.9189 28.7964C25.124 28.7964 26.1591 28.6265 27.0243 28.2866C27.9204 27.9467 28.8165 27.3905 29.7126 26.618L34.3476 31.4384C31.9065 34.1576 28.3376 35.5172 23.6408 35.5172C20.7053 35.5172 18.1251 34.961 15.9003 33.8486C13.6755 32.7362 11.9451 31.1912 10.7091 29.2136C9.50404 27.236 8.90149 24.9957 8.90149 22.4928C8.90149 20.0208 9.48859 17.8115 10.6628 15.8648C11.8679 13.8872 13.521 12.3422 15.6222 11.2298C17.7234 10.1174 20.0873 9.56116 22.7138 9.56116C25.2167 9.56116 27.4878 10.0865 29.5272 11.1371C31.5666 12.1568 33.1734 13.6554 34.3476 15.633C35.5527 17.5797 36.1553 19.8972 36.1553 22.5855ZM22.7601 15.8184C21.4005 15.8184 20.2572 16.2047 19.3302 16.9772C18.4341 17.7497 17.8625 18.8003 17.6153 20.129H27.905C27.6578 18.8003 27.0707 17.7497 26.1437 16.9772C25.2476 16.2047 24.1197 15.8184 22.7601 15.8184Z" fill="#3872E9"/>
<path d="M59.625 14.85C61.05 14.85 62.2876 15.09 63.3376 15.57C64.3876 16.035 65.1976 16.71 65.7676 17.595C66.3376 18.465 66.6225 19.4925 66.6225 20.6775C66.6225 21.8625 66.3376 22.89 65.7676 23.76C65.1976 24.63 64.3876 25.305 63.3376 25.785C62.2876 26.25 61.05 26.4825 59.625 26.4825H56.8801V30.6H52.425V14.85H59.625ZM59.355 22.9725C60.27 22.9725 60.96 22.7775 61.425 22.3875C61.89 21.9825 62.1226 21.4125 62.1226 20.6775C62.1226 19.9425 61.89 19.3725 61.425 18.9675C60.96 18.5625 60.27 18.36 59.355 18.36H56.8801V22.9725H59.355Z" fill="white"/>
<path d="M73.6798 18.2025C75.7048 18.2025 77.2498 18.6675 78.3148 19.5975C79.3798 20.5125 79.9123 21.9225 79.9123 23.8275V30.6H75.9298V29.025C75.3148 30.21 74.1148 30.8025 72.3298 30.8025C71.3848 30.8025 70.5673 30.6375 69.8773 30.3075C69.1873 29.9775 68.6623 29.535 68.3023 28.98C67.9573 28.41 67.7848 27.765 67.7848 27.045C67.7848 25.89 68.2273 24.9975 69.1123 24.3675C69.9973 23.7225 71.3623 23.4 73.2073 23.4H75.6373C75.5623 22.11 74.6998 21.465 73.0498 21.465C72.4648 21.465 71.8723 21.5625 71.2723 21.7575C70.6723 21.9375 70.1623 22.1925 69.7423 22.5225L68.3023 19.62C68.9773 19.17 69.7948 18.825 70.7548 18.585C71.7298 18.33 72.7048 18.2025 73.6798 18.2025ZM73.5223 28.1025C74.0173 28.1025 74.4523 27.9825 74.8273 27.7425C75.2023 27.5025 75.4723 27.15 75.6373 26.685V25.6275H73.7923C72.5473 25.6275 71.9248 26.04 71.9248 26.865C71.9248 27.24 72.0673 27.54 72.3523 27.765C72.6373 27.99 73.0273 28.1025 73.5223 28.1025Z" fill="white"/>
<path d="M95.2385 18.405L89.9735 31.095C89.3585 32.595 88.6085 33.645 87.7235 34.245C86.8385 34.86 85.7585 35.1675 84.4835 35.1675C83.8385 35.1675 83.186 35.0625 82.526 34.8525C81.881 34.6575 81.356 34.395 80.951 34.065L82.436 31.0725C82.676 31.2975 82.961 31.47 83.291 31.59C83.636 31.725 83.981 31.7925 84.326 31.7925C84.731 31.7925 85.061 31.71 85.316 31.545C85.586 31.38 85.811 31.1175 85.991 30.7575L80.771 18.405H85.1585L88.151 25.8525L91.166 18.405H95.2385Z" fill="white"/>
<path d="M112.229 18.2025C113.729 18.2025 114.921 18.6525 115.806 19.5525C116.706 20.4525 117.156 21.81 117.156 23.625V30.6H112.881V24.3225C112.881 23.4675 112.716 22.8375 112.386 22.4325C112.071 22.0275 111.621 21.825 111.036 21.825C110.391 21.825 109.874 22.05 109.484 22.5C109.094 22.95 108.899 23.6325 108.899 24.5475V30.6H104.624V24.3225C104.624 22.6575 104.009 21.825 102.779 21.825C102.119 21.825 101.594 22.05 101.204 22.5C100.814 22.95 100.619 23.6325 100.619 24.5475V30.6H96.3436V18.405H100.416V19.6875C100.866 19.1925 101.399 18.825 102.014 18.585C102.644 18.33 103.326 18.2025 104.061 18.2025C104.916 18.2025 105.681 18.36 106.356 18.675C107.031 18.99 107.579 19.47 107.999 20.115C108.479 19.5 109.086 19.0275 109.821 18.6975C110.556 18.3675 111.359 18.2025 112.229 18.2025Z" fill="white"/>
<path d="M132.495 24.525C132.495 24.555 132.473 24.9075 132.428 25.5825H123.563C123.743 26.2125 124.088 26.7 124.598 27.045C125.123 27.375 125.775 27.54 126.555 27.54C127.14 27.54 127.643 27.4575 128.063 27.2925C128.498 27.1275 128.933 26.8575 129.368 26.4825L131.618 28.8225C130.433 30.1425 128.7 30.8025 126.42 30.8025C124.995 30.8025 123.743 30.5325 122.663 29.9925C121.583 29.4525 120.743 28.7025 120.143 27.7425C119.558 26.7825 119.265 25.695 119.265 24.48C119.265 23.28 119.55 22.2075 120.12 21.2625C120.705 20.3025 121.508 19.5525 122.528 19.0125C123.548 18.4725 124.695 18.2025 125.97 18.2025C127.185 18.2025 128.288 18.4575 129.278 18.9675C130.268 19.4625 131.048 20.19 131.618 21.15C132.203 22.095 132.495 23.22 132.495 24.525ZM125.993 21.24C125.333 21.24 124.778 21.4275 124.328 21.8025C123.893 22.1775 123.615 22.6875 123.495 23.3325H128.49C128.37 22.6875 128.085 22.1775 127.635 21.8025C127.2 21.4275 126.653 21.24 125.993 21.24Z" fill="white"/>
<path d="M142.409 18.2025C143.924 18.2025 145.139 18.6525 146.054 19.5525C146.984 20.4525 147.449 21.81 147.449 23.625V30.6H143.174V24.3225C143.174 22.6575 142.506 21.825 141.171 21.825C140.436 21.825 139.844 22.065 139.394 22.545C138.959 23.025 138.741 23.745 138.741 24.705V30.6H134.466V18.405H138.539V19.7325C139.019 19.2375 139.589 18.8625 140.249 18.6075C140.909 18.3375 141.629 18.2025 142.409 18.2025Z" fill="white"/>
<path d="M158.548 30.105C158.188 30.33 157.745 30.5025 157.22 30.6225C156.71 30.7425 156.163 30.8025 155.578 30.8025C153.988 30.8025 152.765 30.4125 151.91 29.6325C151.055 28.8525 150.628 27.69 150.628 26.145V22.05H148.85V18.855H150.628V15.6825H154.903V18.855H157.693V22.05H154.903V26.1C154.903 26.535 155.015 26.88 155.24 27.135C155.48 27.375 155.795 27.495 156.185 27.495C156.68 27.495 157.115 27.3675 157.49 27.1125L158.548 30.105Z" fill="white"/>
<path d="M164.629 30.8025C163.609 30.8025 162.604 30.69 161.614 30.465C160.624 30.225 159.829 29.9175 159.229 29.5425L160.511 26.6175C161.066 26.9625 161.726 27.24 162.491 27.45C163.256 27.645 164.014 27.7425 164.764 27.7425C165.454 27.7425 165.941 27.675 166.226 27.54C166.526 27.39 166.676 27.18 166.676 26.91C166.676 26.64 166.496 26.4525 166.136 26.3475C165.791 26.2275 165.236 26.115 164.471 26.01C163.496 25.89 162.664 25.7325 161.974 25.5375C161.299 25.3425 160.714 24.9825 160.219 24.4575C159.724 23.9325 159.476 23.1975 159.476 22.2525C159.476 21.4725 159.709 20.7825 160.174 20.1825C160.639 19.5675 161.314 19.0875 162.199 18.7425C163.099 18.3825 164.171 18.2025 165.416 18.2025C166.301 18.2025 167.179 18.2925 168.049 18.4725C168.919 18.6525 169.646 18.9075 170.231 19.2375L168.949 22.14C167.869 21.54 166.699 21.24 165.439 21.24C164.764 21.24 164.269 21.3225 163.954 21.4875C163.639 21.6375 163.481 21.84 163.481 22.095C163.481 22.38 163.654 22.5825 163.999 22.7025C164.344 22.8075 164.914 22.92 165.709 23.04C166.714 23.19 167.546 23.3625 168.206 23.5575C168.866 23.7525 169.436 24.1125 169.916 24.6375C170.411 25.1475 170.659 25.8675 170.659 26.7975C170.659 27.5625 170.426 28.2525 169.961 28.8675C169.496 29.4675 168.806 29.94 167.891 30.285C166.991 30.63 165.904 30.8025 164.629 30.8025Z" fill="white"/>
</g>
<defs>
<clipPath id="clip0">
<rect width="170" height="45" fill="white"/>
</clipPath>
</defs>
</svg>
