<svg width="112" height="29" viewBox="0 0 112 29" fill="none" xmlns="http://www.w3.org/2000/svg">
<g opacity="0.5" clip-path="url(#clip0)">
<path d="M29.6471 14.5C29.6471 22.5081 23.0103 29 14.8235 29C6.63672 29 0 22.5081 0 14.5C0 6.49188 6.63672 0 14.8235 0C23.0103 0 29.6471 6.49188 29.6471 14.5Z" fill="white"/>
<path d="M23.82 14.5551C23.82 14.5949 23.7894 15.0629 23.7283 15.959H11.697C11.9412 16.7954 12.4095 17.4425 13.1016 17.9005C13.8141 18.3386 14.6997 18.5577 15.7583 18.5577C16.5523 18.5577 17.2342 18.4482 17.8042 18.2291C18.3946 18.0101 18.985 17.6516 19.5754 17.1538L22.629 20.2603C21.0208 22.0127 18.6695 22.8888 15.5751 22.8888C13.6411 22.8888 11.9412 22.5304 10.4755 21.8135C9.00974 21.0966 7.86971 20.101 7.05541 18.8265C6.26146 17.5521 5.86449 16.1083 5.86449 14.4953C5.86449 12.9023 6.25128 11.4785 7.02491 10.224C7.81885 8.94951 8.90795 7.95385 10.2923 7.23697C11.6766 6.52009 13.234 6.16162 14.9644 6.16162C16.6134 6.16162 18.1096 6.50017 19.4532 7.17723C20.7968 7.83437 21.8554 8.80013 22.629 10.0746C23.423 11.3291 23.82 12.8226 23.82 14.5551ZM14.9949 10.1941C14.0992 10.1941 13.3459 10.443 12.7352 10.9408C12.1448 11.4387 11.7682 12.1157 11.6054 12.972H18.3845C18.2216 12.1157 17.8348 11.4387 17.2241 10.9408C16.6337 10.443 15.8906 10.1941 14.9949 10.1941Z" fill="#3872E9"/>
<path d="M39.2823 9.57007C40.2212 9.57007 41.0365 9.72473 41.7282 10.0341C42.42 10.3337 42.9536 10.7687 43.3292 11.3391C43.7047 11.8997 43.8925 12.5619 43.8925 13.3256C43.8925 14.0892 43.7047 14.7514 43.3292 15.3121C42.9536 15.8727 42.42 16.3077 41.7282 16.6171C41.0365 16.9167 40.2212 17.0666 39.2823 17.0666H37.4739V19.7201H34.5388V9.57007H39.2823ZM39.1045 14.8046C39.7073 14.8046 40.1619 14.6789 40.4682 14.4276C40.7746 14.1666 40.9278 13.7992 40.9278 13.3256C40.9278 12.8519 40.7746 12.4846 40.4682 12.2236C40.1619 11.9626 39.7073 11.8321 39.1045 11.8321H37.4739V14.8046H39.1045Z" fill="white"/>
<path d="M48.542 11.7305C49.8761 11.7305 50.894 12.0301 51.5956 12.6295C52.2973 13.2191 52.6481 14.1278 52.6481 15.3555V19.72H50.0243V18.705C49.6192 19.4686 48.8286 19.8505 47.6526 19.8505C47.03 19.8505 46.4914 19.7441 46.0368 19.5315C45.5822 19.3188 45.2363 19.0336 44.9992 18.676C44.7719 18.3086 44.6582 17.893 44.6582 17.429C44.6582 16.6846 44.9497 16.1095 45.5328 15.7035C46.1159 15.2878 47.0152 15.08 48.2307 15.08H49.8316C49.7822 14.2486 49.214 13.833 48.1269 13.833C47.7415 13.833 47.3512 13.8958 46.9559 14.0215C46.5606 14.1375 46.2246 14.3018 45.9479 14.5145L44.9992 12.644C45.4439 12.354 45.9825 12.1316 46.6149 11.977C47.2573 11.8126 47.8996 11.7305 48.542 11.7305ZM48.4382 18.1105C48.7643 18.1105 49.0509 18.0331 49.298 17.8785C49.545 17.7238 49.7229 17.4966 49.8316 17.197V16.5155H48.6161C47.7959 16.5155 47.3857 16.7813 47.3857 17.313C47.3857 17.5546 47.4796 17.748 47.6674 17.893C47.8552 18.038 48.1121 18.1105 48.4382 18.1105Z" fill="white"/>
<path d="M62.7454 11.8611L59.2767 20.0391C58.8715 21.0057 58.3774 21.6824 57.7943 22.0691C57.2112 22.4654 56.4997 22.6636 55.6597 22.6636C55.2348 22.6636 54.8049 22.5959 54.3701 22.4606C53.9451 22.3349 53.5992 22.1657 53.3324 21.9531L54.3108 20.0246C54.4689 20.1696 54.6567 20.2807 54.8741 20.3581C55.1014 20.4451 55.3287 20.4886 55.5559 20.4886C55.8228 20.4886 56.0402 20.4354 56.2082 20.3291C56.3861 20.2227 56.5343 20.0536 56.6529 19.8216L53.2138 11.8611H56.1044L58.076 16.6606L60.0623 11.8611H62.7454Z" fill="white"/>
<path d="M73.9391 11.7305C74.9273 11.7305 75.7126 12.0205 76.2957 12.6005C76.8886 13.1805 77.1851 14.0553 77.1851 15.225V19.72H74.3686V15.6745C74.3686 15.1235 74.2599 14.7175 74.0425 14.4565C73.835 14.1955 73.5385 14.065 73.1531 14.065C72.7282 14.065 72.3876 14.21 72.1306 14.5C71.8737 14.79 71.7452 15.2298 71.7452 15.8195V19.72H68.9287V15.6745C68.9287 14.6015 68.5236 14.065 67.7132 14.065C67.2784 14.065 66.9325 14.21 66.6756 14.5C66.4186 14.79 66.2902 15.2298 66.2902 15.8195V19.72H63.4734V11.861H66.1564V12.6875C66.4529 12.3685 66.804 12.1316 67.2092 11.977C67.6243 11.8126 68.0736 11.7305 68.5578 11.7305C69.1211 11.7305 69.6251 11.832 70.0698 12.035C70.5145 12.238 70.8756 12.5473 71.1523 12.963C71.4685 12.5666 71.8684 12.2621 72.3526 12.0495C72.8369 11.8368 73.3659 11.7305 73.9391 11.7305Z" fill="white"/>
<path d="M87.2908 15.805C87.2908 15.8243 87.2763 16.0515 87.2467 16.4865H81.4062C81.5248 16.8925 81.7521 17.2066 82.0881 17.429C82.434 17.6416 82.8635 17.748 83.3774 17.748C83.7628 17.748 84.0942 17.6948 84.3709 17.5885C84.6575 17.4821 84.9441 17.3081 85.2307 17.0665L86.713 18.5745C85.9323 19.4251 84.7906 19.8505 83.2885 19.8505C82.3496 19.8505 81.5248 19.6765 80.8133 19.3285C80.1017 18.9805 79.5483 18.4971 79.153 17.8785C78.7676 17.2598 78.5746 16.559 78.5746 15.776C78.5746 15.0026 78.7624 14.3115 79.1379 13.7025C79.5233 13.0838 80.0523 12.6005 80.7243 12.2525C81.3963 11.9045 82.152 11.7305 82.992 11.7305C83.7925 11.7305 84.5192 11.8948 85.1714 12.2235C85.8236 12.5425 86.3375 13.0113 86.713 13.63C87.0984 14.239 87.2908 14.964 87.2908 15.805ZM83.0072 13.688C82.5723 13.688 82.2067 13.8088 81.9102 14.0505C81.6236 14.2921 81.4405 14.6208 81.3614 15.0365H84.6522C84.5732 14.6208 84.3854 14.2921 84.0889 14.0505C83.8024 13.8088 83.442 13.688 83.0072 13.688Z" fill="white"/>
<path d="M93.8224 11.7305C94.8205 11.7305 95.621 12.0205 96.2238 12.6005C96.8365 13.1805 97.1429 14.0553 97.1429 15.225V19.72H94.3264V15.6745C94.3264 14.6015 93.8863 14.065 93.0068 14.065C92.5225 14.065 92.1325 14.2196 91.836 14.529C91.5494 14.8383 91.4058 15.3023 91.4058 15.921V19.72H88.5894V11.861H91.2727V12.7165C91.589 12.3975 91.9645 12.1558 92.3993 11.9915C92.8341 11.8175 93.3085 11.7305 93.8224 11.7305Z" fill="white"/>
<path d="M104.455 19.4009C104.218 19.5459 103.926 19.6571 103.58 19.7344C103.244 19.8118 102.884 19.8504 102.498 19.8504C101.451 19.8504 100.645 19.5991 100.082 19.0964C99.5186 18.5938 99.2373 17.8446 99.2373 16.8489V14.2099H98.0659V12.1509H99.2373V10.1064H102.054V12.1509H103.892V14.2099H102.054V16.8199C102.054 17.1003 102.128 17.3226 102.276 17.4869C102.434 17.6416 102.641 17.7189 102.898 17.7189C103.224 17.7189 103.511 17.6368 103.758 17.4724L104.455 19.4009Z" fill="white"/>
<path d="M108.461 19.8505C107.789 19.8505 107.127 19.778 106.475 19.633C105.823 19.4783 105.299 19.2801 104.904 19.0385L105.748 17.1535C106.114 17.3758 106.549 17.5546 107.053 17.69C107.557 17.8156 108.056 17.8785 108.55 17.8785C109.005 17.8785 109.326 17.835 109.514 17.748C109.711 17.6513 109.81 17.516 109.81 17.342C109.81 17.168 109.691 17.0471 109.454 16.9795C109.227 16.9021 108.861 16.8296 108.357 16.762C107.715 16.6846 107.167 16.5831 106.712 16.4575C106.268 16.3318 105.882 16.0998 105.556 15.7615C105.23 15.4231 105.067 14.9495 105.067 14.3405C105.067 13.8378 105.22 13.3931 105.526 13.0065C105.833 12.6101 106.277 12.3008 106.861 12.0785C107.453 11.8465 108.16 11.7305 108.98 11.7305C109.563 11.7305 110.141 11.7885 110.715 11.9045C111.288 12.0205 111.767 12.1848 112.152 12.3975L111.308 14.268C110.596 13.8813 109.825 13.688 108.995 13.688C108.55 13.688 108.224 13.7411 108.017 13.8475C107.809 13.9441 107.705 14.0746 107.705 14.239C107.705 14.4226 107.819 14.5531 108.046 14.6305C108.274 14.6981 108.649 14.7706 109.173 14.848C109.835 14.9446 110.383 15.0558 110.818 15.1815C111.253 15.3071 111.628 15.5391 111.945 15.8775C112.271 16.2061 112.434 16.6701 112.434 17.2695C112.434 17.7625 112.281 18.2071 111.974 18.6035C111.668 18.9901 111.213 19.2946 110.611 19.517C110.018 19.7393 109.301 19.8505 108.461 19.8505Z" fill="white"/>
</g>
<defs>
<clipPath id="clip0">
<rect width="112" height="29" fill="white"/>
</clipPath>
</defs>
</svg>
