<svg width="94" height="73" viewBox="0 0 94 73" fill="none" xmlns="http://www.w3.org/2000/svg">
<g clip-path="url(#clip0)">
<path d="M17.6606 72.129V67.3695C17.6606 65.5489 16.5473 64.3567 14.636 64.3567C13.6803 64.3567 12.6412 64.6709 11.9268 65.706C11.3701 64.8373 10.5722 64.3567 9.37531 64.3567C8.57739 64.3567 7.77948 64.597 7.14857 65.4657V64.5138H5.47852V72.129H7.14857V67.924C7.14857 66.5747 7.86298 65.937 8.97635 65.937C10.0897 65.937 10.6464 66.6486 10.6464 67.924V72.129H12.3165V67.924C12.3165 66.5747 13.1144 65.937 14.1442 65.937C15.2576 65.937 15.8143 66.6486 15.8143 67.924V72.129H17.6606ZM42.4331 64.5138H39.7239V62.2126H38.0538V64.5138H36.5415V66.0202H38.0538V69.5136C38.0538 71.2603 38.7682 72.2861 40.6795 72.2861C41.3939 72.2861 42.1918 72.0458 42.7485 71.7316L42.2661 70.2991C41.7836 70.6134 41.2269 70.6965 40.828 70.6965C40.0301 70.6965 39.7146 70.216 39.7146 69.4304V66.0202H42.4238V64.5138H42.4331ZM56.61 64.3474C55.6543 64.3474 55.0141 64.828 54.6152 65.4565V64.5046H52.9451V72.1198H54.6152V67.8316C54.6152 66.5655 55.1719 65.8446 56.211 65.8446C56.5265 65.8446 56.9254 65.9278 57.2502 66.0017L57.7326 64.4121C57.3986 64.3474 56.9254 64.3474 56.61 64.3474ZM35.1869 65.1422C34.389 64.5877 33.2756 64.3474 32.0788 64.3474C30.1675 64.3474 28.8964 65.2993 28.8964 66.8058C28.8964 68.0719 29.852 68.7927 31.5221 69.0238L32.32 69.107C33.1921 69.2641 33.6746 69.5044 33.6746 69.9017C33.6746 70.4563 33.0344 70.8536 31.921 70.8536C30.8077 70.8536 29.9262 70.4563 29.3696 70.0589L28.5716 71.325C29.4438 71.9627 30.6406 72.2769 31.8375 72.2769C34.0643 72.2769 35.3446 71.2418 35.3446 69.8186C35.3446 68.4693 34.3055 67.7577 32.7189 67.5174L31.921 67.4342C31.2066 67.351 30.6499 67.1939 30.6499 66.7226C30.6499 66.1681 31.2066 65.8539 32.088 65.8539C33.0437 65.8539 33.9993 66.2512 34.4818 66.4915L35.1869 65.1422ZM79.6196 64.3474C78.664 64.3474 78.0238 64.828 77.6248 65.4565V64.5046H75.9548V72.1198H77.6248V67.8316C77.6248 66.5655 78.1815 65.8446 79.2206 65.8446C79.5361 65.8446 79.935 65.9278 80.2598 66.0017L80.7422 64.4306C80.4175 64.3474 79.9443 64.3474 79.6196 64.3474ZM58.28 68.3214C58.28 70.6226 59.8759 72.2861 62.3438 72.2861C63.4572 72.2861 64.2551 72.0458 65.053 71.4174L64.2551 70.0681C63.6149 70.5487 62.984 70.7797 62.2603 70.7797C60.9057 70.7797 59.9501 69.8278 59.9501 68.3214C59.9501 66.8889 60.9057 65.937 62.2603 65.8631C62.9747 65.8631 63.6149 66.1034 64.2551 66.5747L65.053 65.2254C64.2551 64.5877 63.4572 64.3567 62.3438 64.3567C59.8759 64.3474 58.28 66.0202 58.28 68.3214ZM73.728 68.3214V64.5138H72.058V65.4657C71.5013 64.7541 70.7034 64.3567 69.6642 64.3567C67.5117 64.3567 65.8417 66.0202 65.8417 68.3214C65.8417 70.6226 67.5117 72.2861 69.6642 72.2861C70.7776 72.2861 71.5755 71.8887 72.058 71.1771V72.129H73.728V68.3214ZM67.5952 68.3214C67.5952 66.9721 68.4674 65.8631 69.9055 65.8631C71.26 65.8631 72.2157 66.8982 72.2157 68.3214C72.2157 69.6707 71.26 70.7797 69.9055 70.7797C68.4766 70.6965 67.5952 69.6615 67.5952 68.3214ZM47.6102 64.3474C45.3835 64.3474 43.7877 65.937 43.7877 68.3122C43.7877 70.6965 45.3835 72.2769 47.6937 72.2769C48.8071 72.2769 49.9205 71.9627 50.8019 71.2418L50.004 70.0496C49.3638 70.5302 48.5659 70.8444 47.7772 70.8444C46.7381 70.8444 45.7082 70.3638 45.467 69.0238H51.1174C51.1174 68.7835 51.1174 68.6264 51.1174 68.3861C51.1916 65.937 49.7535 64.3474 47.6102 64.3474ZM47.6102 65.7799C48.6494 65.7799 49.3638 66.4176 49.5215 67.6005H45.5412C45.699 66.5747 46.4134 65.7799 47.6102 65.7799ZM89.1018 68.3214V61.501H87.4317V65.4657C86.875 64.7541 86.0771 64.3567 85.038 64.3567C82.8855 64.3567 81.2154 66.0202 81.2154 68.3214C81.2154 70.6226 82.8855 72.2861 85.038 72.2861C86.1514 72.2861 86.9493 71.8887 87.4317 71.1771V72.129H89.1018V68.3214ZM82.969 68.3214C82.969 66.9721 83.8411 65.8631 85.2792 65.8631C86.6338 65.8631 87.5895 66.8982 87.5895 68.3214C87.5895 69.6707 86.6338 70.7797 85.2792 70.7797C83.8411 70.6965 82.969 69.6615 82.969 68.3214ZM27.0593 68.3214V64.5138H25.3893V65.4657C24.8326 64.7541 24.0347 64.3567 22.9955 64.3567C20.843 64.3567 19.1729 66.0202 19.1729 68.3214C19.1729 70.6226 20.843 72.2861 22.9955 72.2861C24.1089 72.2861 24.9068 71.8887 25.3893 71.1771V72.129H27.0593V68.3214ZM20.8523 68.3214C20.8523 66.9721 21.7244 65.8631 23.1625 65.8631C24.5171 65.8631 25.4728 66.8982 25.4728 68.3214C25.4728 69.6707 24.5171 70.7797 23.1625 70.7797C21.7244 70.6965 20.8523 69.6615 20.8523 68.3214Z" fill="black"/>
<path d="M59.7168 6.67871H34.6289V51.5753H59.7168V6.67871Z" fill="#FF5A00"/>
<path d="M36.2997 29.1272C36.2997 20.0056 40.6047 11.9098 47.2107 6.6789C42.349 2.87128 36.2162 0.570068 29.5267 0.570068C13.6797 0.570068 0.857422 13.3422 0.857422 29.1272C0.857422 44.9122 13.6797 57.6844 29.5267 57.6844C36.2162 57.6844 42.349 55.3832 47.2107 51.5756C40.5954 46.4186 36.2997 38.2489 36.2997 29.1272Z" fill="#EB001B"/>
<path d="M93.5642 29.1272C93.5642 44.9122 80.7419 57.6844 64.8949 57.6844C58.2055 57.6844 52.0726 55.3832 47.2109 51.5756C53.9004 46.3354 58.122 38.2489 58.122 29.1272C58.122 20.0056 53.8169 11.9098 47.2109 6.6789C52.0634 2.87128 58.1962 0.570068 64.8857 0.570068C80.7419 0.570068 93.5642 13.4254 93.5642 29.1272Z" fill="#F79E1B"/>
</g>
<defs>
<clipPath id="clip0">
<rect width="92.7065" height="71.7164" fill="white" transform="translate(0.857422 0.570068)"/>
</clipPath>
</defs>
</svg>
