<svg width="59" height="46" viewBox="0 0 59 46" fill="none" xmlns="http://www.w3.org/2000/svg">
<g clip-path="url(#clip0)">
<path d="M11.1238 44.9725V42.0267C11.1238 40.8999 10.4347 40.162 9.25176 40.162C8.66029 40.162 8.01714 40.3565 7.57497 40.9971C7.23042 40.4594 6.73657 40.162 5.9958 40.162C5.50195 40.162 5.00811 40.3107 4.61762 40.8484V40.2592H3.58398V44.9725H4.61762V42.3699C4.61762 41.5348 5.05979 41.1401 5.74888 41.1401C6.43797 41.1401 6.78251 41.5805 6.78251 42.3699V44.9725H7.81615V42.3699C7.81615 41.5348 8.31 41.1401 8.94741 41.1401C9.6365 41.1401 9.98104 41.5805 9.98104 42.3699V44.9725H11.1238ZM26.4561 40.2592H24.7793V38.835H23.7456V40.2592H22.8096V41.1916H23.7456V43.3537C23.7456 44.4348 24.1878 45.0697 25.3707 45.0697C25.8129 45.0697 26.3068 44.921 26.6513 44.7265L26.3527 43.8399C26.0541 44.0344 25.7095 44.0859 25.4626 44.0859C24.9688 44.0859 24.7735 43.7884 24.7735 43.3023V41.1916H26.4503V40.2592H26.4561ZM35.2305 40.1563C34.639 40.1563 34.2428 40.4537 33.9959 40.8427V40.2535H32.9622V44.9668H33.9959V42.3127C33.9959 41.5291 34.3404 41.0829 34.9836 41.0829C35.1788 41.0829 35.4257 41.1344 35.6267 41.1801L35.9253 40.1963C35.7186 40.1563 35.4257 40.1563 35.2305 40.1563ZM21.9712 40.6482C21.4774 40.305 20.7883 40.1563 20.0475 40.1563C18.8646 40.1563 18.0779 40.7454 18.0779 41.6778C18.0779 42.4614 18.6693 42.9076 19.703 43.0506L20.1968 43.1021C20.7366 43.1993 21.0352 43.348 21.0352 43.594C21.0352 43.9372 20.639 44.1831 19.9499 44.1831C19.2608 44.1831 18.7153 43.9372 18.3707 43.6912L17.8769 44.4748C18.4167 44.8695 19.1574 45.064 19.8982 45.064C21.2764 45.064 22.0688 44.4234 22.0688 43.5425C22.0688 42.7074 21.4257 42.2669 20.4437 42.1182L19.9499 42.0667C19.5077 42.0153 19.1632 41.918 19.1632 41.6263C19.1632 41.2831 19.5077 41.0886 20.0533 41.0886C20.6447 41.0886 21.2362 41.3346 21.5348 41.4833L21.9712 40.6482ZM49.4717 40.1563C48.8802 40.1563 48.484 40.4537 48.2371 40.8427V40.2535H47.2034V44.9668H48.2371V42.3127C48.2371 41.5291 48.5816 41.0829 49.2248 41.0829C49.42 41.0829 49.6669 41.1344 49.8679 41.1801L50.1665 40.2078C49.9655 40.1563 49.6727 40.1563 49.4717 40.1563ZM36.2641 42.6159C36.2641 44.0401 37.2518 45.0697 38.7793 45.0697C39.4684 45.0697 39.9622 44.921 40.4561 44.532L39.9622 43.6969C39.566 43.9944 39.1755 44.1374 38.7276 44.1374C37.8892 44.1374 37.2978 43.5482 37.2978 42.6159C37.2978 41.7293 37.8892 41.1401 38.7276 41.0944C39.1698 41.0944 39.566 41.2431 39.9622 41.5348L40.4561 40.6997C39.9622 40.305 39.4684 40.162 38.7793 40.162C37.2518 40.1563 36.2641 41.1916 36.2641 42.6159ZM45.8253 42.6159V40.2592H44.7916V40.8484C44.4471 40.408 43.9532 40.162 43.3101 40.162C41.9778 40.162 40.9442 41.1916 40.9442 42.6159C40.9442 44.0401 41.9778 45.0697 43.3101 45.0697C43.9992 45.0697 44.493 44.8238 44.7916 44.3833V44.9725H45.8253V42.6159ZM42.0295 42.6159C42.0295 41.7807 42.5693 41.0944 43.4594 41.0944C44.2978 41.0944 44.8892 41.735 44.8892 42.6159C44.8892 43.451 44.2978 44.1374 43.4594 44.1374C42.575 44.0859 42.0295 43.4453 42.0295 42.6159ZM29.6603 40.1563C28.2821 40.1563 27.2945 41.1401 27.2945 42.6101C27.2945 44.0859 28.2821 45.064 29.712 45.064C30.4011 45.064 31.0902 44.8695 31.6357 44.4234L31.1419 43.6855C30.7456 43.9829 30.2518 44.1774 29.7637 44.1774C29.1205 44.1774 28.4831 43.88 28.3338 43.0506H31.831C31.831 42.9019 31.831 42.8046 31.831 42.6559C31.8769 41.1401 30.9868 40.1563 29.6603 40.1563ZM29.6603 41.0429C30.3035 41.0429 30.7456 41.4375 30.8433 42.1697H28.3798C28.4774 41.5348 28.9196 41.0429 29.6603 41.0429ZM55.3404 42.6159V38.3945H54.3068V40.8484C53.9623 40.408 53.4684 40.162 52.8253 40.162C51.493 40.162 50.4594 41.1916 50.4594 42.6159C50.4594 44.0401 51.493 45.0697 52.8253 45.0697C53.5144 45.0697 54.0082 44.8238 54.3068 44.3833V44.9725H55.3404V42.6159ZM51.5447 42.6159C51.5447 41.7807 52.0845 41.0944 52.9746 41.0944C53.813 41.0944 54.4044 41.735 54.4044 42.6159C54.4044 43.451 53.813 44.1374 52.9746 44.1374C52.0845 44.0859 51.5447 43.4453 51.5447 42.6159ZM16.9409 42.6159V40.2592H15.9072V40.8484C15.5627 40.408 15.0688 40.162 14.4257 40.162C13.0934 40.162 12.0598 41.1916 12.0598 42.6159C12.0598 44.0401 13.0934 45.0697 14.4257 45.0697C15.1148 45.0697 15.6086 44.8238 15.9072 44.3833V44.9725H16.9409V42.6159ZM13.0992 42.6159C13.0992 41.7807 13.639 41.0944 14.529 41.0944C15.3674 41.0944 15.9589 41.735 15.9589 42.6159C15.9589 43.451 15.3674 44.1374 14.529 44.1374C13.639 44.0859 13.0992 43.4453 13.0992 42.6159Z" fill="black"/>
<path d="M37.1525 4.46338H21.625V32.251H37.1525V4.46338Z" fill="#FF5A00"/>
<path d="M22.6607 18.3573C22.6607 12.7117 25.3252 7.70102 29.4138 4.46352C26.4047 2.10689 22.609 0.682617 18.4687 0.682617C8.66064 0.682617 0.724609 8.58762 0.724609 18.3573C0.724609 28.127 8.66064 36.032 18.4687 36.032C22.609 36.032 26.4047 34.6078 29.4138 32.2511C25.3194 29.0594 22.6607 24.0029 22.6607 18.3573Z" fill="#EB001B"/>
<path d="M58.0993 18.3573C58.0993 28.127 50.1633 36.032 40.3552 36.032C36.2149 36.032 32.4192 34.6078 29.4102 32.2511C33.5504 29.0079 36.1632 24.0029 36.1632 18.3573C36.1632 12.7117 33.4988 7.70102 29.4102 4.46352C32.4134 2.10689 36.2092 0.682617 40.3495 0.682617C50.1633 0.682617 58.0993 8.6391 58.0993 18.3573Z" fill="#F79E1B"/>
</g>
<defs>
<clipPath id="clip0">
<rect width="57.3783" height="44.387" fill="white" transform="translate(0.724609 0.682617)"/>
</clipPath>
</defs>
</svg>
