<svg width="159" height="123" viewBox="0 0 159 123" fill="none" xmlns="http://www.w3.org/2000/svg">
<path d="M28.818 122.73V114.567C28.818 111.445 26.9084 109.4 23.6304 109.4C21.9914 109.4 20.2092 109.939 18.9839 111.714C18.0291 110.224 16.6606 109.4 14.6079 109.4C13.2394 109.4 11.8709 109.812 10.7889 111.302V109.67H7.92456V122.73H10.7889V115.519C10.7889 113.204 12.0141 112.111 13.9237 112.111C15.8332 112.111 16.788 113.331 16.788 115.519V122.73H19.6522V115.519C19.6522 113.204 21.0207 112.111 22.787 112.111C24.6966 112.111 25.6513 113.331 25.6513 115.519V122.73H28.818ZM71.305 109.67H66.6584V105.723H63.7942V109.67H61.2004V112.253H63.7942V118.245C63.7942 121.241 65.0194 123 68.2975 123C69.5227 123 70.8912 122.588 71.846 122.049L71.0185 119.592C70.1911 120.131 69.2363 120.274 68.5521 120.274C67.1836 120.274 66.6425 119.449 66.6425 118.102V112.253H71.2891V109.67H71.305ZM95.6196 109.384C93.9806 109.384 92.8826 110.209 92.1984 111.286V109.654H89.3341V122.715H92.1984V115.36C92.1984 113.188 93.1531 111.952 94.9354 111.952C95.4764 111.952 96.1606 112.095 96.7176 112.222L97.5451 109.495C96.9722 109.384 96.1607 109.384 95.6196 109.384ZM58.8771 110.748C57.5086 109.797 55.5991 109.384 53.5464 109.384C50.2683 109.384 48.0883 111.017 48.0883 113.601C48.0883 115.772 49.7273 117.008 52.5916 117.405L53.9601 117.547C55.4559 117.817 56.2833 118.229 56.2833 118.911C56.2833 119.862 55.1854 120.543 53.2758 120.543C51.3663 120.543 49.8546 119.862 48.8998 119.18L47.5313 121.351C49.0271 122.445 51.0799 122.984 53.1326 122.984C56.9517 122.984 59.1476 121.209 59.1476 118.768C59.1476 116.454 57.3654 115.233 54.6443 114.821L53.2758 114.678C52.0506 114.536 51.0958 114.266 51.0958 113.458C51.0958 112.507 52.0506 111.968 53.5623 111.968C55.2013 111.968 56.8403 112.65 57.6678 113.062L58.8771 110.748ZM135.083 109.384C133.444 109.384 132.346 110.209 131.662 111.286V109.654H128.798V122.715H131.662V115.36C131.662 113.188 132.617 111.952 134.399 111.952C134.94 111.952 135.624 112.095 136.181 112.222L137.009 109.527C136.452 109.384 135.64 109.384 135.083 109.384ZM98.4839 116.2C98.4839 120.147 101.221 123 105.454 123C107.363 123 108.732 122.588 110.1 121.51L108.732 119.196C107.634 120.02 106.552 120.416 105.31 120.416C102.987 120.416 101.348 118.784 101.348 116.2C101.348 113.743 102.987 112.111 105.31 111.984C106.536 111.984 107.634 112.396 108.732 113.204L110.1 110.89C108.732 109.796 107.363 109.4 105.454 109.4C101.221 109.384 98.4839 112.253 98.4839 116.2ZM124.979 116.2V109.67H122.114V111.302C121.16 110.082 119.791 109.4 118.009 109.4C114.317 109.4 111.453 112.253 111.453 116.2C111.453 120.147 114.317 123 118.009 123C119.918 123 121.287 122.318 122.114 121.098V122.73H124.979V116.2ZM114.46 116.2C114.46 113.886 115.956 111.984 118.423 111.984C120.746 111.984 122.385 113.759 122.385 116.2C122.385 118.514 120.746 120.416 118.423 120.416C115.972 120.274 114.46 118.498 114.46 116.2ZM80.1843 109.384C76.3652 109.384 73.6282 112.111 73.6282 116.184C73.6282 120.274 76.3652 122.984 80.3275 122.984C82.237 122.984 84.1465 122.445 85.6582 121.209L84.2898 119.164C83.1918 119.988 81.8233 120.527 80.4707 120.527C78.6885 120.527 76.9222 119.703 76.5084 117.405H86.1993C86.1993 116.993 86.1993 116.723 86.1993 116.311C86.3266 112.111 83.8601 109.384 80.1843 109.384ZM80.1843 111.841C81.9665 111.841 83.1918 112.935 83.4623 114.964H76.6357C76.9062 113.204 78.1315 111.841 80.1843 111.841ZM151.346 116.2V104.502H148.482V111.302C147.527 110.082 146.158 109.4 144.376 109.4C140.684 109.4 137.82 112.253 137.82 116.2C137.82 120.147 140.684 123 144.376 123C146.286 123 147.654 122.318 148.482 121.098V122.73H151.346V116.2ZM140.828 116.2C140.828 113.886 142.323 111.984 144.79 111.984C147.113 111.984 148.752 113.759 148.752 116.2C148.752 118.514 147.113 120.416 144.79 120.416C142.323 120.274 140.828 118.498 140.828 116.2ZM44.9376 116.2V109.67H42.0733V111.302C41.1185 110.082 39.75 109.4 37.9678 109.4C34.276 109.4 31.4117 112.253 31.4117 116.2C31.4117 120.147 34.276 123 37.9678 123C39.8773 123 41.2458 122.318 42.0733 121.098V122.73H44.9376V116.2ZM34.292 116.2C34.292 113.886 35.7877 111.984 38.2542 111.984C40.5775 111.984 42.2165 113.759 42.2165 116.2C42.2165 118.514 40.5775 120.416 38.2542 120.416C35.7877 120.274 34.292 118.498 34.292 116.2Z" fill="black"/>
<path d="M100.95 10.4771H57.9223V87.4788H100.95V10.4771Z" fill="#FF5A00"/>
<path d="M60.7866 48.9781C60.7866 33.3336 68.1701 19.4486 79.5 10.4772C71.1617 3.94678 60.6434 0 49.1703 0C21.9914 0 0 21.9054 0 48.9781C0 76.0508 21.9914 97.9562 49.1703 97.9562C60.6434 97.9562 71.1617 94.0094 79.5 87.479C68.1542 78.6344 60.7866 64.6226 60.7866 48.9781Z" fill="#EB001B"/>
<path d="M159 48.9781C159 76.0508 137.009 97.9562 109.83 97.9562C98.3566 97.9562 87.8383 94.0094 79.5 87.479C90.9731 78.4918 98.2134 64.6226 98.2134 48.9781C98.2134 33.3336 90.8299 19.4486 79.5 10.4772C87.8224 3.94678 98.3407 0 109.814 0C137.009 0 159 22.0481 159 48.9781Z" fill="#F79E1B"/>
</svg>
