<svg width="154" height="42" viewBox="0 0 154 42" fill="none" xmlns="http://www.w3.org/2000/svg">
<g clip-path="url(#clip0)">
<path d="M57.4622 9.01099H49.0047C48.426 9.01099 47.9338 9.4315 47.8435 10.0029L44.4229 31.6925C44.3549 32.1205 44.6863 32.5064 45.1204 32.5064H49.1581C49.7368 32.5064 50.229 32.0858 50.3193 31.5132L51.2418 25.6632C51.3309 25.0905 51.8243 24.67 52.4018 24.67H55.0792C60.6503 24.67 63.8656 21.9738 64.7053 16.6309C65.0837 14.2933 64.7213 12.4567 63.6269 11.1704C62.4249 9.75801 60.2929 9.01099 57.4622 9.01099ZM58.4379 16.9326C57.9754 19.9677 55.6567 19.9677 53.4146 19.9677H52.1384L53.0337 14.2995C53.0869 13.9569 53.3837 13.7046 53.73 13.7046H54.3149C55.8422 13.7046 57.2829 13.7046 58.0273 14.5753C58.4713 15.0948 58.6073 15.8665 58.4379 16.9326Z" fill="#253B80"/>
<path d="M82.7446 16.8348H78.6945C78.3495 16.8348 78.0515 17.0871 77.9983 17.4297L77.819 18.5626L77.5358 18.152C76.659 16.8793 74.7038 16.4539 72.7524 16.4539C68.277 16.4539 64.4545 19.8439 63.71 24.5994C63.323 26.9715 63.8733 29.2398 65.2187 30.8217C66.4529 32.2762 68.2188 32.8822 70.3199 32.8822C73.926 32.8822 75.9257 30.5632 75.9257 30.5632L75.7451 31.6887C75.6771 32.1191 76.0085 32.505 76.4401 32.505H80.0882C80.6682 32.505 81.1579 32.0845 81.2494 31.5118L83.4383 17.6486C83.5076 17.2219 83.1774 16.8348 82.7446 16.8348ZM77.0992 24.7181C76.7085 27.0322 74.872 28.5856 72.5298 28.5856C71.3538 28.5856 70.4139 28.2083 69.8104 27.4935C69.2119 26.7836 68.9843 25.7731 69.1748 24.6476C69.5396 22.3534 71.4069 20.7492 73.7133 20.7492C74.8634 20.7492 75.7983 21.1314 76.4141 21.8525C77.0312 22.5809 77.2761 23.5976 77.0992 24.7181Z" fill="#253B80"/>
<path d="M104.313 16.835H100.243C99.8548 16.835 99.49 17.0279 99.2699 17.3507L93.6567 25.6199L91.2774 17.6735C91.1278 17.1763 90.669 16.835 90.1496 16.835H86.1503C85.6643 16.835 85.3266 17.3099 85.4812 17.7675L89.9641 30.9245L85.7496 36.8747C85.4182 37.3435 85.7521 37.9878 86.3246 37.9878H90.3895C90.7753 37.9878 91.1364 37.7998 91.3553 37.4832L104.892 17.9419C105.216 17.4744 104.883 16.835 104.313 16.835Z" fill="#253B80"/>
<path d="M117.788 9.01099H109.33C108.752 9.01099 108.26 9.4315 108.17 10.0029L104.749 31.6925C104.681 32.1205 105.013 32.5064 105.444 32.5064H109.785C110.188 32.5064 110.533 32.212 110.596 31.8113L111.567 25.6632C111.656 25.0905 112.149 24.67 112.727 24.67H115.403C120.975 24.67 124.189 21.9738 125.03 16.6309C125.41 14.2933 125.045 12.4567 123.951 11.1704C122.75 9.75801 120.619 9.01099 117.788 9.01099ZM118.764 16.9326C118.303 19.9677 115.984 19.9677 113.741 19.9677H112.466L113.362 14.2995C113.416 13.9569 113.71 13.7046 114.057 13.7046H114.642C116.168 13.7046 117.61 13.7046 118.355 14.5753C118.799 15.0948 118.934 15.8665 118.764 16.9326Z" fill="#179BD7"/>
<path d="M143.068 16.8348H139.021C138.673 16.8348 138.378 17.0871 138.326 17.4297L138.147 18.5626L137.862 18.152C136.985 16.8793 135.031 16.4539 133.08 16.4539C128.605 16.4539 124.783 19.8439 124.039 24.5994C123.653 26.9715 124.201 29.2398 125.546 30.8217C126.783 32.2762 128.546 32.8822 130.647 32.8822C134.254 32.8822 136.253 30.5632 136.253 30.5632L136.073 31.6887C136.005 32.1191 136.336 32.505 136.77 32.505H140.417C140.995 32.505 141.487 32.0845 141.577 31.5118L143.767 17.6486C143.834 17.2219 143.502 16.8348 143.068 16.8348ZM137.423 24.7181C137.035 27.0322 135.196 28.5856 132.854 28.5856C131.68 28.5856 130.738 28.2083 130.134 27.4935C129.536 26.7836 129.311 25.7731 129.499 24.6476C129.866 22.3534 131.731 20.7492 134.037 20.7492C135.187 20.7492 136.122 21.1314 136.738 21.8525C137.358 22.5809 137.602 23.5976 137.423 24.7181Z" fill="#179BD7"/>
<path d="M147.841 9.6059L144.37 31.6926C144.302 32.1205 144.634 32.5064 145.065 32.5064H148.555C149.135 32.5064 149.627 32.0859 149.716 31.5132L153.139 9.82481C153.207 9.39688 152.876 9.00977 152.444 9.00977H148.536C148.191 9.011 147.895 9.26331 147.841 9.6059Z" fill="#179BD7"/>
<path d="M9.30037 36.7212L9.94714 32.6125L8.50644 32.5792H1.62695L6.40785 2.26164C6.42269 2.17011 6.47092 2.08477 6.5414 2.02417C6.61189 1.96357 6.70217 1.93018 6.79615 1.93018H18.3959C22.2469 1.93018 24.9044 2.73162 26.292 4.31348C26.9424 5.05555 27.3567 5.83102 27.5571 6.68441C27.7673 7.57985 27.771 8.64967 27.5657 9.95449L27.5509 10.0497V10.8858L28.2013 11.2544C28.7492 11.545 29.1845 11.8777 29.5184 12.2586C30.0749 12.8931 30.4347 13.6995 30.5868 14.6555C30.7439 15.6388 30.692 16.8088 30.4347 18.1334C30.1379 19.6571 29.6581 20.9842 29.0101 22.0701C28.4141 23.0707 27.6547 23.9006 26.7532 24.5437C25.8925 25.1547 24.8698 25.6185 23.7135 25.9153C22.5931 26.2072 21.3157 26.3544 19.9145 26.3544H19.0118C18.3663 26.3544 17.7393 26.5869 17.2471 27.0037C16.7537 27.4291 16.4272 28.0104 16.327 28.6462L16.259 29.016L15.1163 36.2574L15.0644 36.5233C15.0508 36.6074 15.0273 36.6494 14.9927 36.6779C14.9618 36.7039 14.9172 36.7212 14.874 36.7212H9.30037Z" fill="#253B80"/>
<path d="M28.8183 10.1462C28.7836 10.3676 28.7441 10.594 28.6996 10.8265C27.1698 18.6814 21.9363 21.3949 15.2522 21.3949H11.8489C11.0315 21.3949 10.3427 21.9885 10.2153 22.7949L8.47289 33.8469L7.97947 36.9797C7.89661 37.5091 8.30471 37.9865 8.83894 37.9865H14.875C15.5898 37.9865 16.197 37.467 16.3095 36.762L16.3689 36.4553L17.5054 29.2423L17.5784 28.8466C17.6897 28.1391 18.2981 27.6197 19.0129 27.6197H19.9156C25.7637 27.6197 30.3418 25.245 31.6799 18.3734C32.2388 15.5028 31.9495 13.1059 30.4704 11.4201C30.0228 10.9118 29.4675 10.4901 28.8183 10.1462Z" fill="#179BD7"/>
<path d="M27.2185 9.50812C26.9848 9.4401 26.7437 9.37826 26.4963 9.3226C26.2478 9.26818 25.993 9.21995 25.7308 9.1779C24.8133 9.02948 23.8079 8.95898 22.7307 8.95898H13.6389C13.415 8.95898 13.2023 9.00969 13.0119 9.10122C12.5927 9.30281 12.281 9.69982 12.2056 10.1859L10.2715 22.4376L10.2158 22.795C10.3432 21.9886 11.032 21.3949 11.8494 21.3949H15.2527C21.9368 21.3949 27.1703 18.6802 28.7 10.8265C28.7458 10.594 28.7841 10.3677 28.8188 10.1463C28.4317 9.941 28.0125 9.76537 27.5611 9.61572C27.4498 9.57862 27.3348 9.54275 27.2185 9.50812Z" fill="#222D65"/>
<path d="M12.2046 10.1859C12.28 9.69983 12.5916 9.30282 13.0109 9.10246C13.2026 9.01094 13.414 8.96023 13.6379 8.96023H22.7297C23.8068 8.96023 24.8122 9.03073 25.7298 9.17914C25.992 9.22119 26.2467 9.26943 26.4953 9.32385C26.7426 9.3795 26.9838 9.44134 27.2175 9.50937C27.3338 9.544 27.4488 9.57986 27.5613 9.61573C28.0127 9.76538 28.4319 9.94224 28.819 10.1463C29.2741 7.24356 28.8153 5.26716 27.246 3.47752C25.5159 1.50731 22.3933 0.663818 18.3977 0.663818H6.79794C5.98175 0.663818 5.28552 1.25748 5.15938 2.06511L0.327782 32.6943C0.23256 33.3003 0.700014 33.847 1.31092 33.847H8.47237L10.2705 22.4376L12.2046 10.1859Z" fill="#253B80"/>
</g>
<defs>
<clipPath id="clip0">
<rect width="153.345" height="40.8142" fill="white" transform="translate(0.31543 0.663818)"/>
</clipPath>
</defs>
</svg>
