<svg width="263" height="70" viewBox="0 0 263 70" fill="none" xmlns="http://www.w3.org/2000/svg">
<path d="M98.012 14.3162H83.5067C82.5141 14.3162 81.67 15.0374 81.5151 16.0174L75.6485 53.2171C75.5319 53.951 76.1003 54.6128 76.8448 54.6128H83.7697C84.7623 54.6128 85.6065 53.8916 85.7613 52.9095L87.3435 42.8762C87.4963 41.894 88.3425 41.1728 89.333 41.1728H93.9249C103.48 41.1728 108.994 36.5486 110.435 27.385C111.084 23.3759 110.462 20.2259 108.585 18.0198C106.523 15.5974 102.867 14.3162 98.012 14.3162ZM99.6855 27.9025C98.8922 33.108 94.9154 33.108 91.0701 33.108H88.8812L90.4168 23.3865C90.508 22.7989 91.0171 22.3662 91.6109 22.3662H92.6142C95.2335 22.3662 97.7045 22.3662 98.9813 23.8595C99.7427 24.7504 99.976 26.074 99.6855 27.9025Z" fill="#253B80"/>
<path d="M141.371 27.7349H134.425C133.833 27.7349 133.322 28.1676 133.231 28.7552L132.923 30.6982L132.437 29.994C130.934 27.8112 127.58 27.0815 124.234 27.0815C116.558 27.0815 110.002 32.8958 108.725 41.0518C108.061 45.1203 109.005 49.0106 111.313 51.7237C113.429 54.2182 116.458 55.2576 120.062 55.2576C126.246 55.2576 129.676 51.2803 129.676 51.2803L129.366 53.2106C129.25 53.9488 129.818 54.6106 130.558 54.6106H136.815C137.81 54.6106 138.65 53.8894 138.807 52.9073L142.561 29.1306C142.68 28.3988 142.113 27.7349 141.371 27.7349ZM131.689 41.2555C131.018 45.2243 127.869 47.8885 123.852 47.8885C121.835 47.8885 120.223 47.2415 119.188 46.0155C118.161 44.7979 117.771 43.0649 118.098 41.1346C118.723 37.1997 121.926 34.4485 125.882 34.4485C127.854 34.4485 129.457 35.104 130.514 36.3406C131.572 37.59 131.992 39.3337 131.689 41.2555Z" fill="#253B80"/>
<path d="M178.365 27.7349H171.385C170.719 27.7349 170.093 28.0658 169.716 28.6194L160.089 42.8018L156.008 29.173C155.751 28.3203 154.964 27.7349 154.073 27.7349H147.214C146.381 27.7349 145.802 28.5494 146.067 29.3343L153.755 51.8997L146.527 62.1049C145.959 62.9088 146.531 64.0139 147.513 64.0139H154.485C155.147 64.0139 155.766 63.6915 156.141 63.1485L179.358 29.6333C179.913 28.8315 179.343 27.7349 178.365 27.7349Z" fill="#253B80"/>
<path d="M201.475 14.3162H186.967C185.977 14.3162 185.133 15.0374 184.978 16.0174L179.111 53.2171C178.995 53.951 179.563 54.6128 180.303 54.6128H187.748C188.439 54.6128 189.031 54.108 189.139 53.4207L190.804 42.8762C190.957 41.894 191.803 41.1728 192.794 41.1728H197.384C206.941 41.1728 212.453 36.5486 213.895 27.385C214.546 23.3759 213.921 20.2259 212.044 18.0198C209.984 15.5974 206.33 14.3162 201.475 14.3162ZM203.148 27.9025C202.357 33.108 198.38 33.108 194.533 33.108H192.346L193.884 23.3865C193.975 22.7989 194.48 22.3662 195.076 22.3662H196.079C198.696 22.3662 201.169 22.3662 202.446 23.8595C203.208 24.7504 203.439 26.074 203.148 27.9025Z" fill="#179BD7"/>
<path d="M244.832 27.7349H237.89C237.294 27.7349 236.787 28.1676 236.698 28.7552L236.39 30.6982L235.903 29.994C234.399 27.8112 231.048 27.0815 227.701 27.0815C220.025 27.0815 213.471 32.8958 212.194 41.0518C211.533 45.1203 212.472 49.0106 214.78 51.7237C216.901 54.2182 219.925 55.2576 223.529 55.2576C229.714 55.2576 233.143 51.2803 233.143 51.2803L232.833 53.2106C232.717 53.9488 233.285 54.6106 234.03 54.6106H240.284C241.275 54.6106 242.119 53.8894 242.274 52.9073L246.03 29.1306C246.145 28.3988 245.576 27.7349 244.832 27.7349ZM235.15 41.2555C234.484 45.2243 231.33 47.8885 227.313 47.8885C225.3 47.8885 223.684 47.2415 222.649 46.0155C221.622 44.7979 221.236 43.0649 221.558 41.1346C222.188 37.1997 225.387 34.4485 229.342 34.4485C231.315 34.4485 232.918 35.104 233.975 36.3406C235.037 37.59 235.457 39.3337 235.15 41.2555Z" fill="#179BD7"/>
<path d="M253.021 15.3364L247.067 53.217C246.951 53.9509 247.519 54.6128 248.259 54.6128H254.245C255.239 54.6128 256.084 53.8915 256.236 52.9094L262.107 15.7118C262.224 14.9779 261.655 14.314 260.915 14.314H254.213C253.621 14.3161 253.112 14.7488 253.021 15.3364Z" fill="#179BD7"/>
<path d="M15.4109 61.8418L16.5202 54.7951L14.0492 54.7379H2.25031L10.45 2.7406C10.4754 2.58363 10.5581 2.43727 10.679 2.33333C10.7999 2.22939 10.9548 2.17212 11.116 2.17212H31.0106C37.6153 2.17212 42.1733 3.54666 44.553 6.25969C45.6686 7.53242 46.3792 8.86242 46.7228 10.3261C47.0833 11.8618 47.0897 13.6967 46.7376 15.9345L46.7122 16.0979V17.5318L47.8278 18.1639C48.7674 18.6624 49.514 19.233 50.0866 19.8864C51.041 20.9745 51.6582 22.3576 51.9191 23.9973C52.1885 25.6836 52.0994 27.6903 51.6583 29.9621C51.1492 32.5755 50.3263 34.8515 49.2149 36.7139C48.1926 38.43 46.8903 39.8533 45.3441 40.9564C43.8679 42.0042 42.1139 42.7997 40.1308 43.3088C38.2092 43.8094 36.0182 44.0618 33.6152 44.0618H32.0669C30.9597 44.0618 29.8844 44.4606 29.0403 45.1755C28.194 45.9051 27.634 46.9021 27.4622 47.9924L27.3456 48.6267L25.3858 61.0464L25.2967 61.5024C25.2734 61.6467 25.2331 61.7188 25.1737 61.7676C25.1207 61.8121 25.0443 61.8418 24.9701 61.8418H15.4109Z" fill="#253B80"/>
<path d="M48.8841 16.2634C48.8247 16.6431 48.7569 17.0313 48.6805 17.4301C46.0569 30.9019 37.0809 35.5559 25.6171 35.5559H19.7802C18.3782 35.5559 17.1969 36.574 16.9784 37.9571L13.99 56.9122L13.1437 62.2853C13.0016 63.1931 13.7015 64.0119 14.6178 64.0119H24.9702C26.1961 64.0119 27.2375 63.121 27.4305 61.9119L27.5323 61.3859L29.4815 49.0149L29.6066 48.3362C29.7975 47.1228 30.841 46.2319 32.067 46.2319H33.6153C43.6453 46.2319 51.4971 42.1592 53.792 30.3737C54.7507 25.4504 54.2544 21.3395 51.7177 18.4483C50.9499 17.5765 49.9976 16.8531 48.8841 16.2634Z" fill="#179BD7"/>
<path d="M46.1395 15.1689C45.7387 15.0522 45.3251 14.9461 44.9009 14.8507C44.4746 14.7574 44.0376 14.6746 43.588 14.6025C42.0142 14.348 40.2899 14.2271 38.4425 14.2271H22.8492C22.4653 14.2271 22.1005 14.314 21.7738 14.471C21.0548 14.8167 20.5203 15.4977 20.391 16.3313L17.0738 37.344L16.9783 37.957C17.1968 36.574 18.3782 35.5558 19.7801 35.5558H25.617C37.0809 35.5558 46.0568 30.8998 48.6804 17.4301C48.7589 17.0313 48.8247 16.6431 48.8841 16.2634C48.2202 15.9113 47.5012 15.6101 46.727 15.3534C46.5361 15.2898 46.3389 15.2283 46.1395 15.1689Z" fill="#222D65"/>
<path d="M20.391 16.3312C20.5203 15.4976 21.0548 14.8167 21.7738 14.473C22.1026 14.3161 22.4653 14.2291 22.8492 14.2291H38.4425C40.2899 14.2291 42.0142 14.35 43.588 14.6045C44.0376 14.6767 44.4745 14.7594 44.9009 14.8527C45.3251 14.9482 45.7386 15.0542 46.1395 15.1709C46.3389 15.2303 46.5361 15.2918 46.7291 15.3533C47.5033 15.61 48.2223 15.9133 48.8862 16.2633C49.6667 11.2848 48.8798 7.89515 46.1883 4.82576C43.2211 1.44667 37.8656 0 31.0128 0H11.1181C9.71825 0 8.52415 1.01818 8.30781 2.40333L0.021186 54.9352C-0.142129 55.9745 0.659597 56.9121 1.70736 56.9121H13.9899L17.0738 37.3439L20.391 16.3312Z" fill="#253B80"/>
</svg>
