<svg width="96" height="26" viewBox="0 0 96 26" fill="none" xmlns="http://www.w3.org/2000/svg">
<g clip-path="url(#clip0)">
<path d="M35.6461 5.84033H30.4116C30.0534 5.84033 29.7488 6.1006 29.6929 6.45425L27.5758 19.8785C27.5337 20.1434 27.7388 20.3822 28.0075 20.3822H30.5065C30.8647 20.3822 31.1693 20.1219 31.2252 19.7675L31.7962 16.1468C31.8513 15.7924 32.1567 15.5321 32.5141 15.5321H34.1712C37.6193 15.5321 39.6093 13.8633 40.129 10.5565C40.3632 9.1097 40.139 7.97296 39.4616 7.17686C38.7176 6.30268 37.3981 5.84033 35.6461 5.84033ZM36.25 10.7432C35.9638 12.6217 34.5286 12.6217 33.141 12.6217H32.3511L32.9052 9.11353C32.9382 8.90149 33.1218 8.74533 33.3362 8.74533H33.6982C34.6434 8.74533 35.5351 8.74533 35.9959 9.28423C36.2707 9.60573 36.3549 10.0834 36.25 10.7432Z" fill="#253B80"/>
<path d="M51.2954 10.6825H48.7887C48.5752 10.6825 48.3907 10.8387 48.3578 11.0507L48.2468 11.7519L48.0715 11.4978C47.5289 10.7101 46.3188 10.4468 45.111 10.4468C42.341 10.4468 39.9752 12.545 39.5144 15.4882C39.2749 16.9564 39.6155 18.3603 40.4482 19.3394C41.2121 20.2396 42.3051 20.6147 43.6055 20.6147C45.8373 20.6147 47.075 19.1794 47.075 19.1794L46.9632 19.876C46.9211 20.1424 47.1263 20.3812 47.3934 20.3812H49.6513C50.0103 20.3812 50.3134 20.1209 50.37 19.7665L51.7248 11.1862C51.7676 10.9221 51.5633 10.6825 51.2954 10.6825ZM47.8013 15.5617C47.5595 16.9939 46.4229 17.9554 44.9732 17.9554C44.2453 17.9554 43.6636 17.7219 43.2901 17.2795C42.9197 16.8401 42.7788 16.2147 42.8967 15.5181C43.1225 14.0981 44.2782 13.1053 45.7057 13.1053C46.4175 13.1053 46.9962 13.3418 47.3773 13.7881C47.7593 14.239 47.9108 14.8682 47.8013 15.5617Z" fill="#253B80"/>
<path d="M64.6417 10.6826H62.1228C61.8825 10.6826 61.6567 10.802 61.5205 11.0018L58.0463 16.1198L56.5737 11.2016C56.4811 10.8939 56.1972 10.6826 55.8757 10.6826H53.4004C53.0996 10.6826 52.8907 10.9766 52.9863 11.2598L55.7609 19.403L53.1524 23.0857C52.9473 23.3758 53.154 23.7746 53.5083 23.7746H56.0242C56.263 23.7746 56.4865 23.6583 56.6219 23.4623L64.9999 11.3677C65.2005 11.0784 64.9946 10.6826 64.6417 10.6826Z" fill="#253B80"/>
<path d="M72.984 5.84033H67.7487C67.3913 5.84033 67.0867 6.1006 67.0308 6.45425L64.9137 19.8785C64.8716 20.1434 65.0767 20.3822 65.3439 20.3822H68.0304C68.2799 20.3822 68.4934 20.2 68.5325 19.952L69.1333 16.1468C69.1884 15.7924 69.4938 15.5321 69.8513 15.5321H71.5076C74.9564 15.5321 76.9457 13.8633 77.4662 10.5565C77.7011 9.1097 77.4753 7.97296 76.798 7.17686C76.0548 6.30268 74.736 5.84033 72.984 5.84033ZM73.5879 10.7432C73.3024 12.6217 71.8673 12.6217 70.4789 12.6217H69.6898L70.2447 9.11353C70.2776 8.90149 70.4597 8.74533 70.6748 8.74533H71.0368C71.9813 8.74533 72.8738 8.74533 73.3346 9.28423C73.6093 9.60573 73.6928 10.0834 73.5879 10.7432Z" fill="#179BD7"/>
<path d="M88.63 10.6825H86.1249C85.9098 10.6825 85.7269 10.8387 85.6947 11.0507L85.5837 11.7519L85.4077 11.4978C84.865 10.7101 83.6557 10.4468 82.4479 10.4468C79.678 10.4468 77.3129 12.545 76.8521 15.4882C76.6133 16.9564 76.9524 18.3603 77.7851 19.3394C78.5505 20.2396 79.642 20.6147 80.9424 20.6147C83.1743 20.6147 84.4119 19.1794 84.4119 19.1794L84.3002 19.876C84.2581 20.1424 84.4632 20.3812 84.7318 20.3812H86.989C87.3464 20.3812 87.651 20.1209 87.7069 19.7665L89.0624 11.1862C89.1038 10.9221 88.8986 10.6825 88.63 10.6825ZM85.136 15.5617C84.8956 16.9939 83.7575 17.9554 82.3078 17.9554C81.5815 17.9554 80.9983 17.7219 80.6247 17.2795C80.2543 16.8401 80.115 16.2147 80.2313 15.5181C80.4586 14.0981 81.6129 13.1053 83.0403 13.1053C83.7521 13.1053 84.3308 13.3418 84.7119 13.7881C85.0954 14.239 85.247 14.8682 85.136 15.5617Z" fill="#179BD7"/>
<path d="M91.5856 6.20832L89.4371 19.8783C89.395 20.1431 89.6002 20.382 89.8673 20.382H92.0272C92.3862 20.382 92.6908 20.1217 92.7459 19.7673L94.8645 6.34381C94.9066 6.07895 94.7015 5.83936 94.4344 5.83936H92.0157C91.8022 5.84012 91.6185 5.99628 91.5856 6.20832Z" fill="#179BD7"/>
<path d="M5.83911 22.9905L6.23941 20.4476L5.34773 20.4269H1.08984L4.04885 1.66267C4.05804 1.60602 4.08789 1.5532 4.13152 1.5157C4.17514 1.47819 4.23102 1.45752 4.28919 1.45752H11.4686C13.852 1.45752 15.4968 1.95355 16.3556 2.9326C16.7582 3.39189 17.0146 3.87185 17.1386 4.40003C17.2687 4.95424 17.271 5.61638 17.144 6.42396L17.1348 6.4829V7.00037L17.5374 7.22848C17.8764 7.40837 18.1459 7.61428 18.3525 7.85005C18.6969 8.24274 18.9197 8.74184 19.0138 9.33356C19.111 9.94211 19.0789 10.6663 18.9197 11.4861C18.736 12.4292 18.439 13.2505 18.0379 13.9226C17.669 14.5419 17.1991 15.0555 16.6411 15.4536C16.1084 15.8317 15.4754 16.1188 14.7598 16.3025C14.0663 16.4832 13.2757 16.5742 12.4085 16.5742H11.8497C11.4502 16.5742 11.0622 16.7182 10.7575 16.9761C10.4521 17.2394 10.2501 17.5992 10.1881 17.9927L10.146 18.2216L9.43875 22.7035L9.40661 22.868C9.39819 22.9201 9.38365 22.9461 9.36221 22.9637C9.34308 22.9798 9.31552 22.9905 9.28874 22.9905H5.83911Z" fill="#253B80"/>
<path d="M17.9199 6.54297C17.8985 6.67999 17.874 6.82007 17.8464 6.96398C16.8996 11.8256 13.6605 13.505 9.52354 13.505H7.41717C6.91125 13.505 6.48492 13.8725 6.40609 14.3715L5.32765 21.2119L5.02226 23.1509C4.97098 23.4785 5.22356 23.774 5.55421 23.774H9.29009C9.73249 23.774 10.1083 23.4525 10.1779 23.0161L10.2147 22.8263L10.9181 18.362L10.9632 18.117C11.0321 17.6792 11.4087 17.3577 11.8511 17.3577H12.4098C16.0294 17.3577 18.8629 15.888 19.691 11.635C20.037 9.85827 19.8579 8.37477 18.9425 7.33141C18.6654 7.0168 18.3217 6.75577 17.9199 6.54297Z" fill="#179BD7"/>
<path d="M16.9296 6.14774C16.785 6.10563 16.6357 6.06736 16.4827 6.03291C16.3288 5.99923 16.1711 5.96938 16.0089 5.94335C15.441 5.85149 14.8187 5.80786 14.152 5.80786H8.52486C8.38632 5.80786 8.25467 5.83925 8.1368 5.89589C7.87734 6.02067 7.68446 6.26638 7.63777 6.56722L6.44069 14.1501L6.40625 14.3713C6.48509 13.8722 6.91141 13.5048 7.41733 13.5048H9.5237C13.6606 13.5048 16.8998 11.8245 17.8466 6.96374C17.8749 6.81983 17.8986 6.67974 17.9201 6.54272C17.6805 6.41565 17.421 6.30696 17.1417 6.21433C17.0728 6.19137 17.0016 6.16917 16.9296 6.14774Z" fill="#222D65"/>
<path d="M7.63778 6.56727C7.68447 6.26643 7.87735 6.02072 8.13681 5.89671C8.25545 5.84006 8.38633 5.80868 8.52487 5.80868H14.152C14.8187 5.80868 15.441 5.85231 16.0089 5.94417C16.1711 5.97019 16.3288 6.00005 16.4827 6.03373C16.6357 6.06818 16.785 6.10645 16.9296 6.14855C17.0016 6.16998 17.0728 6.19218 17.1424 6.21438C17.4218 6.30701 17.6813 6.41647 17.9208 6.54277C18.2025 4.74619 17.9185 3.52295 16.9473 2.4153C15.8765 1.19589 13.9439 0.673828 11.4709 0.673828H4.29148C3.78632 0.673828 3.3554 1.04126 3.27733 1.54112L0.286942 20.4983C0.228007 20.8734 0.517326 21.2117 0.89543 21.2117H5.32782L6.4407 14.1501L7.63778 6.56727Z" fill="#253B80"/>
</g>
<defs>
<clipPath id="clip0">
<rect width="94.9087" height="25.2609" fill="white" transform="translate(0.279297 0.673828)"/>
</clipPath>
</defs>
</svg>
