<svg width="83" height="29" viewBox="0 0 83 29" fill="none" xmlns="http://www.w3.org/2000/svg">
<g clip-path="url(#clip0)">
<path fill-rule="evenodd" clip-rule="evenodd" d="M58.9133 7.5333C60.7685 7.5333 62.2723 6.03027 62.2723 4.17685C62.2723 2.32234 60.7685 0.817871 58.9133 0.817871C57.0602 0.817871 55.5572 2.32234 55.5572 4.17685C55.5572 6.03027 57.0602 7.5333 58.9133 7.5333ZM33.188 9.34595C33.0364 9.72666 31.9455 12.8081 29.3072 16.0018V2.34615L22.2774 3.7355V28.4879H29.3072V20.8368C31.3432 23.8904 32.3486 28.4879 32.3486 28.4879H40.7688C39.9359 25.0254 36.2925 18.6409 36.2925 18.6409C39.5624 14.4952 40.9986 10.0778 41.2271 9.34595H33.188ZM51.6688 9.08756C45.3724 9.28965 42.1762 12.1145 42.1762 17.73V28.4879H49.0453V19.7152C49.0453 16.3526 49.4856 14.9113 53.4757 14.7738V9.18608C52.8041 9.04354 51.6688 9.08756 51.6688 9.08756ZM10.4878 12.0716C9.62679 12.0149 7.63334 11.8861 7.63334 10.0915C7.63334 7.92592 10.5033 7.92592 11.5798 7.92592C13.4726 7.92592 15.924 8.48527 17.6745 9.00889C17.6745 9.00889 18.6511 9.35316 19.4821 9.70573L19.5594 9.72666V3.79577L19.4533 3.76437C17.3873 3.04155 14.985 2.34615 10.5311 2.34615C2.85182 2.34615 0.130859 6.81986 0.130859 10.6523C0.130859 12.8615 1.07778 18.061 9.87254 18.6607C10.6181 18.7065 12.5967 18.8206 12.5967 20.6751C12.5967 22.2063 10.9768 23.1092 8.25223 23.1092C5.2664 23.1092 2.37006 22.3477 0.610816 21.6256V27.7341C3.24444 28.4244 6.21332 28.7694 9.69282 28.7694C17.2014 28.7694 20.5644 24.5368 20.5644 20.3416C20.5644 15.585 16.8012 12.4945 10.4878 12.0716ZM55.5081 28.4879H62.3217V9.3676H55.5081V28.4879ZM75.1513 3.56517V28.4879H81.966V2.34615L75.1513 3.56517ZM65.2079 3.56517L72.0161 2.34615V28.4879H65.2079V3.56517Z" fill="url(#paint0_linear)"/>
</g>
<defs>
<linearGradient id="paint0_linear" x1="22.2623" y1="0.817871" x2="28.4115" y2="35.2945" gradientUnits="userSpaceOnUse">
<stop stop-color="#6B195F"/>
<stop offset="1" stop-color="#4C255B"/>
</linearGradient>
<clipPath id="clip0">
<rect width="81.9174" height="28.1478" fill="white" transform="translate(0.130859 0.621826)"/>
</clipPath>
</defs>
</svg>
