<svg width="133" height="46" viewBox="0 0 133 46" fill="none" xmlns="http://www.w3.org/2000/svg">
<g clip-path="url(#clip0)">
<path fill-rule="evenodd" clip-rule="evenodd" d="M95.2271 11.5645C98.2247 11.5645 100.654 9.13607 100.654 6.14148C100.654 3.14513 98.2247 0.714355 95.2271 0.714355C92.2331 0.714355 89.8047 3.14513 89.8047 6.14148C89.8047 9.13607 92.2331 11.5645 95.2271 11.5645ZM53.6626 14.4932C53.4177 15.1084 51.6551 20.0871 47.3923 25.2472V3.18361L36.0343 5.42839V45.4211H47.3923V33.059C50.682 37.9929 52.3064 45.4211 52.3064 45.4211H65.9109C64.5652 39.8266 58.6786 29.5111 58.6786 29.5111C63.9617 22.8129 66.2823 15.6757 66.6514 14.4932H53.6626ZM83.5222 14.0758C73.349 14.4023 68.1848 18.9665 68.1848 28.0395V45.4211H79.2834V31.2469C79.2834 25.8139 79.9947 23.4852 86.4416 23.263V14.2349C85.3565 14.0046 83.5222 14.0758 83.5222 14.0758ZM16.9858 18.8971C15.5946 18.8055 12.3738 18.5974 12.3738 15.6978C12.3738 12.1989 17.0108 12.1989 18.7501 12.1989C21.8083 12.1989 25.769 13.1026 28.5974 13.9486C28.5974 13.9486 30.1752 14.5049 31.518 15.0745L31.6427 15.1084V5.52576L31.4713 5.47504C28.1333 4.30717 24.2519 3.18361 17.0557 3.18361C4.64822 3.18361 0.251953 10.4118 0.251953 16.6039C0.251953 20.1734 1.7819 28.5741 15.9917 29.5432C17.1963 29.6172 20.3932 29.8015 20.3932 32.7978C20.3932 35.2717 17.7758 36.7305 13.3737 36.7305C8.54948 36.7305 3.86984 35.5003 1.02742 34.3336V44.203C5.28259 45.3184 10.0794 45.8758 15.7013 45.8758C27.833 45.8758 33.2665 39.0371 33.2665 32.2591C33.2665 24.5737 27.1864 19.5804 16.9858 18.8971ZM89.7254 45.4211H100.734V14.5282H89.7254V45.4211ZM121.463 5.15319V45.4211H132.474V3.18361L121.463 5.15319ZM105.397 5.15319L116.397 3.18361V45.4211H105.397V5.15319Z" fill="url(#paint0_linear)"/>
</g>
<defs>
<linearGradient id="paint0_linear" x1="36.0099" y1="0.714356" x2="45.9452" y2="56.4185" gradientUnits="userSpaceOnUse">
<stop stop-color="#6B195F"/>
<stop offset="1" stop-color="#4C255B"/>
</linearGradient>
<clipPath id="clip0">
<rect width="132.355" height="45.4787" fill="white" transform="translate(0.251953 0.397217)"/>
</clipPath>
</defs>
</svg>
