<svg width="227" height="78" viewBox="0 0 227 78" fill="none" xmlns="http://www.w3.org/2000/svg">
<g clip-path="url(#clip0)">
<path fill-rule="evenodd" clip-rule="evenodd" d="M162.891 19.1529C168.032 19.1529 172.199 14.9879 172.199 9.85195C172.199 4.71295 168.032 0.543945 162.891 0.543945C157.756 0.543945 153.591 4.71295 153.591 9.85195C153.591 14.9879 157.756 19.1529 162.891 19.1529ZM91.604 24.1759C91.184 25.2309 88.161 33.7699 80.85 42.6199V4.77894L61.37 8.62895V77.2199H80.85V56.0179C86.492 64.4799 89.278 77.2199 89.278 77.2199H112.611C110.303 67.6249 100.207 49.9329 100.207 49.9329C109.268 38.4449 113.248 26.2039 113.881 24.1759H91.604ZM142.816 23.4599C125.368 24.0199 116.511 31.8479 116.511 47.4089V77.2199H135.546V52.9099C135.546 43.5919 136.766 39.5979 147.823 39.2169V23.7329C145.962 23.3379 142.816 23.4599 142.816 23.4599ZM28.7 31.7289C26.314 31.5719 20.79 31.2149 20.79 26.2419C20.79 20.2409 28.743 20.2409 31.726 20.2409C36.971 20.2409 43.764 21.7909 48.615 23.2419C48.615 23.2419 51.321 24.1959 53.624 25.1729L53.838 25.2309V8.79595L53.544 8.70895C47.819 6.70595 41.162 4.77894 28.82 4.77894C7.54 4.77894 0 17.1759 0 27.7959C0 33.9179 2.624 48.3259 26.995 49.9879C29.061 50.1149 34.544 50.4309 34.544 55.5699C34.544 59.8129 30.055 62.3149 22.505 62.3149C14.231 62.3149 6.205 60.2049 1.33 58.2039V75.1309C8.628 77.0439 16.855 77.9999 26.497 77.9999C47.304 77.9999 56.623 66.271 56.623 54.6459C56.623 41.4649 46.195 32.9009 28.7 31.7289ZM153.455 77.2199H172.336V24.2359H153.455V77.2199ZM207.888 8.15694V77.2199H226.772V4.77894L207.888 8.15694ZM180.334 8.15694L199.2 4.77894V77.2199H180.334V8.15694Z" fill="url(#paint0_linear)"/>
</g>
<defs>
<linearGradient id="paint0_linear" x1="61.3281" y1="0.543946" x2="78.3681" y2="96.0816" gradientUnits="userSpaceOnUse">
<stop stop-color="#6B195F"/>
<stop offset="1" stop-color="#4C255B"/>
</linearGradient>
<clipPath id="clip0">
<rect width="227" height="78" fill="white"/>
</clipPath>
</defs>
</svg>
