<svg width="468" height="270" viewBox="0 0 468 270" fill="none" xmlns="http://www.w3.org/2000/svg">
<rect width="1920" height="3266" transform="translate(-1110 -1700)" fill="white"/>
<rect x="-1110" y="-50" width="1920" height="410" fill="#F3F7FE"/>
<path d="M309.741 1.00004L3 182.363L12.225 197.897L318.966 16.5339L309.741 1.00004Z" fill="#DDE6F7"/>
<path d="M376.41 16.2052L69.6693 197.568L78.8943 213.102L385.635 31.739L376.41 16.2052Z" fill="#DDE6F7"/>
<path d="M435.46 32.8359L128.719 214.199L137.944 229.733L444.685 48.3697L435.46 32.8359Z" fill="#DDE6F7"/>
<path d="M202.796 213.601C255.836 213.601 298.833 170.699 298.833 117.775C298.833 64.8523 255.836 21.9496 202.796 21.9496C149.757 21.9496 106.76 64.8523 106.76 117.775C106.76 170.699 149.757 213.601 202.796 213.601Z" fill="white"/>
<path d="M106.045 117.776C106.045 64.544 149.448 21.2369 202.796 21.2369C256.145 21.2369 299.548 64.544 299.548 117.776C299.548 171.007 256.145 214.314 202.796 214.314C149.448 214.314 106.045 171.007 106.045 117.776ZM107.474 117.776C107.474 170.221 150.235 212.889 202.796 212.889C255.358 212.889 298.119 170.221 298.119 117.776C298.119 65.3301 255.357 22.6624 202.796 22.6624C150.235 22.6624 107.474 65.3301 107.474 117.776H107.474Z" fill="#3F3D56"/>
<path d="M185.677 118.192C185.677 114.814 186.681 111.511 188.562 108.702C190.443 105.893 193.117 103.703 196.245 102.41C199.373 101.118 202.815 100.779 206.136 101.438C209.457 102.097 212.508 103.724 214.902 106.113C217.296 108.502 218.927 111.546 219.587 114.86C220.248 118.173 219.909 121.608 218.613 124.729C217.317 127.85 215.123 130.518 212.308 132.395C209.492 134.272 206.182 135.274 202.796 135.274C198.256 135.274 193.902 133.474 190.691 130.271C187.48 127.067 185.677 122.723 185.677 118.192V118.192ZM202.796 101.943C198.479 101.948 194.34 103.662 191.287 106.708C188.234 109.754 186.517 113.884 186.512 118.192V118.192C186.512 121.406 187.467 124.547 189.256 127.22C191.046 129.892 193.589 131.974 196.565 133.204C199.54 134.434 202.814 134.756 205.973 134.129C209.132 133.502 212.034 131.954 214.311 129.682C216.589 127.409 218.14 124.514 218.768 121.362C219.396 118.21 219.074 114.943 217.841 111.974C216.609 109.005 214.522 106.467 211.844 104.682C209.166 102.896 206.017 101.943 202.796 101.943V101.943Z" fill="#3F3D56"/>
<path d="M170.227 118.192C170.227 111.765 172.137 105.482 175.716 100.137C179.295 94.7932 184.382 90.628 190.333 88.1683C196.284 85.7087 202.832 85.0651 209.15 86.319C215.468 87.573 221.271 90.668 225.826 95.2129C230.381 99.7578 233.483 105.548 234.74 111.852C235.996 118.156 235.351 124.69 232.886 130.628C230.421 136.566 226.247 141.642 220.891 145.213C215.535 148.784 209.238 150.69 202.796 150.69C198.519 150.69 194.284 149.849 190.333 148.216C186.381 146.583 182.791 144.189 179.767 141.171C176.742 138.154 174.343 134.571 172.706 130.628C171.07 126.686 170.227 122.46 170.227 118.192V118.192ZM202.796 86.5278C196.52 86.5278 190.385 88.3849 185.166 91.8642C179.947 95.3435 175.88 100.289 173.478 106.075C171.076 111.861 170.448 118.227 171.672 124.369C172.897 130.512 175.919 136.154 180.357 140.582C184.795 145.01 190.45 148.026 196.605 149.248C202.761 150.47 209.142 149.843 214.94 147.446C220.739 145.049 225.695 140.991 229.182 135.784C232.669 130.577 234.53 124.455 234.53 118.192C234.521 109.797 231.174 101.749 225.225 95.8125C219.276 89.8764 211.21 86.5373 202.796 86.5278Z" fill="#CCCCCC"/>
<path d="M139.328 118.192C139.328 105.667 143.051 93.423 150.025 83.0087C156.999 72.5944 166.911 64.4774 178.508 59.6843C190.106 54.8911 202.867 53.637 215.178 56.0805C227.49 58.5241 238.799 64.5555 247.675 73.4121C256.551 82.2688 262.596 93.5528 265.045 105.837C267.494 118.122 266.237 130.855 261.433 142.427C256.629 153.999 248.495 163.889 238.057 170.848C227.62 177.806 215.349 181.521 202.796 181.521C185.97 181.502 169.837 174.823 157.939 162.951C146.04 151.079 139.347 134.982 139.328 118.192V118.192ZM202.796 55.697C190.409 55.697 178.299 59.3622 167.999 66.2293C157.7 73.0964 149.672 82.8568 144.931 94.2763C140.191 105.696 138.95 118.261 141.367 130.384C143.784 142.507 149.749 153.643 158.508 162.383C167.268 171.123 178.428 177.075 190.577 179.486C202.727 181.898 215.32 180.66 226.765 175.93C238.21 171.2 247.992 163.19 254.874 152.913C261.756 142.635 265.429 130.553 265.429 118.192C265.41 101.623 258.806 85.7381 247.064 74.0221C235.322 62.306 219.402 55.7157 202.796 55.697V55.697Z" fill="#CCCCCC"/>
<path d="M202.797 125.691C207.178 125.691 210.73 122.147 210.73 117.775C210.73 113.404 207.178 109.859 202.797 109.859C198.415 109.859 194.863 113.404 194.863 117.775C194.863 122.147 198.415 125.691 202.797 125.691Z" fill="#479AFF"/>
<path d="M182.336 148.607C186.718 148.607 190.27 145.062 190.27 140.69C190.27 136.319 186.718 132.774 182.336 132.774C177.955 132.774 174.403 136.319 174.403 140.69C174.403 145.062 177.955 148.607 182.336 148.607Z" fill="#479AFF"/>
<path d="M262.158 145.273C266.539 145.273 270.091 141.729 270.091 137.357C270.091 132.985 266.539 129.441 262.158 129.441C257.776 129.441 254.224 132.985 254.224 137.357C254.224 141.729 257.776 145.273 262.158 145.273Z" fill="#479AFF"/>
<path d="M202.797 121.525C204.872 121.525 206.555 119.846 206.555 117.776C206.555 115.705 204.872 114.026 202.797 114.026C200.721 114.026 199.039 115.705 199.039 117.776C199.039 119.846 200.721 121.525 202.797 121.525Z" fill="#2F2E41"/>
<path d="M262.158 141.107C264.233 141.107 265.916 139.428 265.916 137.357C265.916 135.286 264.233 133.608 262.158 133.608C260.082 133.608 258.4 135.286 258.4 137.357C258.4 139.428 260.082 141.107 262.158 141.107Z" fill="#2F2E41"/>
<path d="M182.336 144.857C184.412 144.857 186.094 143.178 186.094 141.107C186.094 139.036 184.412 137.357 182.336 137.357C180.261 137.357 178.578 139.036 178.578 141.107C178.578 143.178 180.261 144.857 182.336 144.857Z" fill="#2F2E41"/>
<path d="M27.4246 79.4451C29.5001 79.4451 31.1825 77.7663 31.1825 75.6954C31.1825 73.6245 29.5001 71.9457 27.4246 71.9457C25.3491 71.9457 23.6666 73.6245 23.6666 75.6954C23.6666 77.7663 25.3491 79.4451 27.4246 79.4451Z" fill="#479AFF"/>
<path d="M202.588 75.9041H37.6543V75.0708H203.423V117.984H202.588V75.9041Z" fill="#2F2E41"/>
<path d="M16.5682 75.6954C16.5682 73.553 17.2049 71.4586 18.3979 69.6772C19.5908 67.8958 21.2863 66.5074 23.27 65.6875C25.2538 64.8676 27.4366 64.6531 29.5426 65.0711C31.6485 65.489 33.5829 66.5207 35.1012 68.0357C36.6195 69.5506 37.6535 71.4808 38.0723 73.5821C38.4912 75.6834 38.2763 77.8614 37.4546 79.8408C36.6329 81.8202 35.2414 83.512 33.4561 84.7023C31.6708 85.8926 29.5718 86.5279 27.4246 86.5279C25.9989 86.5279 24.5872 86.2477 23.2701 85.7034C21.9529 85.159 20.7561 84.3611 19.748 83.3552C18.7399 82.3493 17.9402 81.1551 17.3946 79.8409C16.849 78.5266 16.5682 77.118 16.5682 75.6954V75.6954ZM27.4246 65.6962C25.4426 65.6962 23.5051 66.2827 21.8571 67.3814C20.2091 68.4801 18.9247 70.0418 18.1662 71.8689C17.4077 73.696 17.2092 75.7065 17.5959 77.6462C17.9826 79.5858 18.937 81.3675 20.3385 82.766C21.74 84.1644 23.5256 85.1167 25.4695 85.5025C27.4135 85.8883 29.4284 85.6903 31.2596 84.9335C33.0907 84.1767 34.6558 82.8951 35.757 81.2507C36.8581 79.6063 37.4458 77.6731 37.4458 75.6954C37.4428 73.0444 36.386 70.5028 34.5073 68.6283C32.6286 66.7537 30.0815 65.6993 27.4246 65.6962V65.6962Z" fill="#2F2E41"/>
<path d="M52.4777 187.353C54.5532 187.353 56.2357 185.675 56.2357 183.604C56.2357 181.533 54.5532 179.854 52.4777 179.854C50.4022 179.854 48.7197 181.533 48.7197 183.604C48.7197 185.675 50.4022 187.353 52.4777 187.353Z" fill="#479AFF"/>
<path d="M41.6213 183.604C41.6213 181.461 42.258 179.367 43.451 177.586C44.6439 175.804 46.3394 174.416 48.3231 173.596C50.3069 172.776 52.4897 172.561 54.5957 172.979C56.7016 173.397 58.636 174.429 60.1543 175.944C61.6726 177.459 62.7065 179.389 63.1254 181.49C63.5443 183.592 63.3293 185.77 62.5076 187.749C61.686 189.729 60.2945 191.42 58.5092 192.611C56.7238 193.801 54.6249 194.436 52.4777 194.436C49.5984 194.436 46.8371 193.295 44.8011 191.263C42.7651 189.232 41.6213 186.477 41.6213 183.604V183.604ZM52.4777 173.605C50.4957 173.605 48.5582 174.191 46.9102 175.29C45.2622 176.388 43.9777 177.95 43.2193 179.777C42.4608 181.604 42.2623 183.615 42.649 185.554C43.0356 187.494 43.9901 189.276 45.3916 190.674C46.7931 192.073 48.5787 193.025 50.5226 193.411C52.4665 193.797 54.4815 193.599 56.3126 192.842C58.1438 192.085 59.7089 190.803 60.81 189.159C61.9112 187.515 62.4989 185.581 62.4989 183.604C62.4959 180.953 61.4391 178.411 59.5604 176.537C57.6817 174.662 55.1345 173.608 52.4777 173.605Z" fill="#2F2E41"/>
<path d="M378.654 96.9438C380.73 96.9438 382.412 95.265 382.412 93.194C382.412 91.1231 380.73 89.4443 378.654 89.4443C376.579 89.4443 374.896 91.1231 374.896 93.194C374.896 95.265 376.579 96.9438 378.654 96.9438Z" fill="#479AFF"/>
<path d="M367.798 93.1941C367.798 91.0516 368.435 88.9572 369.628 87.1759C370.821 85.3945 372.516 84.006 374.5 83.1862C376.484 82.3663 378.667 82.1517 380.773 82.5697C382.879 82.9877 384.813 84.0194 386.331 85.5343C387.85 87.0493 388.884 88.9794 389.302 91.0807C389.721 93.182 389.506 95.3601 388.685 97.3395C387.863 99.3189 386.471 101.011 384.686 102.201C382.901 103.391 380.802 104.027 378.655 104.027C377.229 104.027 375.817 103.746 374.5 103.202C373.183 102.658 371.986 101.86 370.978 100.854C369.97 99.8479 369.17 98.6537 368.625 97.3395C368.079 96.0252 367.798 94.6166 367.798 93.1941V93.1941ZM378.655 83.1949C375.998 83.1979 373.451 84.2524 371.572 86.1269C369.693 88.0015 368.637 90.543 368.633 93.1941V93.1941C368.633 95.1717 369.221 97.105 370.322 98.7493C371.424 100.394 372.989 101.675 374.82 102.432C376.651 103.189 378.666 103.387 380.61 103.001C382.554 102.615 384.339 101.663 385.741 100.265C387.142 98.8661 388.097 97.0845 388.483 95.1448C388.87 93.2051 388.672 91.1946 387.913 89.3675C387.155 87.5404 385.87 85.9787 384.222 84.88C382.574 83.7813 380.637 83.1948 378.655 83.1948V83.1949Z" fill="#2F2E41"/>
<path d="M261.74 94.4504L368.209 92.7776L368.222 93.6103L262.575 95.2707V137.357H261.74V94.4504Z" fill="#2F2E41"/>
<path d="M62.9167 183.187H181.919V141.107H182.754V184.02H62.9167V183.187Z" fill="#2F2E41"/>
<path d="M50.39 95.2772H4.45923V98.1937H50.39V95.2772Z" fill="#CCCCCC"/>
<path d="M50.39 103.61H4.45923V106.526H50.39V103.61Z" fill="#CCCCCC"/>
<path d="M50.39 111.943H4.45923V114.859H50.39V111.943Z" fill="#CCCCCC"/>
<path d="M75.4431 203.186H29.5123V206.102H75.4431V203.186Z" fill="#CCCCCC"/>
<path d="M75.4431 211.518H29.5123V214.435H75.4431V211.518Z" fill="#CCCCCC"/>
<path d="M75.4431 219.851H29.5123V222.767H75.4431V219.851Z" fill="#CCCCCC"/>
<path d="M401.62 113.193H355.689V116.109H401.62V113.193Z" fill="#CCCCCC"/>
<path d="M401.62 121.525H355.689V124.442H401.62V121.525Z" fill="#CCCCCC"/>
<path d="M401.62 129.858H355.689V132.774H401.62V129.858Z" fill="#CCCCCC"/>
</svg>
