<svg width="130" height="130" viewBox="0 0 130 130" fill="none" xmlns="http://www.w3.org/2000/svg">
<path fill-rule="evenodd" clip-rule="evenodd" d="M65 130C100.898 130 130 100.898 130 65C130 29.1015 100.898 0 65 0C29.1015 0 0 29.1015 0 65C0 100.898 29.1015 130 65 130ZM104.047 71.5405C104.315 67.5235 104.449 65.4256 104.449 65.2471C104.449 57.4809 102.708 50.7859 99.2264 45.1621C95.8343 39.449 91.1924 35.1197 85.3008 32.1739C79.4092 29.1389 72.8483 27.6212 65.6177 27.6212C58.03 27.6212 51.201 29.2281 45.1308 32.4417C39.0607 35.6553 34.2851 40.1187 30.8037 45.8317C27.4114 51.4555 25.7153 57.8379 25.7153 64.9793C25.7153 72.2099 27.456 78.6818 30.9374 84.3949C34.5081 90.108 39.507 94.5713 45.9342 97.7849C52.3614 100.999 59.8153 102.605 68.2957 102.605C81.8642 102.605 92.1743 98.6776 99.2264 90.8221L85.8364 76.8965C83.2477 79.1282 80.6589 80.735 78.0702 81.7169C75.5707 82.6989 72.5805 83.1897 69.0991 83.1897C64.4572 83.1897 60.574 82.2077 57.4496 80.2439C54.4146 78.1907 52.3614 75.2897 51.2902 71.5405H104.047ZM55.8428 49.0453C58.5208 46.8136 61.8237 45.6977 65.7514 45.6977C69.6791 45.6977 72.9375 46.8136 75.5263 49.0453C78.2043 51.277 79.9003 54.312 80.6145 58.1505H50.8887C51.6028 54.312 53.2541 51.277 55.8428 49.0453Z" fill="#F3F7FE"/>
</svg>
