<svg width="343" height="426" viewBox="0 0 343 426" fill="none" xmlns="http://www.w3.org/2000/svg">
<path d="M342.912 101.201H340.572V37.0998C340.572 32.2278 339.612 27.4035 337.748 22.9023C335.883 18.4012 333.151 14.3113 329.706 10.8663C326.26 7.42125 322.171 4.68851 317.669 2.82407C313.168 0.959625 308.344 2.62652e-06 303.472 0H167.666C162.794 -1.05057e-05 157.969 0.959592 153.468 2.82402C148.967 4.68845 144.877 7.42119 141.432 10.8662C137.987 14.3112 135.254 18.4011 133.39 22.9022C131.526 27.4034 130.566 32.2277 130.566 37.0997V388.762C130.566 398.601 134.475 408.038 141.432 414.995C148.39 421.953 157.826 425.861 167.666 425.861H303.472C313.311 425.861 322.748 421.953 329.705 414.995C336.663 408.038 340.572 398.601 340.572 388.762V146.829H342.912V101.201Z" fill="#3F3D56"/>
<path d="M304.969 9.65207H287.241C288.057 11.6507 288.368 13.8192 288.148 15.9665C287.927 18.1138 287.182 20.1739 285.978 21.9655C284.774 23.757 283.148 25.225 281.243 26.24C279.338 27.2551 277.213 27.7861 275.054 27.7863H197.253C195.094 27.7861 192.969 27.2551 191.064 26.2401C189.159 25.225 187.533 23.757 186.329 21.9655C185.125 20.1739 184.38 18.1138 184.16 15.9665C183.939 13.8192 184.25 11.6507 185.066 9.65204H168.508C161.16 9.65204 154.113 12.571 148.918 17.7668C143.722 22.9627 140.803 30.0097 140.803 37.3577V388.504C140.803 392.142 141.519 395.745 142.912 399.106C144.304 402.468 146.345 405.522 148.918 408.095C151.49 410.667 154.545 412.708 157.906 414.1C161.267 415.493 164.87 416.209 168.508 416.209H304.969C308.607 416.209 312.21 415.493 315.571 414.1C318.933 412.708 321.987 410.667 324.56 408.095C327.132 405.522 329.173 402.468 330.565 399.106C331.958 395.745 332.674 392.142 332.674 388.504V37.3577C332.674 30.0097 329.755 22.9627 324.56 17.7668C319.364 12.571 312.317 9.65206 304.969 9.65207Z" fill="white"/>
<path d="M239.361 303.408C229.312 303.417 219.36 301.445 210.075 297.604C200.789 293.763 192.352 288.128 185.246 281.023C178.141 273.917 172.506 265.48 168.665 256.194C164.824 246.909 162.852 236.957 162.861 226.908C162.847 212.798 166.741 198.959 174.112 186.927C181.483 174.894 192.042 165.139 204.619 158.742C213.736 154.104 223.689 151.337 233.892 150.605C244.094 149.872 254.34 151.189 264.026 154.478C281.179 160.324 295.701 172.068 305.004 187.62C314.308 203.172 317.789 221.521 314.828 239.399C311.867 257.278 302.656 273.525 288.836 285.247C275.016 296.969 257.483 303.405 239.361 303.408L239.361 303.408ZM239.361 153.408C227.755 153.374 216.31 156.119 205.983 161.414C196.956 166.013 188.977 172.428 182.548 180.258C176.118 188.087 171.376 197.161 168.62 206.91C165.864 216.659 165.153 226.873 166.532 236.909C167.911 246.946 171.349 256.59 176.632 265.234C181.915 273.879 188.929 281.338 197.231 287.144C205.534 292.949 214.947 296.975 224.88 298.97C234.813 300.964 245.051 300.883 254.951 298.733C264.852 296.583 274.2 292.409 282.411 286.473C286.38 283.609 290.051 280.352 293.367 276.752C303.066 266.258 309.495 253.163 311.866 239.071C314.236 224.979 312.446 210.502 306.715 197.412C300.983 184.322 291.559 173.188 279.596 165.372C267.633 157.556 253.651 153.398 239.361 153.408Z" fill="#F0F0F0"/>
<path d="M73.5966 159.017C75.6964 159.28 77.713 160 79.5042 161.127C81.2955 162.254 82.8179 163.76 83.9641 165.539C85.1104 167.318 85.8527 169.327 86.1387 171.424C86.4247 173.521 86.2475 175.655 85.6195 177.676L111.037 198.847L101.938 217.431L66.4639 187.029C63.1388 185.749 60.3987 183.293 58.7628 180.128C57.127 176.963 56.7091 173.307 57.5883 169.854C58.4675 166.402 60.5827 163.391 63.5331 161.394C66.4836 159.396 70.0642 158.55 73.5966 159.017L73.5966 159.017Z" fill="#FFB6B6"/>
<path d="M310.981 247.308C310.471 241.828 308.364 231.978 306.576 228.335C301.079 213.947 265.561 202.122 260.791 200.598L259.581 187.148L210.231 181.838L203.971 199.038L186.271 205.678C185.069 206.126 183.982 206.835 183.086 207.753C182.19 208.671 181.509 209.775 181.091 210.988L165.211 215.578L149.541 220.108L95.1011 181.748L92.5308 183.428L75.3511 194.638L72.7007 196.368L143.151 259.928L169.321 253.788L189.001 249.158L190.681 255.978L186.331 279.938C198.933 292.545 215.615 300.249 233.384 301.67C251.153 303.09 268.846 298.133 283.291 287.688L294.471 277.768C302.263 269.343 308.014 259.239 311.281 248.238L310.981 247.308Z" fill="#E4E4E4"/>
<path d="M250.411 170.838C269.041 164.67 279.143 144.568 272.975 125.938C266.807 107.309 246.704 97.2067 228.075 103.375C209.445 109.543 199.343 129.645 205.511 148.275C211.679 166.904 231.782 177.006 250.411 170.838Z" fill="#FFB6B6"/>
<path d="M211.177 96.5987C214.632 91.6655 219.815 88.2126 225.699 86.9259C231.516 85.7295 237.57 86.84 242.584 90.023C248.036 87.8268 253.914 86.3697 259.689 87.1105C265.465 87.8512 271.125 91.0771 273.798 96.3918C274.36 97.7685 275.042 99.0932 275.836 100.35C278.19 103.492 282.566 103.899 286.43 104.05C284.476 105.189 282.522 106.329 280.568 107.468C282.515 108.375 284.463 109.283 286.41 110.19C283.76 111.202 281.109 112.214 278.459 113.226C284.628 118.648 286.12 128.298 283.784 136.388C281.573 144.048 276.503 150.496 270.842 156.017C269.737 151.898 270.952 147.432 271.761 143.167C272.616 138.661 272.752 133.392 269.597 130.211C267.469 128.065 264.347 127.416 261.403 126.896C246.554 124.27 231.568 122.49 216.517 121.566C214.502 121.288 212.451 121.497 210.534 122.177C206.871 123.805 205.4 128.275 204.338 132.238C203.83 125.281 204.236 118.288 205.546 111.436C206.55 106.193 208.132 100.944 211.177 96.5987Z" fill="#2F2E41"/>
<path d="M257.361 339.45H215.361C213.902 339.45 212.503 338.871 211.472 337.84C210.44 336.808 209.861 335.409 209.861 333.95C209.861 332.492 210.44 331.093 211.472 330.061C212.503 329.03 213.902 328.45 215.361 328.45H257.361C258.819 328.45 260.218 329.03 261.25 330.061C262.281 331.093 262.861 332.492 262.861 333.95C262.861 335.409 262.281 336.808 261.25 337.84C260.218 338.871 258.819 339.45 257.361 339.45Z" fill="#479AFF"/>
<path d="M119.542 45.1252H4.01761C2.95305 45.1235 1.93264 44.6994 1.18048 43.9461C0.428317 43.1927 0.00585938 42.1717 0.00585938 41.1071C0.00585938 40.0426 0.428317 39.0215 1.18048 38.2682C1.93264 37.5148 2.95305 37.0907 4.01761 37.0891H119.542C120.608 37.0891 121.63 37.5124 122.383 38.2659C123.137 39.0194 123.56 40.0415 123.56 41.1071C123.56 42.1728 123.137 43.1948 122.383 43.9483C121.63 44.7019 120.608 45.1252 119.542 45.1252Z" fill="#479AFF"/>
<path d="M186.243 70.7883H4.01782C2.95223 70.7883 1.93028 70.365 1.17679 69.6115C0.4233 68.8581 0 67.8361 0 66.7705C0 65.7049 0.4233 64.683 1.17679 63.9295C1.93028 63.176 2.95223 62.7527 4.01782 62.7527H186.243C187.308 62.7527 188.33 63.176 189.084 63.9295C189.837 64.683 190.26 65.7049 190.26 66.7705C190.26 67.8361 189.837 68.8581 189.084 69.6115C188.33 70.365 187.308 70.7883 186.243 70.7883Z" fill="#479AFF"/>
<path d="M151.225 94.9656H4.01782C2.95223 94.9656 1.93028 94.5423 1.17679 93.7888C0.423301 93.0353 0 92.0133 0 90.9478C0 89.8822 0.423301 88.8602 1.17679 88.1067C1.93028 87.3532 2.95223 86.9299 4.01782 86.9299H151.225C152.29 86.9299 153.312 87.3532 154.066 88.1067C154.819 88.8602 155.243 89.8822 155.243 90.9478C155.243 92.0133 154.819 93.0353 154.066 93.7888C153.312 94.5423 152.29 94.9656 151.225 94.9656Z" fill="#CACACA"/>
<path d="M87.0268 119.054H4.01782C2.95223 119.054 1.93028 118.631 1.17679 117.877C0.423301 117.124 0 116.102 0 115.036C0 113.971 0.423301 112.949 1.17679 112.195C1.93028 111.442 2.95223 111.018 4.01782 111.018H87.0268C88.0924 111.018 89.1143 111.442 89.8678 112.195C90.6213 112.949 91.0446 113.971 91.0446 115.036C91.0446 116.102 90.6213 117.124 89.8678 117.877C89.1143 118.631 88.0924 119.054 87.0268 119.054Z" fill="#CACACA"/>
<path d="M132.883 143.14H4.01782C2.95333 143.139 1.93303 142.715 1.18091 141.961C0.428789 141.208 0.00634766 140.187 0.00634766 139.123C0.00634766 138.058 0.428789 137.037 1.18091 136.284C1.93303 135.53 2.95333 135.106 4.01782 135.105H132.883C133.947 135.106 134.968 135.53 135.72 136.284C136.472 137.037 136.894 138.058 136.894 139.123C136.894 140.187 136.472 141.208 135.72 141.961C134.968 142.715 133.947 143.139 132.883 143.14Z" fill="#CACACA"/>
</svg>
