<svg width="523" height="314" viewBox="0 0 523 314" fill="none" xmlns="http://www.w3.org/2000/svg">
<g clip-path="url(#clip0)">
<path d="M32.8992 65.8166C26.3923 65.8166 20.0316 63.8866 14.6214 60.2706C9.21111 56.6546 4.99433 51.515 2.50426 45.5018C0.0141937 39.4886 -0.637321 32.8718 0.632104 26.4882C1.90153 20.1046 5.03489 14.2409 9.63593 9.63863C14.237 5.03632 20.0991 1.90211 26.4809 0.632339C32.8627 -0.637435 39.4776 0.0142587 45.4892 2.50501C51.5008 4.99576 56.6389 9.2137 60.2539 14.6254C63.869 20.0372 65.7985 26.3997 65.7985 32.9083C65.7886 41.6331 62.3193 49.9977 56.1516 56.1671C49.9839 62.3365 41.6216 65.8067 32.8992 65.8166ZM32.8992 1.3712C26.6635 1.3712 20.5678 3.22081 15.3829 6.68616C10.1981 10.1515 6.15703 15.0769 3.77072 20.8396C1.38441 26.6022 0.760039 32.9433 1.97657 39.0609C3.1931 45.1785 6.19589 50.7979 10.6052 55.2084C15.0146 59.619 20.6324 62.6226 26.7483 63.8395C32.8642 65.0563 39.2036 64.4318 44.9646 62.0448C50.7257 59.6578 55.6498 55.6157 59.1142 50.4294C62.5786 45.2432 64.4277 39.1458 64.4277 32.9083C64.4182 24.5471 61.0934 16.531 55.1827 10.6187C49.272 4.70637 41.2582 1.38067 32.8992 1.3712Z" fill="#F2F2F2"/>
<path d="M256.34 46.6201C253.087 46.6201 249.906 45.6551 247.201 43.8471C244.496 42.0391 242.388 39.4693 241.142 36.4627C239.897 33.4561 239.572 30.1477 240.206 26.9559C240.841 23.7641 242.408 20.8323 244.708 18.5311C247.009 16.23 249.94 14.6628 253.131 14.028C256.322 13.3931 259.629 13.7189 262.635 14.9643C265.641 16.2097 268.21 18.3186 270.017 21.0245C271.825 23.7304 272.79 26.9116 272.79 30.166C272.785 34.5283 271.05 38.7106 267.966 41.7953C264.882 44.88 260.701 46.6151 256.34 46.6201ZM256.34 15.083C253.358 15.083 250.442 15.9676 247.963 17.6249C245.483 19.2823 243.55 21.6379 242.409 24.3939C241.268 27.15 240.969 30.1827 241.551 33.1085C242.133 36.0343 243.569 38.7218 245.678 40.8312C247.786 42.9406 250.473 44.3771 253.398 44.9591C256.323 45.5411 259.355 45.2424 262.11 44.1008C264.866 42.9592 267.221 41.026 268.878 38.5456C270.534 36.0652 271.419 33.1491 271.419 30.166C271.414 26.1671 269.824 22.3333 266.997 19.5057C264.171 16.678 260.338 15.0875 256.34 15.083Z" fill="#F2F2F2"/>
<path d="M372.173 126.834C368.513 126.834 364.935 125.748 361.891 123.714C358.848 121.68 356.476 118.789 355.076 115.407C353.675 112.025 353.308 108.303 354.023 104.712C354.737 101.121 356.499 97.8228 359.087 95.234C361.675 92.6452 364.973 90.8822 368.562 90.1679C372.152 89.4537 375.873 89.8203 379.255 91.2213C382.636 92.6224 385.526 94.995 387.56 98.0391C389.593 101.083 390.679 104.662 390.679 108.323C390.673 113.231 388.722 117.936 385.252 121.406C381.783 124.877 377.079 126.829 372.173 126.834ZM372.173 91.1834C368.784 91.1834 365.471 92.1887 362.653 94.072C359.835 95.9553 357.639 98.6322 356.342 101.764C355.045 104.896 354.706 108.342 355.367 111.667C356.028 114.992 357.66 118.046 360.056 120.443C362.453 122.84 365.506 124.472 368.83 125.134C372.154 125.795 375.599 125.455 378.73 124.158C381.861 122.861 384.537 120.664 386.42 117.845C388.303 115.027 389.308 111.713 389.308 108.323C389.303 103.779 387.496 99.4224 384.283 96.2092C381.071 92.996 376.716 91.1886 372.173 91.1834Z" fill="#F2F2F2"/>
<path d="M522.315 314H368.099C367.918 314 367.743 313.928 367.615 313.799C367.486 313.671 367.414 313.496 367.414 313.314C367.414 313.133 367.486 312.958 367.615 312.83C367.743 312.701 367.918 312.629 368.099 312.629H522.315C522.496 312.629 522.671 312.701 522.799 312.83C522.928 312.958 523 313.133 523 313.314C523 313.496 522.928 313.671 522.799 313.799C522.671 313.928 522.496 314 522.315 314Z" fill="#CCCCCC"/>
<path d="M439.285 105.064C448.582 105.064 456.119 97.5254 456.119 88.2256C456.119 78.9258 448.582 71.3868 439.285 71.3868C429.988 71.3868 422.451 78.9258 422.451 88.2256C422.451 97.5254 429.988 105.064 439.285 105.064Z" fill="#FFB8B8"/>
<path d="M441.032 288.183L433.075 290.885L418.865 261.474L430.608 257.485L441.032 288.183Z" fill="#FFB8B8"/>
<path d="M426.62 290.543L441.965 285.329L445.246 294.993L420.24 303.489C419.809 302.22 419.633 300.878 419.72 299.541C419.807 298.204 420.157 296.896 420.75 295.694C421.342 294.492 422.165 293.418 423.173 292.534C424.18 291.651 425.351 290.974 426.62 290.543Z" fill="#2F2E41"/>
<path d="M459.009 304.796L450.617 305.218L444.996 273.039L457.382 272.416L459.009 304.796Z" fill="#FFB8B8"/>
<path d="M444.502 303.121L460.687 302.307L461.199 312.5L434.823 313.826C434.756 312.488 434.953 311.149 435.403 309.886C435.853 308.624 436.547 307.462 437.446 306.468C438.345 305.474 439.43 304.667 440.641 304.092C441.852 303.518 443.164 303.188 444.502 303.121Z" fill="#2F2E41"/>
<path d="M409.067 197.882C409.82 197.212 410.416 196.384 410.815 195.459C411.213 194.533 411.404 193.531 411.373 192.524C411.342 191.516 411.091 190.528 410.638 189.628C410.184 188.728 409.538 187.939 408.747 187.315L416.748 164.16L404.417 167.312L398.709 188.818C397.75 190.217 397.338 191.921 397.551 193.604C397.764 195.287 398.586 196.834 399.863 197.952C401.14 199.069 402.782 199.679 404.478 199.666C406.175 199.653 407.807 199.018 409.067 197.882Z" fill="#FFB8B8"/>
<path d="M458.225 295.094C458.116 295.094 458.008 295.088 457.9 295.077L446.508 293.87C445.808 293.8 445.154 293.49 444.655 292.994C444.156 292.498 443.843 291.846 443.768 291.146L434.964 212.639L428.594 234.122L440.471 276.343C440.592 276.773 440.618 277.224 440.547 277.665C440.477 278.106 440.311 278.527 440.063 278.897C439.814 279.268 439.487 279.581 439.106 279.813C438.725 280.046 438.297 280.192 437.854 280.243L426.306 281.571C425.571 281.652 424.831 281.468 424.22 281.051C423.608 280.634 423.166 280.012 422.973 279.298L410.356 231.785C410.252 231.394 410.226 230.987 410.279 230.586L415.95 187.944L458.249 191.336L461.308 291.915C461.32 292.327 461.25 292.739 461.101 293.124C460.951 293.509 460.726 293.86 460.439 294.157C460.151 294.453 459.807 294.689 459.427 294.85C459.047 295.011 458.638 295.094 458.225 295.094V295.094Z" fill="#2F2E41"/>
<path d="M443.603 198.628C429.432 198.628 413.388 193.151 412.416 192.815L412.135 192.717L428.122 110.663L428.416 110.675C434.751 110.932 452.041 111.064 452.215 111.065L452.525 111.068L459.189 183.479L460.38 194.07L460.234 194.189C456.158 197.485 450.076 198.628 443.603 198.628Z" fill="#218DFF"/>
<path d="M418.002 191.537L408.002 187.508L413.099 125.844C413.221 124.323 413.684 122.85 414.452 121.532C415.22 120.215 416.274 119.087 417.536 118.231L422.798 114.649C422.649 114.143 422.622 113.608 422.72 113.089C422.818 112.571 423.037 112.082 423.36 111.665C423.683 111.247 424.1 110.913 424.578 110.688C425.055 110.463 425.579 110.354 426.107 110.371L427.614 110.42C427.9 110.227 428.238 110.125 428.584 110.127C428.929 110.129 429.266 110.236 429.55 110.434C429.833 110.631 430.051 110.909 430.173 111.232C430.296 111.555 430.318 111.908 430.237 112.244L429.906 118.777L418.002 191.537Z" fill="#2F2E41"/>
<path d="M412.956 180.482L399.9 179.932L404.129 152.719L407.634 127.114C407.703 126.194 407.979 125.302 408.441 124.504C408.903 123.706 409.539 123.023 410.302 122.506C411.065 121.989 411.935 121.651 412.847 121.517C413.76 121.384 414.69 121.458 415.569 121.735C416.939 122.165 418.113 123.063 418.887 124.272C419.661 125.481 419.984 126.925 419.801 128.349L416.251 156.093L412.956 180.482Z" fill="#2F2E41"/>
<path d="M433.629 192.48L433.54 192.205C433.48 192.017 427.596 173.138 437.441 150.609L442.378 126.047L446.597 110.625C446.676 110.349 446.819 110.096 447.013 109.885C447.207 109.674 447.447 109.511 447.715 109.41C448.03 109.301 448.37 109.287 448.693 109.37C449.016 109.453 449.307 109.629 449.531 109.876C452.472 109.013 455.633 109.329 458.345 110.758L464.27 113.88C465.587 114.574 466.637 115.686 467.255 117.041C467.873 118.396 468.024 119.918 467.684 121.368L459.586 155.938L463.523 188.227L433.629 192.48Z" fill="#2F2E41"/>
<path d="M442.251 179.17C443.253 179.279 444.267 179.167 445.22 178.842C446.174 178.516 447.045 177.986 447.771 177.287C448.498 176.589 449.062 175.74 449.425 174.8C449.788 173.859 449.94 172.851 449.872 171.846L468.21 158.257L461.8 155.217L442.025 165.406C440.344 165.634 438.805 166.47 437.699 167.757C436.594 169.044 435.998 170.692 436.026 172.389C436.054 174.085 436.703 175.713 437.851 176.963C438.998 178.213 440.564 178.998 442.251 179.17V179.17Z" fill="#FFB8B8"/>
<path d="M453.749 173.088L447.555 161.522L462.83 151.466L455.376 124.721C455.077 123.651 455.003 122.53 455.157 121.429C455.311 120.328 455.69 119.27 456.271 118.323C456.851 117.375 457.621 116.557 458.532 115.92C459.443 115.283 460.476 114.841 461.565 114.622C463.49 114.238 465.489 114.566 467.191 115.545C468.893 116.524 470.181 118.087 470.818 119.945L480.876 149.518C481.084 150.127 481.095 150.786 480.909 151.402C480.723 152.019 480.35 152.561 479.84 152.954L453.749 173.088Z" fill="#2F2E41"/>
<path d="M440.477 91.7973C438.459 92.0599 436.936 89.9946 436.23 88.0855C435.524 86.1764 434.986 83.9537 433.232 82.9225C430.835 81.5135 427.768 83.2081 425.027 82.7433C421.931 82.2183 419.918 78.9367 419.761 75.8C419.603 72.6634 420.851 69.6466 422.075 66.7547L422.503 70.3487C422.446 69.1306 422.702 67.9182 423.247 66.8274C423.792 65.7367 424.608 64.8041 425.616 64.1189L425.066 69.3926C425.183 68.665 425.442 67.9677 425.83 67.3408C426.217 66.7139 426.724 66.1697 427.323 65.7393C427.921 65.309 428.598 65.001 429.315 64.8332C430.033 64.6653 430.776 64.6408 431.503 64.7611L431.416 67.9033C434.992 67.4781 438.598 67.0522 442.184 67.3762C445.77 67.7002 449.381 68.8351 452.099 71.1974C456.165 74.731 457.65 80.5495 457.151 85.9138C456.653 91.2781 454.439 96.3174 452.132 101.185C451.551 102.41 450.748 103.792 449.402 103.948C448.193 104.089 447.086 103.077 446.71 101.919C446.42 100.73 446.431 99.4882 446.743 98.3051C447.083 96.497 447.512 94.6489 447.192 92.8371C446.872 91.0253 445.569 89.2349 443.743 89.0128C441.917 88.7908 440.049 90.8784 440.927 92.4952L440.477 91.7973Z" fill="#2F2E41"/>
<path d="M220.226 276.688L213.673 273.928L209.178 241.069H149.315L144.442 273.794L138.58 276.726C138.299 276.866 138.074 277.097 137.942 277.382C137.809 277.666 137.775 277.986 137.848 278.292C137.92 278.597 138.093 278.869 138.339 279.064C138.584 279.258 138.889 279.364 139.202 279.364H219.686C220.007 279.364 220.319 279.253 220.568 279.049C220.816 278.846 220.987 278.562 221.051 278.247C221.114 277.932 221.067 277.605 220.917 277.321C220.766 277.036 220.522 276.813 220.226 276.688Z" fill="#E6E6E6"/>
<path d="M326.607 245.441H32.5435C31.0007 245.438 29.5222 244.822 28.4324 243.73C27.3427 242.637 26.7307 241.157 26.7307 239.614V198.135H332.419V239.614C332.419 241.157 331.807 242.637 330.718 243.73C329.628 244.822 328.149 245.438 326.607 245.441Z" fill="#CCCCCC"/>
<path d="M332.727 217.739H26.4622V40.2626C26.4644 38.4001 27.205 36.6145 28.5217 35.2975C29.8384 33.9805 31.6235 33.2397 33.4855 33.2377H325.704C327.566 33.2398 329.351 33.9806 330.667 35.2975C331.984 36.6145 332.725 38.4001 332.727 40.2626V217.739Z" fill="#3F3D56"/>
<path d="M314.435 204.858H44.7542C43.3187 204.856 41.9425 204.285 40.9274 203.27C39.9124 202.254 39.3414 200.878 39.3398 199.442V51.5347C39.3414 50.0988 39.9123 48.7222 40.9274 47.7068C41.9424 46.6915 43.3187 46.1203 44.7542 46.1187H314.435C315.87 46.1203 317.247 46.6915 318.262 47.7068C319.277 48.7222 319.848 50.0988 319.849 51.5347V199.442C319.848 200.878 319.277 202.254 318.262 203.27C317.247 204.285 315.87 204.856 314.435 204.858Z" fill="white"/>
<path d="M311.897 279.707H50.7587C50.5769 279.707 50.4026 279.635 50.274 279.506C50.1455 279.378 50.0733 279.203 50.0733 279.021C50.0733 278.84 50.1455 278.665 50.274 278.537C50.4026 278.408 50.5769 278.336 50.7587 278.336H311.897C312.078 278.336 312.253 278.408 312.381 278.537C312.51 278.665 312.582 278.84 312.582 279.021C312.582 279.203 312.51 279.378 312.381 279.506C312.253 279.635 312.078 279.707 311.897 279.707Z" fill="#CCCCCC"/>
<path d="M289.099 186.48H70.0896C69.9078 186.48 69.7335 186.408 69.6049 186.28C69.4764 186.151 69.4042 185.977 69.4042 185.795V80.7945C69.4042 80.6126 69.4764 80.4383 69.6049 80.3097C69.7335 80.1811 69.9078 80.1089 70.0896 80.1089C70.2714 80.1089 70.4457 80.1811 70.5742 80.3097C70.7028 80.4383 70.775 80.6126 70.775 80.7945V185.109H289.099C289.281 185.109 289.456 185.181 289.584 185.31C289.713 185.439 289.785 185.613 289.785 185.795C289.785 185.977 289.713 186.151 289.584 186.28C289.456 186.408 289.281 186.48 289.099 186.48Z" fill="#3F3D56"/>
<path d="M116.882 178.939H96.9627C96.4233 178.938 95.9061 178.724 95.5247 178.342C95.1433 177.961 94.9287 177.443 94.928 176.904V149.437C94.9287 148.897 95.1433 148.38 95.5247 147.998C95.9061 147.617 96.4233 147.402 96.9627 147.402H116.882C117.422 147.402 117.939 147.617 118.32 147.998C118.702 148.38 118.916 148.897 118.917 149.437V176.904C118.916 177.443 118.702 177.961 118.32 178.342C117.939 178.724 117.422 178.938 116.882 178.939Z" fill="#218DFF"/>
<path d="M153.209 178.939H133.289C132.749 178.938 132.232 178.724 131.851 178.342C131.469 177.961 131.255 177.443 131.254 176.904V123.384C131.255 122.845 131.469 122.328 131.851 121.946C132.232 121.565 132.749 121.35 133.289 121.349H153.209C153.748 121.35 154.265 121.565 154.647 121.946C155.028 122.328 155.243 122.845 155.243 123.384V176.904C155.243 177.443 155.028 177.961 154.647 178.342C154.265 178.724 153.748 178.938 153.209 178.939Z" fill="#218DFF"/>
<path d="M189.535 178.939H169.615C169.076 178.938 168.559 178.724 168.177 178.342C167.796 177.961 167.581 177.443 167.581 176.904V149.437C167.581 148.897 167.796 148.38 168.177 147.998C168.559 147.617 169.076 147.402 169.615 147.402H189.535C190.074 147.402 190.591 147.617 190.973 147.998C191.354 148.38 191.569 148.897 191.57 149.437V176.904C191.569 177.443 191.354 177.961 190.973 178.342C190.591 178.724 190.074 178.938 189.535 178.939Z" fill="#218DFF"/>
<path d="M225.861 178.939H205.941C205.414 178.95 204.904 178.752 204.523 178.388C204.141 178.024 203.92 177.523 203.907 176.996V113.008C203.92 112.481 204.141 111.981 204.523 111.616C204.904 111.252 205.414 111.054 205.941 111.066H225.861C226.388 111.054 226.898 111.252 227.28 111.616C227.661 111.981 227.883 112.481 227.896 113.008V176.996C227.883 177.523 227.661 178.024 227.28 178.388C226.898 178.752 226.388 178.95 225.861 178.939Z" fill="#218DFF"/>
<path d="M262.187 178.939H242.268C241.728 178.938 241.211 178.724 240.83 178.342C240.448 177.961 240.234 177.443 240.233 176.904V94.5896C240.234 94.05 240.448 93.5328 240.83 93.1513C241.211 92.7698 241.728 92.5552 242.268 92.5546H262.187C262.727 92.5552 263.244 92.7698 263.625 93.1513C264.007 93.5328 264.221 94.05 264.222 94.5896V176.904C264.221 177.443 264.007 177.961 263.625 178.342C263.244 178.724 262.727 178.938 262.187 178.939Z" fill="#218DFF"/>
<path d="M106.923 139.175C109.194 139.175 111.035 137.333 111.035 135.061C111.035 132.789 109.194 130.948 106.923 130.948C104.651 130.948 102.81 132.789 102.81 135.061C102.81 137.333 104.651 139.175 106.923 139.175Z" fill="#3F3D56"/>
<path d="M143.249 112.437C145.52 112.437 147.361 110.595 147.361 108.323C147.361 106.051 145.52 104.21 143.249 104.21C140.978 104.21 139.136 106.051 139.136 108.323C139.136 110.595 140.978 112.437 143.249 112.437Z" fill="#3F3D56"/>
<path d="M179.575 139.175C181.846 139.175 183.687 137.333 183.687 135.061C183.687 132.789 181.846 130.948 179.575 130.948C177.304 130.948 175.463 132.789 175.463 135.061C175.463 137.333 177.304 139.175 179.575 139.175Z" fill="#3F3D56"/>
<path d="M215.901 99.4104C218.173 99.4104 220.014 97.5687 220.014 95.2969C220.014 93.025 218.173 91.1833 215.901 91.1833C213.63 91.1833 211.789 93.025 211.789 95.2969C211.789 97.5687 213.63 99.4104 215.901 99.4104Z" fill="#3F3D56"/>
<path d="M252.228 84.3275C254.499 84.3275 256.34 82.4858 256.34 80.214C256.34 77.9422 254.499 76.1005 252.228 76.1005C249.956 76.1005 248.115 77.9422 248.115 80.214C248.115 82.4858 249.956 84.3275 252.228 84.3275Z" fill="#3F3D56"/>
<path d="M179.661 135.983L143.249 108.702L107.334 135.61L106.511 134.513L143.249 106.988L179.489 134.14L215.5 94.7197L215.645 94.6607L251.971 80.0206L252.484 81.2924L216.302 95.8742L179.661 135.983Z" fill="#3F3D56"/>
</g>
<defs>
<clipPath id="clip0">
<rect width="523" height="314" fill="white"/>
</clipPath>
</defs>
</svg>
