<svg width="414" height="283" viewBox="0 0 414 283" fill="none" xmlns="http://www.w3.org/2000/svg">
<g clip-path="url(#clip0)">
<path d="M406.597 257.352C403.765 267.181 395.494 274.061 386.867 279.905C385.662 280.722 384.457 281.519 383.252 282.298C383.244 282.301 383.235 282.309 383.227 282.312C383.169 282.35 383.111 282.387 383.057 282.425C382.808 282.585 382.559 282.745 382.312 282.904L382.448 282.965C382.448 282.965 382.581 283.036 382.435 282.976C382.392 282.958 382.347 282.942 382.304 282.924C377.292 280.902 372.191 278.731 368.35 274.943C364.366 271.01 362.037 264.841 364.195 259.674C364.478 258.998 364.836 258.355 365.263 257.757C365.438 257.507 365.626 257.267 365.822 257.032C367.012 255.579 368.568 254.469 370.329 253.817C372.09 253.165 373.992 252.994 375.841 253.321C377.691 253.648 379.419 254.462 380.849 255.679C382.28 256.896 383.36 258.472 383.98 260.245C384.613 254.342 379.747 249.398 375.064 245.75C370.379 242.103 365.056 238.132 364.15 232.262C363.644 228.996 364.78 225.831 366.848 223.291C366.912 223.213 366.976 223.136 367.042 223.061C369.56 220.102 373.101 218.202 376.959 217.74C384.142 216.993 391.12 220.797 396.339 225.793C404.739 233.831 409.817 246.177 406.597 257.352Z" fill="#F2F2F2"/>
<path d="M393.094 244.497C394.473 246.642 395.531 248.977 396.236 251.428C396.832 253.619 397.098 255.887 397.023 258.156C396.831 262.826 395.52 267.381 393.202 271.438C391.455 274.516 389.327 277.361 386.867 279.905C385.662 280.722 384.457 281.519 383.252 282.298C383.244 282.301 383.235 282.309 383.227 282.312C383.169 282.35 383.111 282.387 383.057 282.425C382.808 282.585 382.559 282.745 382.312 282.904C382.312 282.904 382.581 283.036 382.435 282.976C382.392 282.958 382.347 282.942 382.303 282.924C382.753 279.24 382.313 275.502 381.02 272.024C379.728 268.545 377.621 265.427 374.875 262.931C372.123 260.473 368.83 258.7 365.263 257.757C365.438 257.507 365.626 257.267 365.822 257.032C367.2 257.418 368.541 257.926 369.829 258.548C374.434 260.76 378.205 264.397 380.584 268.919C382.718 273.026 383.636 277.656 383.231 282.267C383.437 282.08 383.643 281.889 383.843 281.7C387.652 278.149 391.034 274.072 393.324 269.368C395.31 265.383 396.286 260.972 396.166 256.521C395.979 251.669 394.046 247.174 391.248 243.261C388.18 239.086 384.556 235.351 380.477 232.158C376.366 228.865 371.867 226.087 367.082 223.887C366.974 223.836 366.889 223.746 366.846 223.635C366.802 223.524 366.803 223.401 366.848 223.291C366.88 223.192 366.95 223.109 367.042 223.061C367.09 223.041 367.141 223.031 367.193 223.034C367.244 223.036 367.295 223.05 367.341 223.074C367.931 223.346 368.518 223.622 369.1 223.91C373.948 226.306 378.48 229.296 382.591 232.811C386.562 236.197 390.301 240.066 393.094 244.497Z" fill="white"/>
<path d="M345.208 6.37454e-09H4.88878C3.59253 0.00118052 2.34971 0.51676 1.43314 1.43357C0.516563 2.35037 0.00113863 3.59349 0 4.89003V235.551C0.00113714 236.848 0.516563 238.091 1.43314 239.008C2.34971 239.925 3.59253 240.44 4.88878 240.441H345.208C345.915 240.441 346.614 240.288 347.255 239.992C347.897 239.696 348.467 239.264 348.926 238.725C348.965 238.683 349 238.638 349.032 238.591C349.324 238.234 349.56 237.835 349.733 237.408C349.979 236.82 350.105 236.189 350.103 235.551V4.89006C350.101 3.5926 349.585 2.34877 348.667 1.43186C347.75 0.514939 346.505 -6.61583e-05 345.208 6.37454e-09ZM348.707 235.551C348.707 236.234 348.507 236.901 348.129 237.469C347.794 237.97 347.339 238.378 346.806 238.658C346.312 238.913 345.764 239.046 345.208 239.045H4.88878C3.96275 239.044 3.07497 238.676 2.42017 238.021C1.76536 237.366 1.397 236.478 1.39588 235.551V4.89006C1.397 3.96382 1.76536 3.07584 2.42017 2.42089C3.07497 1.76595 3.96275 1.39749 4.88878 1.39637H345.208C346.135 1.39625 347.024 1.76411 347.68 2.41917C348.336 3.07422 348.706 3.96291 348.707 4.89006V235.551Z" fill="#E6E6E6"/>
<path d="M349.402 19.5989H0.696655V20.9968H349.402V19.5989Z" fill="#E6E6E6"/>
<path d="M12.5764 14.6782C14.892 14.6782 16.7692 12.8006 16.7692 10.4844C16.7692 8.16827 14.892 6.29065 12.5764 6.29065C10.2607 6.29065 8.38354 8.16827 8.38354 10.4844C8.38354 12.8006 10.2607 14.6782 12.5764 14.6782Z" fill="#3F3D56"/>
<path d="M24.6308 14.6782C26.9465 14.6782 28.8237 12.8006 28.8237 10.4844C28.8237 8.16827 26.9465 6.29065 24.6308 6.29065C22.3152 6.29065 20.438 8.16827 20.438 10.4844C20.438 12.8006 22.3152 14.6782 24.6308 14.6782Z" fill="#3F3D56"/>
<path d="M36.6853 14.6782C39.0009 14.6782 40.8781 12.8006 40.8781 10.4844C40.8781 8.16827 39.0009 6.29065 36.6853 6.29065C34.3696 6.29065 32.4924 8.16827 32.4924 10.4844C32.4924 12.8006 34.3696 14.6782 36.6853 14.6782Z" fill="#3F3D56"/>
<path d="M225.84 98.3394C223.603 98.3394 221.416 97.6759 219.556 96.4327C217.696 95.1896 216.246 93.4227 215.39 91.3554C214.534 89.2882 214.31 87.0135 214.746 84.8189C215.183 82.6243 216.26 80.6085 217.842 79.0263C219.424 77.4441 221.439 76.3666 223.633 75.93C225.827 75.4935 228.102 75.7176 230.168 76.5738C232.235 77.4301 234.002 78.8802 235.245 80.7406C236.487 82.6011 237.151 84.7884 237.151 87.026C237.147 90.0255 235.955 92.9011 233.834 95.022C231.714 97.143 228.839 98.336 225.84 98.3394ZM225.84 76.7848C223.815 76.7848 221.835 77.3855 220.151 78.5108C218.468 79.6361 217.155 81.2356 216.38 83.1069C215.605 84.9782 215.403 87.0374 215.798 89.024C216.193 91.0106 217.168 92.8354 218.6 94.2676C220.032 95.6999 221.856 96.6753 223.842 97.0704C225.829 97.4656 227.887 97.2628 229.758 96.4876C231.629 95.7125 233.228 94.3999 234.353 92.7157C235.478 91.0316 236.079 89.0515 236.079 87.026C236.076 84.3108 234.996 81.7077 233.076 79.7878C231.157 77.8679 228.554 76.7879 225.84 76.7848Z" fill="#479AFF"/>
<path d="M224.772 91.1372C224.53 91.1376 224.294 91.0592 224.1 90.9137L224.088 90.9047L221.556 88.9672C221.319 88.7855 221.164 88.5172 221.125 88.2213C221.086 87.9254 221.166 87.626 221.347 87.3891C221.529 87.1522 221.797 86.9971 222.093 86.958C222.389 86.919 222.688 86.999 222.925 87.1806L224.565 88.4387L228.441 83.3811C228.531 83.2639 228.643 83.1655 228.771 83.0915C228.899 83.0176 229.04 82.9696 229.186 82.9502C229.333 82.9309 229.482 82.9406 229.624 82.9788C229.767 83.0169 229.901 83.0829 230.018 83.1728L230.018 83.173L229.994 83.2064L230.019 83.173C230.255 83.3548 230.41 83.6231 230.449 83.9188C230.488 84.2146 230.408 84.5138 230.227 84.7507L225.668 90.6969C225.563 90.8339 225.427 90.9448 225.272 91.0209C225.117 91.097 224.946 91.1363 224.773 91.1358L224.772 91.1372Z" fill="#479AFF"/>
<path d="M258.204 98.3394C255.967 98.3394 253.78 97.6759 251.92 96.4327C250.06 95.1896 248.61 93.4227 247.754 91.3554C246.898 89.2882 246.674 87.0135 247.11 84.8189C247.547 82.6243 248.624 80.6085 250.206 79.0263C251.788 77.4441 253.803 76.3666 255.997 75.93C258.191 75.4935 260.465 75.7176 262.532 76.5738C264.599 77.4301 266.366 78.8802 267.608 80.7406C268.851 82.6011 269.515 84.7884 269.515 87.026C269.511 90.0255 268.319 92.9011 266.198 95.0221C264.078 97.143 261.203 98.336 258.204 98.3394ZM258.204 76.7848C256.179 76.7848 254.199 77.3855 252.515 78.5108C250.832 79.6361 249.519 81.2356 248.744 83.1069C247.969 84.9782 247.767 87.0374 248.162 89.024C248.557 91.0106 249.532 92.8354 250.964 94.2676C252.396 95.6999 254.22 96.6753 256.206 97.0704C258.192 97.4656 260.251 97.2628 262.122 96.4876C263.993 95.7125 265.592 94.3999 266.717 92.7157C267.842 91.0316 268.443 89.0515 268.443 87.026C268.44 84.3108 267.36 81.7077 265.44 79.7878C263.521 77.8678 260.918 76.7879 258.204 76.7848Z" fill="#E6E6E6"/>
<path d="M262.275 90.9404C262.139 91.076 261.955 91.1522 261.763 91.1522C261.571 91.1522 261.387 91.076 261.251 90.9404L258.537 88.2257C258.477 88.1652 258.395 88.1313 258.309 88.1312C258.224 88.1312 258.142 88.1652 258.081 88.2256L255.367 90.9404C255.231 91.0762 255.047 91.1525 254.855 91.1525C254.663 91.1525 254.479 91.0762 254.343 90.9404C254.207 90.8045 254.131 90.6203 254.131 90.4283C254.131 90.2362 254.207 90.052 254.343 89.9162L257.057 87.2014C257.117 87.1409 257.151 87.0588 257.151 86.9733C257.151 86.8878 257.117 86.8057 257.057 86.7452L254.343 84.0303C254.207 83.8945 254.131 83.7103 254.131 83.5183C254.131 83.3262 254.207 83.1421 254.343 83.0063C254.479 82.8705 254.663 82.7942 254.855 82.7942C255.047 82.7942 255.231 82.8705 255.367 83.0063L258.081 85.7212C258.141 85.7816 258.223 85.8155 258.309 85.8155C258.394 85.8155 258.476 85.7815 258.537 85.7211L261.251 83.0063C261.387 82.8705 261.571 82.7942 261.763 82.7942C261.955 82.7942 262.139 82.8705 262.275 83.0063C262.411 83.1422 262.487 83.3264 262.487 83.5184C262.487 83.7105 262.411 83.8947 262.275 84.0305L259.561 86.7453C259.501 86.8059 259.467 86.8879 259.467 86.9735C259.467 87.059 259.501 87.1411 259.561 87.2017L262.275 89.9164C262.411 90.0523 262.487 90.2364 262.487 90.4284C262.487 90.6204 262.411 90.8045 262.275 90.9404Z" fill="#E6E6E6"/>
<path d="M225.84 134.257C223.603 134.257 221.416 133.594 219.556 132.351C217.696 131.108 216.246 129.341 215.39 127.273C214.534 125.206 214.31 122.931 214.746 120.737C215.183 118.542 216.26 116.526 217.842 114.944C219.424 113.362 221.439 112.285 223.633 111.848C225.827 111.411 228.102 111.636 230.168 112.492C232.235 113.348 234.002 114.798 235.245 116.659C236.487 118.519 237.151 120.706 237.151 122.944C237.147 125.943 235.955 128.819 233.834 130.94C231.714 133.061 228.839 134.254 225.84 134.257ZM225.84 112.703C223.815 112.703 221.835 113.303 220.151 114.429C218.468 115.554 217.155 117.154 216.38 119.025C215.605 120.896 215.403 122.955 215.798 124.942C216.193 126.929 217.168 128.753 218.6 130.186C220.032 131.618 221.856 132.593 223.842 132.988C225.829 133.384 227.887 133.181 229.758 132.406C231.629 131.63 233.228 130.318 234.353 128.634C235.478 126.95 236.079 124.969 236.079 122.944C236.076 120.229 234.996 117.626 233.076 115.706C231.157 113.786 228.554 112.706 225.84 112.703Z" fill="#479AFF"/>
<path d="M224.772 127.055C224.53 127.056 224.294 126.977 224.1 126.832L224.088 126.823L221.556 124.885C221.319 124.704 221.164 124.435 221.125 124.139C221.086 123.843 221.166 123.544 221.347 123.307C221.529 123.07 221.797 122.915 222.093 122.876C222.389 122.837 222.688 122.917 222.925 123.099L224.565 124.357L228.441 119.299C228.531 119.182 228.643 119.083 228.771 119.009C228.899 118.936 229.04 118.888 229.186 118.868C229.333 118.849 229.482 118.859 229.624 118.897C229.767 118.935 229.901 119.001 230.018 119.091L230.018 119.091L229.994 119.124L230.019 119.091C230.255 119.273 230.41 119.541 230.449 119.837C230.488 120.133 230.408 120.432 230.227 120.669L225.668 126.615C225.563 126.752 225.427 126.863 225.272 126.939C225.117 127.015 224.946 127.054 224.773 127.054L224.772 127.055Z" fill="#479AFF"/>
<path d="M258.204 134.257C255.967 134.257 253.78 133.594 251.92 132.351C250.06 131.108 248.61 129.341 247.754 127.273C246.898 125.206 246.674 122.931 247.11 120.737C247.547 118.542 248.624 116.526 250.206 114.944C251.788 113.362 253.803 112.285 255.997 111.848C258.191 111.411 260.465 111.636 262.532 112.492C264.599 113.348 266.366 114.798 267.608 116.659C268.851 118.519 269.515 120.706 269.515 122.944C269.511 125.943 268.319 128.819 266.198 130.94C264.078 133.061 261.203 134.254 258.204 134.257ZM258.204 112.703C256.179 112.703 254.199 113.303 252.515 114.429C250.832 115.554 249.519 117.154 248.744 119.025C247.969 120.896 247.767 122.955 248.162 124.942C248.557 126.929 249.532 128.753 250.964 130.186C252.396 131.618 254.22 132.593 256.206 132.988C258.192 133.384 260.251 133.181 262.122 132.406C263.993 131.63 265.592 130.318 266.717 128.634C267.842 126.95 268.443 124.969 268.443 122.944C268.44 120.229 267.36 117.626 265.44 115.706C263.521 113.786 260.918 112.706 258.204 112.703Z" fill="#E6E6E6"/>
<path d="M262.275 126.858C262.139 126.994 261.955 127.07 261.763 127.07C261.571 127.07 261.387 126.994 261.251 126.858L258.537 124.144C258.477 124.083 258.395 124.049 258.309 124.049C258.224 124.049 258.142 124.083 258.081 124.144L255.367 126.858C255.231 126.994 255.047 127.07 254.855 127.07C254.663 127.07 254.479 126.994 254.343 126.858C254.207 126.723 254.131 126.538 254.131 126.346C254.131 126.154 254.207 125.97 254.343 125.834L257.057 123.119C257.117 123.059 257.151 122.977 257.151 122.891C257.151 122.806 257.117 122.724 257.057 122.663L254.343 119.948C254.207 119.812 254.131 119.628 254.131 119.436C254.131 119.244 254.207 119.06 254.343 118.924C254.479 118.788 254.663 118.712 254.855 118.712C255.047 118.712 255.231 118.788 255.367 118.924L258.081 121.639C258.141 121.7 258.223 121.733 258.309 121.733C258.394 121.733 258.476 121.7 258.537 121.639L261.251 118.924C261.387 118.789 261.571 118.712 261.763 118.712C261.955 118.712 262.139 118.789 262.275 118.924C262.411 119.06 262.487 119.244 262.487 119.436C262.487 119.628 262.411 119.813 262.275 119.949L259.561 122.663C259.501 122.724 259.467 122.806 259.467 122.891C259.467 122.977 259.501 123.059 259.561 123.12L262.275 125.834C262.411 125.97 262.487 126.154 262.487 126.346C262.487 126.538 262.411 126.722 262.275 126.858Z" fill="#E6E6E6"/>
<path d="M225.84 170.175C223.603 170.175 221.416 169.512 219.556 168.269C217.696 167.026 216.246 165.259 215.39 163.191C214.534 161.124 214.31 158.849 214.746 156.655C215.183 154.46 216.26 152.444 217.842 150.862C219.424 149.28 221.439 148.202 223.633 147.766C225.827 147.329 228.102 147.553 230.168 148.41C232.235 149.266 234.002 150.716 235.245 152.577C236.487 154.437 237.151 156.624 237.151 158.862C237.147 161.861 235.955 164.737 233.834 166.858C231.714 168.979 228.839 170.172 225.84 170.175ZM225.84 148.621C223.815 148.621 221.835 149.221 220.151 150.347C218.468 151.472 217.155 153.071 216.38 154.943C215.605 156.814 215.403 158.873 215.798 160.86C216.193 162.847 217.168 164.671 218.6 166.104C220.032 167.536 221.856 168.511 223.842 168.906C225.829 169.302 227.887 169.099 229.758 168.324C231.629 167.548 233.228 166.236 234.353 164.552C235.478 162.868 236.079 160.887 236.079 158.862C236.076 156.147 234.996 153.544 233.076 151.624C231.157 149.704 228.554 148.624 225.84 148.621Z" fill="#E6E6E6"/>
<path d="M224.772 162.973C224.53 162.973 224.294 162.895 224.1 162.75L224.088 162.74L221.556 160.803C221.319 160.621 221.164 160.353 221.125 160.057C221.086 159.761 221.166 159.462 221.347 159.225C221.529 158.988 221.797 158.833 222.093 158.794C222.389 158.755 222.688 158.835 222.925 159.016L224.565 160.275L228.441 155.217C228.531 155.1 228.643 155.001 228.771 154.927C228.899 154.853 229.04 154.805 229.186 154.786C229.333 154.767 229.482 154.776 229.624 154.815C229.767 154.853 229.901 154.919 230.018 155.009L230.018 155.009L229.994 155.042L230.019 155.009C230.255 155.191 230.41 155.459 230.449 155.755C230.488 156.05 230.408 156.35 230.227 156.587L225.668 162.533C225.563 162.67 225.427 162.781 225.272 162.857C225.117 162.933 224.946 162.972 224.773 162.972L224.772 162.973Z" fill="#E6E6E6"/>
<path d="M258.204 170.175C255.967 170.175 253.78 169.512 251.92 168.269C250.06 167.026 248.61 165.259 247.754 163.191C246.898 161.124 246.674 158.849 247.11 156.655C247.547 154.46 248.624 152.444 250.206 150.862C251.788 149.28 253.803 148.202 255.997 147.766C258.191 147.329 260.465 147.553 262.532 148.41C264.599 149.266 266.366 150.716 267.608 152.577C268.851 154.437 269.515 156.624 269.515 158.862C269.511 161.861 268.319 164.737 266.198 166.858C264.078 168.979 261.203 170.172 258.204 170.175ZM258.204 148.621C256.179 148.621 254.199 149.221 252.515 150.347C250.832 151.472 249.519 153.071 248.744 154.943C247.969 156.814 247.767 158.873 248.162 160.86C248.557 162.847 249.532 164.671 250.964 166.104C252.396 167.536 254.22 168.511 256.206 168.906C258.192 169.302 260.251 169.099 262.122 168.324C263.993 167.548 265.592 166.236 266.717 164.552C267.842 162.868 268.443 160.887 268.443 158.862C268.44 156.147 267.36 153.544 265.44 151.624C263.521 149.704 260.918 148.624 258.204 148.621Z" fill="#E6E6E6"/>
<path d="M262.275 162.776C262.139 162.912 261.955 162.988 261.763 162.988C261.571 162.988 261.387 162.912 261.251 162.776L258.537 160.062C258.477 160.001 258.395 159.967 258.309 159.967C258.224 159.967 258.141 160.001 258.081 160.062L255.367 162.776C255.231 162.912 255.047 162.988 254.855 162.988C254.663 162.988 254.479 162.912 254.343 162.776C254.207 162.64 254.131 162.456 254.131 162.264C254.131 162.072 254.207 161.888 254.343 161.752L257.057 159.037C257.117 158.977 257.151 158.895 257.151 158.809C257.151 158.724 257.117 158.642 257.057 158.581L254.343 155.866C254.207 155.73 254.131 155.546 254.131 155.354C254.131 155.162 254.207 154.978 254.343 154.842C254.479 154.706 254.663 154.63 254.855 154.63C255.047 154.63 255.231 154.706 255.367 154.842L258.081 157.557C258.141 157.618 258.223 157.651 258.309 157.651C258.394 157.651 258.476 157.617 258.537 157.557L261.251 154.842C261.387 154.707 261.571 154.631 261.763 154.631C261.955 154.631 262.138 154.708 262.274 154.843C262.41 154.979 262.486 155.163 262.486 155.355C262.486 155.546 262.41 155.731 262.275 155.866L259.561 158.581C259.5 158.642 259.467 158.724 259.467 158.809C259.467 158.895 259.501 158.977 259.561 159.038L262.275 161.752C262.411 161.888 262.487 162.072 262.487 162.264C262.487 162.456 262.411 162.64 262.275 162.776Z" fill="#E6E6E6"/>
<path d="M413.439 282.835H199.829C199.68 282.835 199.537 282.776 199.432 282.67C199.327 282.565 199.268 282.423 199.268 282.274C199.268 282.125 199.327 281.983 199.432 281.877C199.537 281.772 199.68 281.713 199.829 281.713H413.439C413.588 281.713 413.731 281.772 413.836 281.877C413.941 281.983 414 282.125 414 282.274C414 282.423 413.941 282.565 413.836 282.67C413.731 282.776 413.588 282.835 413.439 282.835Z" fill="#E6E6E6"/>
<path d="M230.239 129.789C230.945 130.215 231.735 130.482 232.554 130.57C233.374 130.658 234.203 130.565 234.982 130.298C235.762 130.031 236.474 129.596 237.068 129.024C237.661 128.452 238.122 127.757 238.418 126.988L258.442 127.655L253.003 118.775L234.822 119.503C233.496 119.092 232.066 119.181 230.802 119.753C229.538 120.326 228.528 121.342 227.963 122.61C227.398 123.878 227.318 125.309 227.737 126.632C228.157 127.955 229.047 129.078 230.239 129.789V129.789Z" fill="#FFB8B8"/>
<path d="M343.141 173.171C343.685 172.551 344.085 171.819 344.316 171.028C344.546 170.236 344.6 169.404 344.473 168.589C344.347 167.774 344.044 166.997 343.585 166.313C343.126 165.628 342.522 165.052 341.817 164.626L345.98 145.024L336.287 148.825L333.82 166.857C333.182 168.09 333.019 169.514 333.362 170.859C333.704 172.204 334.528 173.377 335.677 174.155C336.826 174.933 338.22 175.263 339.596 175.082C340.972 174.9 342.233 174.22 343.141 173.171Z" fill="#FFB8B8"/>
<path d="M296.235 275.33L289.361 275.329L286.091 248.811L296.236 248.812L296.235 275.33Z" fill="#FFB8B8"/>
<path d="M297.987 281.994L275.824 281.994V281.713C275.824 280.58 276.047 279.458 276.481 278.411C276.914 277.364 277.55 276.413 278.351 275.612C279.152 274.811 280.103 274.175 281.149 273.742C282.196 273.308 283.318 273.085 284.451 273.085H284.451L297.987 273.085L297.987 281.994Z" fill="#2F2E41"/>
<path d="M329.874 275.33L323 275.329L319.73 248.811L329.875 248.812L329.874 275.33Z" fill="#FFB8B8"/>
<path d="M331.627 281.994L309.464 281.994V281.713C309.463 280.58 309.687 279.458 310.12 278.411C310.554 277.364 311.189 276.413 311.99 275.612C312.791 274.811 313.742 274.175 314.789 273.742C315.835 273.308 316.957 273.085 318.09 273.085H318.091L331.627 273.085L331.627 281.994Z" fill="#2F2E41"/>
<path d="M296.95 261.483L287.22 261.094C286.557 261.065 285.931 260.776 285.478 260.29C285.025 259.804 284.781 259.159 284.799 258.495L287.541 168.557L287.72 168.493C304.773 162.322 318.88 162.789 330.849 169.917L330.983 169.997L332.625 257.593C332.631 257.928 332.571 258.261 332.447 258.573C332.323 258.885 332.138 259.168 331.903 259.408C331.668 259.647 331.388 259.837 331.079 259.967C330.77 260.097 330.438 260.164 330.102 260.164H321.898C321.313 260.163 320.747 259.959 320.296 259.588C319.845 259.217 319.536 258.7 319.422 258.127L308.245 201.258C308.207 201.062 308.099 200.886 307.942 200.761C307.785 200.637 307.589 200.573 307.389 200.58C307.189 200.587 306.998 200.666 306.851 200.802C306.703 200.937 306.609 201.121 306.585 201.32L299.556 259.266C299.478 259.877 299.182 260.439 298.721 260.847C298.259 261.255 297.666 261.482 297.05 261.485C297.017 261.485 296.984 261.484 296.95 261.483Z" fill="#2F2E41"/>
<path d="M306.416 89.6845C314.021 89.6845 320.187 83.518 320.187 75.9111C320.187 68.3043 314.021 62.1377 306.416 62.1377C298.811 62.1377 292.646 68.3043 292.646 75.9111C292.646 83.518 298.811 89.6845 306.416 89.6845Z" fill="#FFB8B8"/>
<path d="M241.679 126.534C241.525 126.044 241.525 125.518 241.678 125.028L243.105 120.456C243.26 119.961 243.564 119.526 243.975 119.21C244.386 118.893 244.884 118.711 245.402 118.687L263.468 117.888L292.778 102.86C293.796 102.534 294.867 102.413 295.932 102.503C296.996 102.592 298.033 102.891 298.982 103.381C299.931 103.872 300.774 104.544 301.463 105.361C302.152 106.178 302.673 107.122 302.997 108.14C303.321 109.159 303.44 110.231 303.349 111.295C303.259 112.36 302.959 113.396 302.467 114.345C301.975 115.293 301.302 116.136 300.484 116.824C299.667 117.512 298.722 118.032 297.703 118.354L279.741 128.775C274.29 131.939 267.875 133.014 261.691 131.801L243.601 128.256C243.254 128.188 242.924 128.047 242.634 127.843C242.344 127.639 242.101 127.376 241.919 127.072C241.818 126.903 241.737 126.722 241.679 126.534Z" fill="#CCCCCC"/>
<path d="M342.553 160.48C342.07 160.654 341.545 160.677 341.049 160.545L336.421 159.314C335.92 159.18 335.473 158.895 335.139 158.498C334.806 158.1 334.602 157.611 334.556 157.094L332.988 139.074L316.728 110.425C316.36 109.422 316.194 108.356 316.238 107.288C316.282 106.221 316.536 105.172 316.985 104.203C317.435 103.234 318.071 102.363 318.857 101.64C319.643 100.917 320.565 100.356 321.568 99.9888C322.571 99.622 323.637 99.4565 324.704 99.502C325.771 99.5474 326.819 99.8028 327.787 100.254C328.756 100.704 329.626 101.342 330.348 102.129C331.07 102.916 331.63 103.838 331.995 104.842L343.17 122.348C346.562 127.661 347.91 134.025 346.962 140.257L344.192 158.485C344.138 158.836 344.012 159.171 343.82 159.469C343.629 159.768 343.377 160.022 343.08 160.217C342.916 160.325 342.739 160.413 342.553 160.48Z" fill="#CCCCCC"/>
<path d="M291.354 100.371C293.72 97.7765 296.637 95.7464 299.891 94.4303C303.146 93.1142 306.654 92.5458 310.157 92.7669C310.387 92.7811 310.617 92.7972 310.845 92.8151H310.845C314.166 93.0777 317.392 94.0463 320.308 95.6562C323.224 97.266 325.763 99.48 327.755 102.15C329.78 104.858 331.204 107.966 331.931 111.268C332.659 114.57 332.673 117.99 331.974 121.298C329.304 133.94 329.979 147.061 333.934 159.362L337.628 170.835C337.746 171.202 337.779 171.592 337.723 171.974C337.667 172.357 337.524 172.721 337.305 173.039C337.086 173.357 336.797 173.621 336.46 173.809C336.123 173.998 335.747 174.107 335.362 174.128L316.476 175.143L311.643 166.793V175.403L288.689 176.637C288.643 176.64 288.598 176.641 288.553 176.641C288.205 176.641 287.86 176.569 287.541 176.429C287.222 176.289 286.935 176.085 286.699 175.829C286.463 175.573 286.282 175.27 286.169 174.941C286.055 174.612 286.011 174.262 286.039 173.915L288.633 141.736L285.379 119.881C284.852 116.389 285.116 112.823 286.15 109.447C287.184 106.07 288.963 102.969 291.354 100.371Z" fill="#CCCCCC"/>
<path d="M315.987 89.0598C314.712 89.7936 309.672 90.2801 309.313 88.8533L309.305 88.822C309.056 87.7766 309.263 86.685 309.335 85.6126C309.407 84.5401 309.302 83.362 308.571 82.5735C307.21 81.1036 304.788 81.8828 302.82 81.5111C301.667 81.2537 300.647 80.5849 299.952 79.6298C299.256 78.6747 298.932 77.4988 299.041 76.3222C299.069 76.0993 299.113 75.8762 299.162 75.6531C299.285 75.0881 299.276 74.5021 299.134 73.9414C298.993 73.3806 298.724 72.8602 298.347 72.4211C297.971 71.982 297.498 71.6361 296.966 71.4106C296.433 71.185 295.856 71.086 295.279 71.1213C293.289 71.2351 291.142 71.8379 289.496 70.3642C288.224 69.2245 287.913 66.2579 288.472 64.6434C289.412 61.9302 295.432 60.5098 298.061 59.7289C301.311 58.7894 304.731 58.5863 308.07 59.1343C311.409 59.6824 314.584 60.9678 317.364 62.8971C319.024 64.0676 320.575 65.5383 321.283 67.4427C321.99 69.347 321.649 71.7496 320.053 73.0068C321.29 74.3166 322.161 75.9285 322.579 77.6811C322.997 79.4336 322.947 81.2652 322.434 82.9923C321.646 85.5324 317.884 87.9676 315.987 89.0598Z" fill="#2F2E41"/>
<path d="M125.936 89.7664H37.7664C36.63 89.7651 35.5407 89.3127 34.7376 88.5085C33.9346 87.7044 33.4835 86.6143 33.4835 85.4777C33.4835 84.3411 33.9346 83.251 34.7376 82.4468C35.5407 81.6427 36.63 81.1903 37.7664 81.189H125.936C127.072 81.1903 128.162 81.6427 128.965 82.4468C129.768 83.251 130.219 84.3411 130.219 85.4777C130.219 86.6143 129.768 87.7044 128.965 88.5085C128.162 89.3127 127.072 89.7651 125.936 89.7664Z" fill="#479AFF"/>
<path d="M180.371 93.4238H28.9934C28.8447 93.4238 28.7021 93.3647 28.597 93.2596C28.4918 93.1544 28.4327 93.0118 28.4327 92.863C28.4327 92.7143 28.4918 92.5717 28.597 92.4665C28.7021 92.3613 28.8447 92.3022 28.9934 92.3022H180.371C180.52 92.3022 180.662 92.3613 180.768 92.4665C180.873 92.5717 180.932 92.7143 180.932 92.863C180.932 93.0118 180.873 93.1544 180.768 93.2596C180.662 93.3647 180.52 93.4238 180.371 93.4238Z" fill="#E6E6E6"/>
<path d="M125.936 125.684H37.7664C36.6292 125.684 35.5386 125.232 34.7345 124.428C33.9304 123.624 33.4786 122.533 33.4786 121.396C33.4786 120.258 33.9304 119.167 34.7345 118.363C35.5386 117.559 36.6292 117.107 37.7664 117.107H125.936C127.072 117.108 128.162 117.561 128.965 118.365C129.768 119.169 130.219 120.259 130.219 121.396C130.219 122.532 129.768 123.622 128.965 124.426C128.162 125.231 127.072 125.683 125.936 125.684Z" fill="#479AFF"/>
<path d="M180.371 129.342H28.9934C28.8447 129.342 28.7021 129.283 28.597 129.178C28.4918 129.072 28.4327 128.93 28.4327 128.781C28.4327 128.632 28.4918 128.49 28.597 128.384C28.7021 128.279 28.8447 128.22 28.9934 128.22H180.371C180.52 128.22 180.662 128.279 180.768 128.384C180.873 128.49 180.932 128.632 180.932 128.781C180.932 128.93 180.873 129.072 180.768 129.178C180.662 129.283 180.52 129.342 180.371 129.342Z" fill="#E6E6E6"/>
<path d="M125.936 161.602H37.7664C36.6292 161.602 35.5386 161.15 34.7345 160.346C33.9304 159.542 33.4786 158.451 33.4786 157.313C33.4786 156.176 33.9304 155.085 34.7345 154.281C35.5386 153.477 36.6292 153.025 37.7664 153.025H125.936C127.072 153.026 128.162 153.478 128.965 154.283C129.768 155.087 130.219 156.177 130.219 157.313C130.219 158.45 129.768 159.54 128.965 160.344C128.162 161.148 127.072 161.601 125.936 161.602Z" fill="#F2F2F2"/>
<path d="M180.371 165.26H28.9934C28.8447 165.26 28.7021 165.201 28.597 165.095C28.4918 164.99 28.4327 164.848 28.4327 164.699C28.4327 164.55 28.4918 164.407 28.597 164.302C28.7021 164.197 28.8447 164.138 28.9934 164.138H180.371C180.52 164.138 180.662 164.197 180.768 164.302C180.873 164.407 180.932 164.55 180.932 164.699C180.932 164.848 180.873 164.99 180.768 165.095C180.662 165.201 180.52 165.26 180.371 165.26Z" fill="#E6E6E6"/>
</g>
<defs>
<clipPath id="clip0">
<rect width="414" height="283" fill="white"/>
</clipPath>
</defs>
</svg>
