<svg width="501" height="360" viewBox="0 0 501 360" fill="none" xmlns="http://www.w3.org/2000/svg">
<g clip-path="url(#clip0)">
<path d="M501 360C475.185 356.224 450.358 352.968 426.52 350.234L435.946 334.999C432.769 334.062 418.806 342.746 418.806 342.746L431.18 298.454C415.197 299.992 407.065 345.238 407.065 345.238L389.211 329.845L397.853 347.098C324.895 339.576 261.885 336.621 208.885 336.28L216.953 323.241C213.776 322.304 199.813 330.988 199.813 330.988L212.187 286.697C196.204 288.234 188.072 333.48 188.072 333.48L170.218 318.088L179.371 336.361C134.94 336.898 98.7069 339.267 70.74 342.029C78.9013 321.695 106.618 302.449 106.618 302.449C85.4524 307.615 74.3488 316.384 68.5463 324.58C68.1028 299.426 71.0865 252.806 93.2548 201.28C93.2548 201.28 49.4953 280.681 55.0697 334.14L55.736 343.631C18.647 347.901 -1.52588e-05 352.434 -1.52588e-05 352.434L501 360Z" fill="#3F3D56"/>
<path d="M266.399 14.4191V335.273C266.395 339.095 264.873 342.76 262.166 345.461C259.459 348.163 255.789 349.681 251.962 349.682H121.545C119.649 349.686 117.771 349.315 116.018 348.592C114.266 347.87 112.673 346.809 111.332 345.47C109.991 344.131 108.928 342.542 108.203 340.792C107.478 339.042 107.106 337.167 107.108 335.273V14.4191C107.108 12.5255 107.481 10.6505 108.206 8.90097C108.932 7.15149 109.995 5.56187 111.336 4.2229C112.676 2.88393 114.268 1.82183 116.02 1.09726C117.771 0.372686 119.649 -0.000163157 121.545 6.76492e-07H141.061V2.49971C141.061 5.64838 142.313 8.66828 144.542 10.8952C146.77 13.1221 149.793 14.3737 152.946 14.3746H219.277C221.815 14.38 224.286 13.5676 226.325 12.058C226.737 11.7587 227.128 11.4312 227.494 11.0779C228.656 9.97064 229.579 8.63934 230.21 7.16476C230.84 5.69019 231.164 4.10309 231.162 2.49971V6.76492e-07H251.962C253.858 -0.00057947 255.736 0.371987 257.488 1.09641C259.24 1.82083 260.831 2.88292 262.172 4.22197C263.513 5.56103 264.576 7.15081 265.301 8.90048C266.027 10.6501 266.4 12.5254 266.399 14.4191Z" fill="#3F3D56"/>
<path d="M143.44 56.9242C145.356 56.9242 146.91 55.3728 146.91 53.4592C146.91 51.5456 145.356 49.9943 143.44 49.9943C141.524 49.9943 139.971 51.5456 139.971 53.4592C139.971 55.3728 141.524 56.9242 143.44 56.9242Z" fill="#F2F2F2"/>
<path d="M227.494 11.078C227.128 11.4313 226.737 11.7587 226.325 12.0581C230.574 19.5259 236.33 26.0305 243.229 31.1593C250.127 36.2881 258.017 39.9292 266.399 41.8517V40.3073C258.244 38.3858 250.576 34.7962 243.879 29.7653C237.183 24.7344 231.604 18.3713 227.494 11.078Z" fill="#218DFF"/>
<path d="M197.852 14.3745H196.227C201.998 29.0193 211.516 41.895 223.83 51.7149C236.144 61.5347 250.823 67.9547 266.399 70.3334V68.7989C251.228 66.4458 236.931 60.1909 224.913 50.6488C212.895 41.1067 203.569 28.6058 197.852 14.3745Z" fill="#218DFF"/>
<path d="M167.908 14.3745H166.342C179.441 59.7851 218.965 93.5881 266.399 99.0776V97.5679C219.788 92.1032 180.943 58.9436 167.908 14.3745Z" fill="#218DFF"/>
<path d="M132.041 79.1106H131.138V78.2087H130.962V79.1106H130.059V79.2868H130.962V80.1887H131.138V79.2868H132.041V79.1106Z" fill="#F2F2F2"/>
<path d="M193 34.0664H192.097V33.1646H191.921V34.0664H191.018V34.2426H191.921V35.1445H192.097V34.2426H193V34.0664Z" fill="#F2F2F2"/>
<path d="M140.962 114.75H140.059V113.848H139.883V114.75H138.98V114.926H139.883V115.828H140.059V114.926H140.962V114.75Z" fill="#F2F2F2"/>
<path d="M182.593 88.5155H181.69V87.6136H181.514V88.5155H180.61V88.6917H181.514V89.5936H181.69V88.6917H182.593V88.5155Z" fill="#F2F2F2"/>
<path d="M242.065 104.85H241.162V103.948H240.986V104.85H240.083V105.026H240.986V105.928H241.162V105.026H242.065V104.85Z" fill="#F2F2F2"/>
<path d="M231.658 63.854C232.752 63.854 233.64 62.9675 233.64 61.874C233.64 60.7805 232.752 59.894 231.658 59.894C230.563 59.894 229.675 60.7805 229.675 61.874C229.675 62.9675 230.563 63.854 231.658 63.854Z" fill="#FF6584"/>
<path d="M160.638 108.304L159.513 108.478C159.865 110.725 160.142 113.022 160.345 115.294L161.48 115.195C161.277 112.893 160.995 110.576 160.638 108.304Z" fill="#E6E6E6"/>
<path d="M157.56 94.7712L156.47 95.1029C157.129 97.2809 157.719 99.5133 158.219 101.736L159.334 101.483C158.824 99.2361 158.224 96.9789 157.56 94.7712Z" fill="#E6E6E6"/>
<path d="M152.649 81.7925L151.613 82.2677C152.564 84.3417 153.456 86.4702 154.264 88.5986L155.33 88.1977C154.512 86.0444 153.615 83.8863 152.649 81.7925Z" fill="#E6E6E6"/>
<path d="M146.008 69.6256L145.046 70.2345C146.27 72.155 147.445 74.1449 148.535 76.1397L149.536 75.5952C148.436 73.5757 147.247 71.566 146.008 69.6256Z" fill="#E6E6E6"/>
<path d="M137.751 58.4734L136.884 59.2109C138.36 60.9434 139.798 62.7551 141.156 64.5865L142.068 63.9084C140.7 62.0571 139.248 60.2256 137.751 58.4734Z" fill="#E6E6E6"/>
<path d="M128.047 48.5439L127.289 49.3904C128.994 50.91 130.664 52.5088 132.255 54.1374L133.072 53.3404C131.462 51.6921 129.772 50.0784 128.047 48.5439Z" fill="#E6E6E6"/>
<path d="M117.084 40.0201L116.445 40.9606C118.338 42.2328 120.211 43.589 122.011 44.9899L122.714 44.0939C120.89 42.6783 118.997 41.3072 117.084 40.0201Z" fill="#E6E6E6"/>
<path d="M107.108 34.1001V35.3871C108.292 36.0058 109.467 36.6543 110.617 37.3175L111.187 36.3325C109.848 35.5603 108.489 34.8162 107.108 34.1001Z" fill="#E6E6E6"/>
<path d="M160.38 215.224C160.565 214.117 160.734 212.987 160.883 211.865L162.013 212.015C161.862 213.149 161.691 214.292 161.504 215.411L160.38 215.224Z" fill="#E6E6E6"/>
<path d="M157.204 228.579L158.293 228.917C158.976 226.718 159.595 224.464 160.13 222.219L159.02 221.957C158.49 224.178 157.882 226.403 157.204 228.579Z" fill="#E6E6E6"/>
<path d="M152.227 241.365L153.261 241.849C154.244 239.766 155.165 237.62 155.999 235.472L154.936 235.057C154.111 237.183 153.201 239.306 152.227 241.365Z" fill="#E6E6E6"/>
<path d="M145.531 253.361L146.487 253.98C147.747 252.05 148.956 250.049 150.082 248.036L149.088 247.479C147.977 249.47 146.778 251.448 145.531 253.361Z" fill="#E6E6E6"/>
<path d="M137.246 264.319L138.11 265.066C139.626 263.32 141.096 261.503 142.489 259.666L141.576 258.984C140.203 260.8 138.748 262.595 137.246 264.319Z" fill="#E6E6E6"/>
<path d="M127.545 274.043L128.295 274.899C130.038 273.38 131.742 271.778 133.37 270.151L132.564 269.344C130.955 270.956 129.265 272.535 127.545 274.043Z" fill="#E6E6E6"/>
<path d="M116.615 282.354L117.245 283.306C119.169 282.037 121.08 280.685 122.914 279.291L122.225 278.382C120.409 279.764 118.521 281.102 116.615 282.354Z" fill="#E6E6E6"/>
<path d="M111.315 286.922C109.938 287.699 108.53 288.452 107.108 289.165V287.888C108.337 287.264 109.556 286.605 110.75 285.937L111.315 286.922Z" fill="#E6E6E6"/>
<path d="M160.715 122.315L161.854 122.295C161.875 123.444 161.876 124.599 161.858 125.728L160.719 125.71C160.737 124.594 160.735 123.451 160.715 122.315Z" fill="#E6E6E6"/>
<path d="M112.113 149.305H228.684C237.359 149.305 245.679 152.747 251.813 158.874C257.947 165.001 261.394 173.31 261.394 181.975V186.299H144.823C136.148 186.299 127.828 182.857 121.694 176.731C115.56 170.604 112.113 162.294 112.113 153.63V149.305Z" fill="white"/>
<path d="M189.477 349.228C189.363 349.042 186.681 344.57 185.751 335.283C184.899 326.763 185.447 312.401 192.904 292.368C207.032 254.416 189.649 223.795 189.471 223.49L190.329 222.993C190.374 223.07 194.859 230.878 197.509 243.309C201.01 259.791 199.735 276.929 193.834 292.713C179.73 330.6 190.215 348.535 190.323 348.712L189.477 349.228Z" fill="#F2F2F2"/>
<path d="M183.952 221.262C187.511 221.262 190.395 218.381 190.395 214.827C190.395 211.273 187.511 208.392 183.952 208.392C180.394 208.392 177.51 211.273 177.51 214.827C177.51 218.381 180.394 221.262 183.952 221.262Z" fill="#218DFF"/>
<path d="M204.272 245.021C207.83 245.021 210.715 242.14 210.715 238.586C210.715 235.032 207.83 232.151 204.272 232.151C200.714 232.151 197.829 235.032 197.829 238.586C197.829 242.14 200.714 245.021 204.272 245.021Z" fill="#F2F2F2"/>
<path d="M190.395 260.861C193.954 260.861 196.838 257.98 196.838 254.426C196.838 250.872 193.954 247.991 190.395 247.991C186.837 247.991 183.952 250.872 183.952 254.426C183.952 257.98 186.837 260.861 190.395 260.861Z" fill="#218DFF"/>
<path d="M207.246 274.226C210.804 274.226 213.689 271.345 213.689 267.791C213.689 264.237 210.804 261.356 207.246 261.356C203.687 261.356 200.803 264.237 200.803 267.791C200.803 271.345 203.687 274.226 207.246 274.226Z" fill="#218DFF"/>
<path d="M185.439 295.015C188.998 295.015 191.882 292.134 191.882 288.58C191.882 285.027 188.998 282.146 185.439 282.146C181.881 282.146 178.996 285.027 178.996 288.58C178.996 292.134 181.881 295.015 185.439 295.015Z" fill="#F2F2F2"/>
<path d="M193.369 349.465C193.369 349.465 186.926 333.625 206.255 321.745L193.369 349.465Z" fill="#F2F2F2"/>
<path d="M185.445 349.177C185.445 349.177 182.513 332.333 159.818 332.477L185.445 349.177Z" fill="#F2F2F2"/>
<path opacity="0.2" d="M159.795 207.402C181.692 207.402 199.443 189.673 199.443 167.802C199.443 145.932 181.692 128.203 159.795 128.203C137.898 128.203 120.147 145.932 120.147 167.802C120.147 189.673 137.898 207.402 159.795 207.402Z" fill="#218DFF"/>
<path opacity="0.2" d="M159.795 195.689C175.216 195.689 187.716 183.204 187.716 167.802C187.716 152.401 175.216 139.916 159.795 139.916C144.375 139.916 131.874 152.401 131.874 167.802C131.874 183.204 144.375 195.689 159.795 195.689Z" fill="#218DFF"/>
<path d="M159.795 186.208C169.973 186.208 178.223 177.967 178.223 167.802C178.223 157.637 169.973 149.397 159.795 149.397C149.618 149.397 141.367 157.637 141.367 167.802C141.367 177.967 149.618 186.208 159.795 186.208Z" fill="#218DFF"/>
<path d="M163.146 163.833C163.146 163.268 163.003 162.712 162.73 162.218C162.458 161.723 162.064 161.305 161.586 161.003C161.108 160.701 160.561 160.525 159.997 160.491C159.432 160.457 158.869 160.567 158.358 160.809C157.847 161.051 157.406 161.419 157.076 161.877C156.745 162.335 156.537 162.87 156.469 163.43C156.401 163.991 156.476 164.56 156.688 165.084C156.899 165.607 157.24 166.069 157.679 166.426L156.445 175.053H163.146L161.912 166.426C162.298 166.112 162.609 165.717 162.822 165.268C163.036 164.82 163.146 164.329 163.146 163.833Z" fill="white"/>
<path d="M344.992 26.3831C344.992 26.3831 333.939 16.4858 319.075 35.1384C304.211 53.7911 280.962 62.927 275.626 70.1597C275.626 70.1597 297.732 61.0237 305.354 57.217C312.977 53.4104 312.596 54.1717 312.596 54.1717C312.596 54.1717 302.305 61.4044 300.399 68.637C298.494 75.8697 300.018 81.9603 296.588 89.193C293.158 96.4256 362.143 94.1416 362.143 94.1416C362.143 94.1416 369.004 82.341 367.098 70.1597C365.192 57.9784 366.336 27.9058 344.992 26.3831Z" fill="#2F2E41"/>
<path d="M324.086 57.5192C324.086 57.5192 326.49 74.3225 316.189 78.0947C305.889 81.8669 309.666 87.0108 309.666 87.0108L325.116 94.5552L341.597 89.4113L347.091 81.1811C347.091 81.1811 338.164 79.1235 340.567 72.9508C342.971 66.7781 343.657 64.7206 343.657 64.7206L324.086 57.5192Z" fill="#FFB9B9"/>
<path opacity="0.1" d="M324.086 57.5192C324.086 57.5192 326.49 74.3225 316.189 78.0947C305.889 81.8669 309.666 87.0108 309.666 87.0108L325.116 94.5552L341.597 89.4113L347.091 81.1811C347.091 81.1811 338.164 79.1235 340.567 72.9508C342.971 66.7781 343.657 64.7206 343.657 64.7206L324.086 57.5192Z" fill="black"/>
<path d="M367.348 105.529C367.348 105.529 364.945 137.078 365.632 138.45C366.318 139.821 365.632 187.488 365.632 187.488C365.632 187.488 370.438 213.208 364.258 214.579C358.078 215.951 359.451 185.774 359.451 185.774L353.271 145.994L353.958 106.558L367.348 105.529Z" fill="#FFB9B9"/>
<path opacity="0.1" d="M367.348 105.529C367.348 105.529 364.945 137.078 365.632 138.45C366.318 139.821 365.632 187.488 365.632 187.488C365.632 187.488 370.438 213.208 364.258 214.579C358.078 215.951 359.451 185.774 359.451 185.774L353.271 145.994L353.958 106.558L367.348 105.529Z" fill="black"/>
<path d="M300.395 200.519C300.395 200.519 289.065 243.385 289.408 264.304C289.752 285.222 294.215 314.371 294.215 314.371C294.215 314.371 294.902 327.059 293.872 328.431C292.842 329.803 299.022 335.632 299.022 335.632L305.546 331.86L307.949 329.117V326.716C307.949 326.716 304.172 315.057 307.262 305.798C310.352 296.539 312.069 273.22 308.979 266.018L330.267 202.92L300.395 200.519Z" fill="#FFB9B9"/>
<path d="M299.709 330.145C299.709 330.145 295.589 325.002 292.842 326.716C290.095 328.431 285.631 340.09 285.631 340.09C285.631 340.09 270.181 354.836 281.168 355.522C292.155 356.208 296.962 352.436 298.335 349.692C299.709 346.949 312.413 339.747 312.413 339.747C312.413 339.747 311.039 326.716 308.979 326.373C306.919 326.03 303.829 331.517 303.829 331.517L299.709 330.145Z" fill="#2F2E41"/>
<path d="M337.82 203.263V245.786C337.86 250.945 338.204 256.098 338.85 261.217C339.88 268.762 333.013 325.002 333.013 325.002L333.7 334.946L342.284 334.261L343.314 325.687L355.674 287.966C355.674 287.966 359.795 264.989 357.735 256.416C355.674 247.843 368.378 192.975 368.378 192.975L337.82 203.263Z" fill="#FFB9B9"/>
<path d="M330.953 332.546L333.496 331.994C333.496 331.994 335.417 327.745 337.82 328.774C339.512 329.553 341.114 330.512 342.599 331.634L343.657 333.575C343.657 333.575 346.061 338.719 349.151 342.148C352.241 345.577 355.674 353.121 350.524 353.807C345.374 354.493 338.507 354.836 336.447 353.121C334.387 351.407 335.76 348.663 333.7 347.978C331.64 347.292 329.923 345.234 330.267 344.548C330.61 343.862 330.953 332.546 330.953 332.546Z" fill="#2F2E41"/>
<path d="M337.82 69.3308C346.248 69.3308 353.08 62.5072 353.08 54.0899C353.08 45.6726 346.248 38.849 337.82 38.849C329.393 38.849 322.561 45.6726 322.561 54.0899C322.561 62.5072 329.393 69.3308 337.82 69.3308Z" fill="#FFB9B9"/>
<path d="M308.979 80.8381L313.514 79.2567C313.514 79.2567 311.726 82.2098 321.34 83.9245C330.953 85.6392 340.91 86.2462 345.374 80.6273C345.374 80.6273 347.091 79.8094 349.494 82.2099C351.898 84.6103 353.271 83.9245 353.271 83.9245L351.554 92.8406L348.121 109.301L343.657 121.646L330.953 118.903L317.219 108.958L312.069 95.584V83.2386L308.979 80.8381Z" fill="#218DFF"/>
<path d="M350.868 85.6391L354.301 83.2386C354.301 83.2386 365.975 85.2962 366.662 90.783L357.735 107.929C359.555 112.7 359.432 117.994 357.391 122.675C353.958 130.562 354.301 132.277 354.301 132.277L351.898 142.565L308.292 145.994C308.292 145.994 306.576 141.879 305.889 141.193C305.202 140.507 305.202 138.107 305.889 138.107C306.576 138.107 305.889 137.078 305.202 136.049C304.516 135.02 304.172 134.678 305.202 133.306C306.232 131.934 303.485 119.589 303.485 119.589V106.215L291.812 90.783C291.812 90.783 295.932 84.6103 297.992 83.9245C300.052 83.2386 309.852 80.5338 309.852 80.5338L312.069 83.7948L315.159 108.615L319.623 123.704L338.417 120.515L345.717 108.272L350.524 93.8693L350.868 85.6391Z" fill="#218DFF"/>
<path d="M363.915 88.7253L366.662 90.7829C366.662 90.7829 369.065 109.987 368.378 111.358C367.692 112.73 355.675 114.102 355.331 113.416C354.988 112.73 363.915 88.7253 363.915 88.7253Z" fill="#218DFF"/>
<path d="M307.262 79.1234L310.696 101.757C310.696 101.757 307.606 135.363 308.292 142.222L308.979 144.279C308.979 144.279 307.606 143.594 307.262 144.965C306.919 146.337 307.262 150.795 307.262 150.795C307.262 150.795 305.202 152.853 304.515 164.169C303.829 175.486 295.588 202.577 298.679 203.606C301.769 204.634 320.31 209.778 330.267 208.75C340.224 207.721 375.932 195.718 375.589 192.632C375.245 189.546 358.078 145.994 358.078 145.994C358.078 145.994 354.988 140.85 354.988 140.164C354.988 139.478 359.108 136.735 358.078 133.992C357.048 131.248 351.554 102.442 351.554 102.442L355.331 81.8668L350.181 80.4951L346.404 100.385C346.404 100.385 331.64 107.586 316.189 101.071L312.756 77.7517L307.262 79.1234Z" fill="#2F2E41"/>
<path d="M323.782 43.152C323.782 43.152 349.19 60.6412 356.057 52.7539C362.924 44.8666 344.039 38.0081 344.039 38.0081L328.245 36.2935L323.782 43.152Z" fill="#2F2E41"/>
<path d="M284.305 229.202C286.92 231.146 290.155 232.071 293.404 231.804C296.653 231.536 299.693 230.094 301.954 227.748C304.215 225.402 305.541 222.313 305.685 219.06C305.828 215.807 304.779 212.613 302.734 210.077C300.688 207.542 297.787 205.838 294.574 205.286C291.361 204.734 288.057 205.371 285.281 207.078C282.504 208.785 280.447 211.445 279.493 214.559C278.54 217.673 278.757 221.027 280.103 223.993L245.06 253.134L240.394 247.603L238.298 249.004L235.965 246.238L237.882 244.625L235.549 241.86L232.567 244.369L234.003 246.071L230.808 248.759L229.372 247.058L224.687 251.001L226.84 253.553L228.544 252.12L230.877 254.885L228.747 256.677L233.054 261.783L227.942 266.084L233.147 272.253L284.305 229.202ZM293.054 209.654C294.8 209.803 296.463 210.466 297.833 211.559C299.202 212.652 300.216 214.126 300.746 215.794C301.277 217.463 301.3 219.251 300.813 220.932C300.326 222.614 299.35 224.114 298.01 225.242C296.669 226.37 295.024 227.075 293.282 227.27C291.54 227.464 289.78 227.138 288.223 226.332C286.667 225.527 285.385 224.279 284.539 222.746C283.692 221.213 283.32 219.464 283.47 217.719C283.67 215.38 284.792 213.217 286.589 211.704C288.387 210.192 290.712 209.454 293.054 209.654V209.654Z" fill="#218DFF"/>
<path d="M289.408 109.644C289.408 109.644 291.812 141.193 291.125 142.565C290.438 143.937 291.125 191.603 291.125 191.603C291.125 191.603 286.318 217.323 292.498 218.694C298.679 220.066 297.305 189.889 297.305 189.889L303.486 150.109L302.799 110.673L289.408 109.644Z" fill="#FFB9B9"/>
<path d="M294.558 89.7542L291.812 90.7829C291.812 90.7829 286.661 112.387 288.035 112.387C289.408 112.387 305.889 114.445 305.889 113.759C305.889 113.073 302.799 96.2697 302.799 96.2697L294.558 89.7542Z" fill="#218DFF"/>
</g>
<defs>
<clipPath id="clip0">
<rect width="501" height="360" fill="white"/>
</clipPath>
</defs>
</svg>
