<svg width="372" height="278" viewBox="0 0 372 278" fill="none" xmlns="http://www.w3.org/2000/svg">
<path d="M125.582 258.597L119.912 263.822L124.418 256.253C120.868 249.808 115.062 244.239 115.062 244.239C115.062 244.239 103.016 255.792 103.016 264.873C103.016 273.955 108.409 277.126 115.062 277.126C121.714 277.126 127.108 273.955 127.108 264.873C127.033 262.699 126.514 260.563 125.582 258.597Z" fill="#F2F2F2"/>
<path d="M118.454 264.105V264.553C118.427 269.756 117.551 273.816 115.83 276.675C115.806 276.717 115.78 276.757 115.755 276.799L115.563 276.681L115.379 276.566C117.287 273.479 117.962 269.116 117.987 264.577C117.989 264.431 117.991 264.282 117.989 264.134C117.982 262.213 117.865 260.269 117.677 258.381C117.663 258.235 117.648 258.086 117.632 257.938C117.371 255.447 116.995 253.067 116.61 250.999C116.583 250.853 116.554 250.707 116.526 250.563C115.859 247.066 115.18 244.533 115.025 243.972C115.007 243.903 114.996 243.866 114.994 243.857L115.204 243.797L115.206 243.795L115.419 243.735C115.421 243.744 115.459 243.87 115.521 244.105C115.757 244.983 116.373 247.365 116.977 250.507C117.004 250.649 117.033 250.795 117.059 250.942C117.373 252.619 117.681 254.494 117.925 256.462C117.987 256.956 118.042 257.444 118.091 257.924C118.108 258.073 118.124 258.221 118.137 258.368C118.341 260.409 118.446 262.321 118.454 264.105Z" fill="white"/>
<path d="M116.977 250.507C116.829 250.527 116.678 250.547 116.526 250.563C116.111 250.605 115.694 250.627 115.277 250.627C113.5 250.629 111.745 250.232 110.141 249.466C110.048 249.583 109.955 249.701 109.86 249.82C111.547 250.645 113.4 251.072 115.277 251.07C115.722 251.07 116.167 251.046 116.61 250.999C116.76 250.984 116.911 250.964 117.059 250.942C118.284 250.766 119.474 250.405 120.59 249.871C120.495 249.749 120.402 249.63 120.311 249.512C119.255 250.006 118.132 250.342 116.977 250.507Z" fill="white"/>
<path d="M118.091 257.924C117.938 257.933 117.785 257.938 117.633 257.938C117.586 257.94 117.537 257.94 117.491 257.94C115.565 257.94 113.668 257.474 111.961 256.581C110.254 255.689 108.788 254.396 107.688 252.814C107.6 252.945 107.511 253.076 107.425 253.209C108.572 254.81 110.083 256.114 111.833 257.014C113.584 257.914 115.523 258.383 117.491 258.383C117.553 258.383 117.615 258.383 117.677 258.381C117.832 258.379 117.985 258.374 118.137 258.368C120.501 258.246 122.78 257.446 124.701 256.063C124.63 255.932 124.559 255.801 124.486 255.671C122.619 257.029 120.396 257.812 118.091 257.924Z" fill="white"/>
<path d="M118.454 264.105C118.299 264.118 118.144 264.127 117.989 264.134C117.823 264.141 117.657 264.145 117.491 264.145C114.903 264.142 112.386 263.3 110.317 261.745C108.247 260.19 106.736 258.006 106.01 255.52C105.911 255.7 105.811 255.877 105.716 256.056C106.534 258.537 108.112 260.696 110.225 262.228C112.339 263.76 114.881 264.585 117.491 264.588C117.657 264.588 117.823 264.586 117.987 264.577C118.144 264.573 118.299 264.564 118.454 264.553C121.584 264.308 124.504 262.881 126.623 260.562C126.576 260.398 126.523 260.236 126.47 260.072C124.423 262.409 121.548 263.855 118.454 264.105Z" fill="white"/>
<path d="M338.295 266.549L330.601 266.993L338.879 263.998C340.213 256.761 339.249 248.768 339.249 248.768C339.249 248.768 322.616 250.061 316.866 257.086C311.116 264.11 313.28 269.985 318.426 274.206C323.572 278.427 329.751 279.397 335.501 272.372C336.82 270.643 337.771 268.661 338.295 266.549Z" fill="#F2F2F2"/>
<path d="M329.294 266.287L329.01 266.633C325.695 270.641 322.447 273.225 319.306 274.345C319.261 274.362 319.215 274.376 319.169 274.393L319.095 274.18L319.026 273.974C322.456 272.797 325.741 269.851 328.634 266.356C328.728 266.244 328.824 266.131 328.916 266.014C330.127 264.524 331.267 262.946 332.317 261.367C332.399 261.245 332.481 261.12 332.563 260.996C333.939 258.903 335.154 256.824 336.166 254.98C336.238 254.85 336.308 254.719 336.377 254.589C338.076 251.461 339.154 249.071 339.389 248.539C339.419 248.474 339.434 248.438 339.438 248.43L339.638 248.517L339.642 248.517L339.844 248.605C339.84 248.614 339.789 248.735 339.688 248.956C339.316 249.785 338.284 252.019 336.761 254.833C336.692 254.959 336.622 255.09 336.55 255.22C335.731 256.717 334.782 258.363 333.724 260.039C333.459 260.461 333.193 260.873 332.926 261.276C332.846 261.402 332.764 261.527 332.682 261.648C331.547 263.356 330.418 264.903 329.294 266.287Z" fill="white"/>
<path d="M336.761 254.833C336.634 254.754 336.505 254.674 336.377 254.589C336.029 254.359 335.693 254.111 335.371 253.846C333.995 252.721 332.888 251.3 332.133 249.689C331.987 249.721 331.841 249.753 331.691 249.785C332.474 251.493 333.637 253 335.09 254.189C335.434 254.472 335.793 254.735 336.166 254.98C336.292 255.063 336.421 255.143 336.55 255.22C337.608 255.861 338.757 256.338 339.959 256.633C339.962 256.478 339.966 256.327 339.97 256.178C338.84 255.89 337.759 255.437 336.761 254.833Z" fill="white"/>
<path d="M332.926 261.276C332.803 261.186 332.682 261.093 332.564 260.996C332.526 260.968 332.488 260.937 332.453 260.907C330.963 259.686 329.791 258.121 329.036 256.348C328.281 254.575 327.965 252.645 328.116 250.723C327.965 250.768 327.813 250.813 327.662 250.861C327.536 252.827 327.879 254.795 328.663 256.601C329.447 258.408 330.65 260.002 332.172 261.25C332.22 261.29 332.268 261.329 332.317 261.367C332.438 261.463 332.559 261.557 332.682 261.648C334.587 263.054 336.856 263.881 339.218 264.03C339.246 263.884 339.274 263.738 339.3 263.591C336.996 263.457 334.781 262.652 332.926 261.276Z" fill="white"/>
<path d="M329.294 266.287C329.166 266.199 329.04 266.108 328.916 266.014C328.783 265.914 328.652 265.812 328.524 265.707C326.524 264.063 325.11 261.815 324.494 259.299C323.878 256.783 324.092 254.135 325.105 251.751C324.914 251.827 324.725 251.901 324.538 251.979C323.6 254.417 323.453 257.089 324.118 259.614C324.783 262.14 326.227 264.392 328.243 266.05C328.372 266.155 328.501 266.259 328.634 266.356C328.758 266.452 328.883 266.544 329.01 266.633C331.587 268.43 334.748 269.179 337.856 268.729C337.924 268.573 337.985 268.414 338.048 268.254C334.985 268.763 331.845 268.057 329.294 266.287Z" fill="white"/>
<path d="M71.3602 271.769L77.36 271.768L78.4734 248.478L71.3589 248.603L71.3602 271.769Z" fill="#FFB6B6"/>
<path d="M69.8297 269.808L81.6454 269.807H81.6459C83.6429 269.808 85.5581 270.602 86.9702 272.015C88.3823 273.429 89.1757 275.346 89.1758 277.345V277.59L69.8301 277.591L69.8297 269.808Z" fill="#2F2E41"/>
<path d="M47.1058 271.769L53.1056 271.768L54.2948 248.478L47.1045 248.603L47.1058 271.769Z" fill="#FFB6B6"/>
<path d="M45.5752 269.808L57.3909 269.807H57.3914C59.3884 269.808 61.3036 270.602 62.7157 272.015C64.1278 273.429 64.9211 275.346 64.9213 277.345V277.59L45.5756 277.591L45.5752 269.808Z" fill="#2F2E41"/>
<path d="M105.551 171.988C105.527 171.293 105.351 170.611 105.035 169.99C104.72 169.37 104.272 168.827 103.724 168.398C103.176 167.97 102.54 167.667 101.863 167.511C101.185 167.355 100.481 167.35 99.8015 167.495L91.0414 153.024L87.2761 160.968L96.1721 173.493C96.4923 174.62 97.2144 175.59 98.2017 176.22C99.189 176.85 100.373 177.096 101.529 176.91C102.685 176.725 103.733 176.122 104.474 175.214C105.215 174.307 105.598 173.159 105.551 171.988H105.551Z" fill="#FFB6B6"/>
<path d="M32.3483 187.125C32.7571 186.562 33.0376 185.916 33.17 185.233C33.3024 184.55 33.2835 183.845 33.1147 183.17C32.9458 182.495 32.6311 181.865 32.1928 181.324C31.7544 180.784 31.203 180.347 30.5774 180.043L32.5653 163.239L24.7146 167.183L24.0304 182.535C23.59 183.621 23.5627 184.831 23.9539 185.936C24.345 187.04 25.1274 187.963 26.1527 188.529C27.178 189.095 28.375 189.264 29.5169 189.006C30.6588 188.747 31.6662 188.078 32.3483 187.125H32.3483Z" fill="#FFB6B6"/>
<path d="M74.8781 170.103L79.1269 172.623C79.1269 172.623 82.5792 174.823 81.4182 190.124C80.2573 205.426 78.87 266.73 78.87 266.73H71.3389L59.1416 193.499L54.6911 267.524L46.7636 267.127C46.7636 267.127 30.5668 182.849 37.5751 173.703L74.8781 170.103Z" fill="#2F2E41"/>
<path d="M35.011 115.953C35.011 115.953 55.6726 109.304 72.343 115.503L70.9782 147.692L81.2611 172.801C81.2611 172.801 48.5705 185.495 37.6764 174.827L40.8537 149.676L35.011 115.953Z" fill="#479AFF"/>
<path d="M66.7885 119.284L71.1182 115.503C71.1182 115.503 74.0064 115.469 76.4918 119.917C78.9773 124.365 83.4802 138.723 83.4802 138.723L97.8961 163.167L91.5541 167.532L68.6904 135.523L66.7885 119.284Z" fill="#479AFF"/>
<path d="M35.7774 117.54L36.0727 115.523C36.0727 115.523 28.0222 116.12 27.3412 123.885C26.6602 131.65 24.1702 175.468 24.1702 175.468L32.1333 177.055L40.055 132.083L35.7774 117.54Z" fill="#479AFF"/>
<path d="M63.6868 104.319L39.5339 109.08C39.0369 109.178 38.5217 109.074 38.1012 108.791C37.6807 108.509 37.3893 108.071 37.2909 107.574L35.2409 97.1521C34.5145 93.4492 35.2868 89.6091 37.3879 86.4761C39.489 83.343 42.747 81.1735 46.4457 80.4444C50.1443 79.7153 53.9807 80.4864 57.1116 82.5881C60.2425 84.6898 62.4114 87.9501 63.1417 91.6522L65.1917 102.074C65.289 102.571 65.1852 103.087 64.903 103.508C64.6209 103.929 64.1835 104.221 63.6868 104.319Z" fill="#2F2E41"/>
<path d="M52.4152 106.089C58.1724 106.089 62.8396 101.417 62.8396 95.6534C62.8396 89.8902 58.1724 85.2181 52.4152 85.2181C46.658 85.2181 41.9908 89.8902 41.9908 95.6534C41.9908 101.417 46.658 106.089 52.4152 106.089Z" fill="#FFB6B6"/>
<path d="M66.647 92.0438L51.8781 94.9551L51.309 92.8624L50.9694 95.1343L48.6953 95.5825L47.5676 91.4348L46.8943 95.9375L42.4941 96.8049L42.4531 96.5965C41.8802 93.667 42.4916 90.6297 44.153 88.1509C45.8144 85.6721 48.3902 83.9543 51.3153 83.3742L53.3975 82.9638C56.3239 82.3903 59.3581 83.0023 61.8343 84.6655C64.3105 86.3287 66.0265 88.9072 66.606 91.8354L66.647 92.0438Z" fill="#2F2E41"/>
<path d="M54.3538 108.18C54.2426 108.202 54.1298 108.214 54.0164 108.216L42.8263 108.438L39.3068 90.5456L51.2114 88.199L50.9843 88.6011C47.8254 94.1968 52.4418 101.351 55.4747 105.117C55.6979 105.393 55.8387 105.726 55.8811 106.078C55.9234 106.43 55.8655 106.787 55.714 107.108C55.5881 107.382 55.3992 107.622 55.1627 107.808C54.9263 107.994 54.6491 108.122 54.3538 108.18Z" fill="#2F2E41"/>
<path d="M213.266 0.117126H69.0383V75.9269H213.266V0.117126Z" fill="#F2F2F2"/>
<path d="M213.178 0H68.9503V8.78845H213.178V0Z" fill="#E6E6E6"/>
<path d="M210.567 12.3517H72.3V71.9308H210.567V12.3517Z" fill="white"/>
<path d="M82.6175 5.82554C83.4196 5.82554 84.0698 5.17466 84.0698 4.37175C84.0698 3.56885 83.4196 2.91797 82.6175 2.91797C81.8155 2.91797 81.1653 3.56885 81.1653 4.37175C81.1653 5.17466 81.8155 5.82554 82.6175 5.82554Z" fill="white"/>
<path d="M88.1301 5.82554C88.9322 5.82554 89.5824 5.17466 89.5824 4.37175C89.5824 3.56885 88.9322 2.91797 88.1301 2.91797C87.3281 2.91797 86.6779 3.56885 86.6779 4.37175C86.6779 5.17466 87.3281 5.82554 88.1301 5.82554Z" fill="white"/>
<path d="M77.0907 5.82554C77.8927 5.82554 78.5429 5.17466 78.5429 4.37175C78.5429 3.56885 77.8927 2.91797 77.0907 2.91797C76.2886 2.91797 75.6384 3.56885 75.6384 4.37175C75.6384 5.17466 76.2886 5.82554 77.0907 5.82554Z" fill="white"/>
<path d="M95.856 57.3824C97.2652 57.3824 98.4075 56.2388 98.4075 54.8282C98.4075 53.4175 97.2652 52.2739 95.856 52.2739C94.4468 52.2739 93.3044 53.4175 93.3044 54.8282C93.3044 56.2388 94.4468 57.3824 95.856 57.3824Z" fill="#E4E4E4"/>
<path d="M118.395 50.6931C119.804 50.6931 120.946 49.5495 120.946 48.1388C120.946 46.7282 119.804 45.5846 118.395 45.5846C116.986 45.5846 115.843 46.7282 115.843 48.1388C115.843 49.5495 116.986 50.6931 118.395 50.6931Z" fill="#E4E4E4"/>
<path d="M140.934 57.3824C142.343 57.3824 143.485 56.2388 143.485 54.8282C143.485 53.4175 142.343 52.2739 140.934 52.2739C139.524 52.2739 138.382 53.4175 138.382 54.8282C138.382 56.2388 139.524 57.3824 140.934 57.3824Z" fill="#E4E4E4"/>
<path d="M163.472 23.6403C164.882 23.6403 166.024 22.4967 166.024 21.086C166.024 19.6754 164.882 18.5318 163.472 18.5318C162.063 18.5318 160.921 19.6754 160.921 21.086C160.921 22.4967 162.063 23.6403 163.472 23.6403Z" fill="#E4E4E4"/>
<path d="M186.011 23.3259C187.42 23.3259 188.563 22.1823 188.563 20.7716C188.563 19.361 187.42 18.2174 186.011 18.2174C184.602 18.2174 183.46 19.361 183.46 20.7716C183.46 22.1823 184.602 23.3259 186.011 23.3259Z" fill="#E4E4E4"/>
<path d="M140.987 55.4004L118.395 48.3737L96.1112 55.169L95.601 54.4876L118.395 47.31L140.88 54.2561L163.224 20.7276L163.314 20.691L185.852 20.6513L186.17 21.4413L163.721 21.4448L140.987 55.4004Z" fill="#E4E4E4"/>
<path d="M237.422 99.4032H101.695V170.745H237.422V99.4032Z" fill="#F2F2F2"/>
<path d="M237.339 99.293H101.612V107.563H237.339V99.293Z" fill="#E6E6E6"/>
<path d="M234.882 110.439H104.557V167.112H234.882V110.439Z" fill="white"/>
<path d="M114.473 104.775C115.228 104.775 115.84 104.163 115.84 103.407C115.84 102.651 115.228 102.039 114.473 102.039C113.719 102.039 113.107 102.651 113.107 103.407C113.107 104.163 113.719 104.775 114.473 104.775Z" fill="white"/>
<path d="M119.661 104.775C120.416 104.775 121.028 104.163 121.028 103.407C121.028 102.651 120.416 102.039 119.661 102.039C118.906 102.039 118.294 102.651 118.294 103.407C118.294 104.163 118.906 104.775 119.661 104.775Z" fill="white"/>
<path d="M109.272 104.775C110.027 104.775 110.639 104.163 110.639 103.407C110.639 102.651 110.027 102.039 109.272 102.039C108.518 102.039 107.906 102.651 107.906 103.407C107.906 104.163 108.518 104.775 109.272 104.775Z" fill="white"/>
<path d="M328.029 31.2651H167.033V115.889H328.029V31.2651Z" fill="#E6E6E6"/>
<path d="M327.931 31.1342H166.935V40.9444H327.931V31.1342Z" fill="#479AFF"/>
<path d="M324.157 43.9577H170.647V111.166H324.157V43.9577Z" fill="white"/>
<path d="M182.191 37.6371C183.086 37.6371 183.812 36.9105 183.812 36.0143C183.812 35.118 183.086 34.3915 182.191 34.3915C181.296 34.3915 180.57 35.118 180.57 36.0143C180.57 36.9105 181.296 37.6371 182.191 37.6371Z" fill="white"/>
<path d="M188.344 37.6371C189.24 37.6371 189.966 36.9105 189.966 36.0143C189.966 35.118 189.24 34.3915 188.344 34.3915C187.449 34.3915 186.723 35.118 186.723 36.0143C186.723 36.9105 187.449 37.6371 188.344 37.6371Z" fill="white"/>
<path d="M176.022 37.6371C176.917 37.6371 177.643 36.9105 177.643 36.0143C177.643 35.118 176.917 34.3915 176.022 34.3915C175.126 34.3915 174.401 35.118 174.401 36.0143C174.401 36.9105 175.126 37.6371 176.022 37.6371Z" fill="white"/>
<path d="M248.498 58.6843C248.179 58.7267 247.886 58.8837 247.674 59.126C247.462 59.3684 247.345 59.6796 247.345 60.0018C247.345 60.324 247.462 60.6353 247.674 60.8776C247.886 61.12 248.179 61.277 248.498 61.3193H302.857C303.176 61.277 303.469 61.12 303.681 60.8776C303.893 60.6353 304.01 60.324 304.01 60.0018C304.01 59.6796 303.893 59.3684 303.681 59.126C303.469 58.8837 303.176 58.7267 302.857 58.6843H248.498Z" fill="#E6E6E6"/>
<path d="M248.498 89.7581C248.179 89.8004 247.886 89.9574 247.674 90.1997C247.462 90.4421 247.345 90.7533 247.345 91.0756C247.345 91.3978 247.462 91.709 247.674 91.9514C247.886 92.1937 248.179 92.3507 248.498 92.3931H302.857C303.176 92.3507 303.469 92.1937 303.681 91.9514C303.893 91.709 304.01 91.3978 304.01 91.0756C304.01 90.7533 303.893 90.4421 303.681 90.1997C303.469 89.9574 303.176 89.8004 302.857 89.7581H248.498Z" fill="#E6E6E6"/>
<path d="M248.498 66.5893C248.179 66.6317 247.886 66.7886 247.674 67.031C247.462 67.2733 247.345 67.5846 247.345 67.9068C247.345 68.229 247.462 68.5402 247.674 68.7826C247.886 69.0249 248.179 69.1819 248.498 69.2243H271.889C272.208 69.1819 272.501 69.0249 272.713 68.7826C272.925 68.5402 273.042 68.229 273.042 67.9068C273.042 67.5846 272.925 67.2733 272.713 67.031C272.501 66.7886 272.208 66.6317 271.889 66.5893H248.498Z" fill="#E6E6E6"/>
<path d="M248.498 74.1243C248.179 74.1666 247.886 74.3236 247.674 74.566C247.462 74.8083 247.345 75.1196 247.345 75.4418C247.345 75.764 247.462 76.0752 247.674 76.3176C247.886 76.5599 248.179 76.7169 248.498 76.7593H302.857C303.176 76.7169 303.469 76.5599 303.681 76.3176C303.893 76.0752 304.01 75.764 304.01 75.4418C304.01 75.1196 303.893 74.8083 303.681 74.566C303.469 74.3236 303.176 74.1666 302.857 74.1243H248.498Z" fill="#E6E6E6"/>
<path d="M248.498 82.0293C248.179 82.0717 247.886 82.2286 247.674 82.471C247.462 82.7133 247.345 83.0246 247.345 83.3468C247.345 83.669 247.462 83.9803 247.674 84.2226C247.886 84.465 248.179 84.6219 248.498 84.6643H271.889C272.208 84.6219 272.501 84.465 272.713 84.2226C272.925 83.9803 273.042 83.669 273.042 83.3468C273.042 83.0246 272.925 82.7133 272.713 82.471C272.501 82.2286 272.208 82.0717 271.889 82.0293H248.498Z" fill="#E6E6E6"/>
<path d="M216.817 90.9496C216.982 90.95 217.145 90.9179 217.298 90.855C217.45 90.7922 217.588 90.7 217.705 90.5836C217.821 90.4671 217.914 90.3288 217.977 90.1766C218.04 90.0243 218.073 89.8611 218.073 89.6962C218.073 89.5313 218.041 89.368 217.978 89.2157C217.915 89.0634 217.822 88.925 217.706 88.8085C217.589 88.6919 217.451 88.5995 217.299 88.5366C217.146 88.4736 216.983 88.4413 216.819 88.4415H191.405C191.24 88.4412 191.077 88.4733 190.925 88.5361C190.772 88.5989 190.634 88.6912 190.517 88.8076C190.401 88.924 190.308 89.0623 190.245 89.2146C190.182 89.3669 190.149 89.5301 190.149 89.695C190.149 89.8598 190.181 90.0231 190.245 90.1754C190.308 90.3278 190.4 90.4662 190.516 90.5827C190.633 90.6992 190.771 90.7916 190.923 90.8546C191.076 90.9176 191.239 90.9498 191.404 90.9496H216.817Z" fill="#E4E4E4"/>
<path d="M216.817 83.5611C217.149 83.5605 217.467 83.4281 217.702 83.193C217.936 82.9579 218.068 82.6392 218.068 82.307C218.068 81.9748 217.936 81.6562 217.702 81.4211C217.467 81.186 217.149 81.0536 216.817 81.053H191.405C191.24 81.0526 191.077 81.0848 190.925 81.1476C190.772 81.2104 190.634 81.3026 190.517 81.4191C190.401 81.5355 190.308 81.6738 190.245 81.8261C190.182 81.9783 190.149 82.1415 190.149 82.3064C190.149 82.4713 190.181 82.6346 190.245 82.7869C190.308 82.9392 190.4 83.0776 190.516 83.1941C190.633 83.3107 190.771 83.4031 190.923 83.466C191.076 83.529 191.239 83.5613 191.404 83.5611H216.817Z" fill="#E4E4E4"/>
<path d="M204.111 60.1277C205.671 60.1277 207.195 60.5906 208.492 61.458C209.789 62.3254 210.799 63.5582 211.396 65.0006C211.993 66.443 212.149 68.0301 211.845 69.5613C211.541 71.0926 210.79 72.4991 209.687 73.6031C208.584 74.707 207.179 75.4588 205.649 75.7634C204.12 76.068 202.534 75.9117 201.093 75.3142C199.653 74.7167 198.421 73.705 197.555 72.4069C196.688 71.1088 196.226 69.5826 196.226 68.0214C196.228 65.9286 197.059 63.9222 198.538 62.4423C200.016 60.9625 202.02 60.1301 204.111 60.1277Z" fill="#479AFF"/>
<path d="M140.34 129.937C142.044 129.937 143.426 128.554 143.426 126.849C143.426 125.143 142.044 123.76 140.34 123.76C138.637 123.76 137.255 125.143 137.255 126.849C137.255 128.554 138.637 129.937 140.34 129.937Z" fill="#E4E4E4"/>
<path d="M189.911 124.445C190.186 124.445 190.459 124.499 190.713 124.604C190.967 124.709 191.198 124.863 191.393 125.058C191.587 125.252 191.742 125.483 191.847 125.738C191.953 125.992 192.007 126.264 192.007 126.54C192.007 126.815 191.953 127.088 191.847 127.342C191.742 127.596 191.587 127.827 191.393 128.022C191.198 128.216 190.967 128.371 190.713 128.476C190.459 128.581 190.186 128.635 189.911 128.634H157.463C157.188 128.635 156.916 128.581 156.662 128.476C156.407 128.371 156.176 128.216 155.982 128.022C155.787 127.827 155.633 127.596 155.527 127.342C155.422 127.088 155.368 126.815 155.368 126.54C155.368 126.264 155.422 125.992 155.527 125.738C155.633 125.483 155.787 125.252 155.982 125.058C156.176 124.863 156.407 124.709 156.662 124.604C156.916 124.499 157.188 124.445 157.463 124.445H189.911ZM189.911 123.932H157.463C156.772 123.932 156.11 124.207 155.621 124.696C155.133 125.185 154.858 125.848 154.858 126.54C154.858 127.231 155.133 127.895 155.621 128.384C156.11 128.873 156.772 129.147 157.463 129.147H189.911C190.602 129.147 191.265 128.873 191.753 128.384C192.242 127.895 192.516 127.231 192.516 126.54C192.516 125.848 192.242 125.185 191.753 124.696C191.265 124.207 190.602 123.932 189.911 123.932Z" fill="#E4E4E4"/>
<path d="M177.108 129.147H152.681C151.99 129.147 151.328 128.873 150.839 128.384C150.351 127.895 150.077 127.231 150.077 126.54C150.077 125.848 150.351 125.185 150.839 124.696C151.328 124.207 151.99 123.932 152.681 123.932H177.108C177.799 123.932 178.461 124.207 178.95 124.696C179.438 125.185 179.713 125.848 179.713 126.54C179.713 127.231 179.438 127.895 178.95 128.384C178.461 128.873 177.799 129.147 177.108 129.147Z" fill="#E4E4E4"/>
<path d="M140.34 142.762C142.044 142.762 143.426 141.379 143.426 139.673C143.426 137.968 142.044 136.585 140.34 136.585C138.637 136.585 137.255 137.968 137.255 139.673C137.255 141.379 138.637 142.762 140.34 142.762Z" fill="#E4E4E4"/>
<path d="M189.911 137.27C190.186 137.27 190.459 137.323 190.713 137.429C190.967 137.534 191.198 137.688 191.393 137.882C191.587 138.077 191.742 138.308 191.847 138.562C191.953 138.817 192.007 139.089 192.007 139.364C192.007 139.64 191.953 139.912 191.847 140.167C191.742 140.421 191.587 140.652 191.393 140.847C191.198 141.041 190.967 141.195 190.713 141.3C190.459 141.406 190.186 141.459 189.911 141.459H157.463C157.188 141.459 156.916 141.406 156.662 141.3C156.407 141.195 156.176 141.041 155.982 140.847C155.787 140.652 155.633 140.421 155.527 140.167C155.422 139.912 155.368 139.64 155.368 139.364C155.368 139.089 155.422 138.817 155.527 138.562C155.633 138.308 155.787 138.077 155.982 137.882C156.176 137.688 156.407 137.534 156.662 137.429C156.916 137.323 157.188 137.27 157.463 137.27H189.911ZM189.911 136.757H157.463C156.772 136.757 156.11 137.032 155.621 137.521C155.133 138.01 154.858 138.673 154.858 139.364C154.858 140.056 155.133 140.719 155.621 141.208C156.11 141.697 156.772 141.972 157.463 141.972H189.911C190.602 141.972 191.265 141.697 191.753 141.208C192.242 140.719 192.516 140.056 192.516 139.364C192.516 138.673 192.242 138.01 191.753 137.521C191.265 137.032 190.602 136.757 189.911 136.757Z" fill="#E4E4E4"/>
<path d="M186.332 141.972H152.681C151.99 141.972 151.328 141.697 150.839 141.208C150.351 140.719 150.077 140.056 150.077 139.364C150.077 138.673 150.351 138.01 150.839 137.521C151.328 137.032 151.99 136.757 152.681 136.757H186.332C187.022 136.758 187.684 137.033 188.172 137.522C188.66 138.011 188.934 138.673 188.934 139.364C188.934 140.055 188.66 140.718 188.172 141.207C187.684 141.696 187.022 141.971 186.332 141.972Z" fill="#E4E4E4"/>
<path d="M140.34 155.586C142.044 155.586 143.426 154.204 143.426 152.498C143.426 150.792 142.044 149.41 140.34 149.41C138.637 149.41 137.255 150.792 137.255 152.498C137.255 154.204 138.637 155.586 140.34 155.586Z" fill="#E4E4E4"/>
<path d="M189.911 150.095C190.466 150.095 190.999 150.315 191.391 150.708C191.783 151.101 192.004 151.634 192.004 152.189C192.004 152.745 191.783 153.277 191.391 153.67C190.999 154.063 190.466 154.284 189.911 154.284H157.463C156.908 154.284 156.376 154.063 155.984 153.67C155.591 153.277 155.371 152.745 155.371 152.189C155.371 151.634 155.591 151.101 155.984 150.708C156.376 150.315 156.908 150.095 157.463 150.095H189.911ZM189.911 149.582H157.463C156.772 149.582 156.11 149.856 155.621 150.345C155.133 150.834 154.858 151.498 154.858 152.189C154.858 152.881 155.133 153.544 155.621 154.033C156.11 154.522 156.772 154.797 157.463 154.797H189.911C190.602 154.797 191.265 154.522 191.753 154.033C192.242 153.544 192.516 152.881 192.516 152.189C192.516 151.498 192.242 150.834 191.753 150.345C191.265 149.856 190.602 149.582 189.911 149.582Z" fill="#E4E4E4"/>
<path d="M190.027 154.797H152.681C151.99 154.797 151.328 154.522 150.839 154.033C150.351 153.544 150.077 152.881 150.077 152.189C150.077 151.498 150.351 150.834 150.839 150.345C151.328 149.856 151.99 149.582 152.681 149.582H190.027C190.718 149.582 191.381 149.856 191.869 150.345C192.357 150.834 192.632 151.498 192.632 152.189C192.632 152.881 192.357 153.544 191.869 154.033C191.381 154.522 190.718 154.797 190.027 154.797Z" fill="#E4E4E4"/>
<path d="M287.124 186.01C287.501 185.56 287.775 185.034 287.927 184.467C288.079 183.9 288.104 183.307 288.002 182.73C287.9 182.152 287.673 181.604 287.336 181.123C287 180.643 286.562 180.243 286.054 179.95L288.718 165.94L281.885 168.791L280.402 181.658C279.968 182.545 279.873 183.56 280.137 184.512C280.4 185.464 281.004 186.286 281.832 186.823C282.661 187.359 283.657 187.572 284.632 187.423C285.608 187.273 286.494 186.77 287.124 186.01Z" fill="#FFB7B7"/>
<path d="M321.197 271.976L315.41 271.976L312.658 249.634L321.198 249.634L321.197 271.976Z" fill="#FFB7B7"/>
<path d="M322.672 277.591L304.015 277.59V277.354C304.015 275.426 304.78 273.577 306.142 272.214C307.504 270.851 309.351 270.085 311.277 270.085H311.277L322.673 270.085L322.672 277.591Z" fill="#2F2E41"/>
<path d="M289.575 271.976L283.789 271.976L281.036 249.634L289.576 249.634L289.575 271.976Z" fill="#FFB7B7"/>
<path d="M289.635 277.591L270.978 277.59V277.354C270.978 275.426 271.743 273.577 273.105 272.214C274.466 270.851 276.314 270.085 278.239 270.085H278.24L289.635 270.085L289.635 277.591Z" fill="#2F2E41"/>
<path d="M289.101 177.615L283.437 190.677L278.765 265.751L290.565 265.278L293.787 229.49L303.728 197.615L309.443 233.151L311.803 264.333L321.566 264.756L325.457 177.615H289.101Z" fill="#2F2E41"/>
<path d="M317.411 113.164L300.997 113.575L291.359 118.528L290.83 155.067L284.82 180.294C284.82 180.294 322.375 182.881 327.566 179.101L321.431 150.281L329.66 119.135L317.411 113.164Z" fill="#3F3D56"/>
<path d="M293.113 119.099L291.359 118.528C291.359 118.528 285.797 122.101 286.326 130.74C286.326 130.74 286.118 135.211 286.317 138.186C286.545 141.599 279.709 175.511 279.709 175.511H289.621L293.868 144.801L293.113 119.099Z" fill="#3F3D56"/>
<path d="M329.403 186.482C329.026 186.033 328.752 185.506 328.6 184.94C328.448 184.373 328.422 183.78 328.524 183.202C328.626 182.624 328.854 182.076 329.19 181.596C329.527 181.115 329.965 180.715 330.473 180.422L327.808 166.413L334.642 169.263L336.124 182.13C336.559 183.017 336.653 184.033 336.39 184.985C336.126 185.936 335.523 186.758 334.694 187.295C333.866 187.831 332.869 188.045 331.894 187.895C330.919 187.745 330.032 187.242 329.403 186.482Z" fill="#FFB7B7"/>
<path d="M327.19 119.571L328.943 119C328.943 119 334.505 122.574 333.976 131.213C333.976 131.213 334.185 135.683 333.985 138.659C333.757 142.071 336.817 175.983 336.817 175.983H326.906L322.658 145.273L327.19 119.571Z" fill="#3F3D56"/>
<path d="M321.441 97.8344C321.441 100.087 320.774 102.29 319.523 104.163C318.273 106.036 316.496 107.496 314.416 108.358C312.337 109.221 310.049 109.446 307.842 109.007C305.635 108.567 303.607 107.482 302.016 105.889C300.424 104.296 299.34 102.266 298.901 100.057C298.462 97.8471 298.688 95.5567 299.549 93.4753C300.41 91.3938 301.869 89.6148 303.74 88.3631C305.611 87.1115 307.811 86.4434 310.062 86.4434C311.552 86.4397 313.029 86.7299 314.408 87.2975C315.786 87.8651 317.04 88.6989 318.096 89.7514C319.153 90.8039 319.992 92.0544 320.566 93.4315C321.14 94.8087 321.437 96.2855 321.441 97.7777C321.441 97.7966 321.441 97.8155 321.441 97.8344Z" fill="#FFB7B7"/>
<path d="M298.72 82.5341C300.053 79.6647 302.633 80.232 304.889 81.2047C307.746 80.5703 310.463 78.6711 313.541 79.7943C316.574 84.209 326.754 82.9101 324.588 90.0973C324.585 91.8195 327.825 90.8171 327.26 93.6377C328.976 99.0659 321.064 109.346 316.522 107.181C317.646 105.12 320.212 100.439 316.32 99.9751C307.947 107.773 315.456 85.1254 304.936 91.7118C301.453 94.9027 296.685 85.7259 298.72 82.5341Z" fill="#2F2E41"/>
<path d="M371.569 278H0.430556C0.316365 278 0.206851 277.955 0.126106 277.874C0.0453616 277.793 0 277.683 0 277.569C0 277.455 0.0453616 277.345 0.126106 277.264C0.206851 277.183 0.316365 277.138 0.430556 277.138H371.569C371.684 277.138 371.793 277.183 371.874 277.264C371.955 277.345 372 277.455 372 277.569C372 277.683 371.955 277.793 371.874 277.874C371.793 277.955 371.684 278 371.569 278Z" fill="#CACACA"/>
</svg>
