<svg width="549" height="403" viewBox="0 0 549 403" fill="none" xmlns="http://www.w3.org/2000/svg">
<g clip-path="url(#clip0)">
<path opacity="0.2" d="M72.6551 204.173C65.4347 206.356 58.6765 211.641 56.8728 218.973C54.8098 227.4 59.5671 235.894 60.2547 244.546C62.4755 272.893 22.1742 292.893 27.9235 320.738C30.2063 331.81 39.4333 339.954 48.5251 346.683C63.0899 357.428 79.2499 366.92 97.146 369.599C124.308 373.671 152.689 361.703 179.09 369.266C200.385 375.369 216.68 393.254 237.829 399.853C253.927 404.878 271.27 402.898 287.994 400.862C297.012 399.768 306.459 398.505 313.736 393.09C327.264 383.011 328.115 363.107 337.173 348.843C351.163 326.847 381.837 322.526 407.556 326.802C433.276 331.077 458.252 341.601 484.309 340.744C489.878 340.558 495.582 339.802 500.441 337.067C506.348 333.745 510.339 327.89 513.867 322.098C535.92 285.757 548.025 244.248 548.966 201.742C549.118 194.439 548.859 186.819 545.426 180.372C541.086 172.216 532.412 167.338 523.776 164.055C503.04 156.159 480.133 154.867 459.813 145.961C440.215 137.371 424.342 122.307 407.275 109.396C373.263 83.7181 333.84 66.15 292.013 58.0315C282.211 56.1364 272.037 54.7828 262.297 56.9711C251.074 59.4923 241.402 66.4917 232.705 74.0269C209.567 94.072 191.023 118.804 169.7 140.772C154.99 155.923 138.973 169.744 121.834 182.075C113.943 187.766 105.556 194.523 96.7627 198.731C88.7137 202.577 81.1663 201.607 72.6551 204.173Z" fill="#218DFF"/>
<path d="M175.793 26.0236C175.793 26.0236 154.007 54.9745 169.593 88.7195C185.178 122.465 142.43 176.683 142.43 176.683" stroke="#535461" stroke-width="2" stroke-miterlimit="10"/>
<path d="M185.561 15.1889C183.83 22.6395 175.55 27.0783 175.55 27.0783C175.55 27.0783 170.083 19.4359 171.813 11.9853C173.544 4.53467 178.014 -0.789632 181.824 0.0958716C185.634 0.981375 187.291 7.73827 185.561 15.1889Z" fill="#8ED16F"/>
<path d="M179.999 13.8906C180.543 11.5515 180.274 9.48984 179.398 9.2858C178.521 9.08176 177.37 10.8126 176.826 13.1517C176.282 15.4909 176.552 17.5526 177.428 17.7566C178.304 17.9606 179.455 16.2298 179.999 13.8906Z" fill="#8ED16F"/>
<path opacity="0.3" d="M179.999 13.8906C180.543 11.5515 180.274 9.48984 179.398 9.2858C178.521 9.08176 177.37 10.8126 176.826 13.1517C176.282 15.4909 176.552 17.5526 177.428 17.7566C178.304 17.9606 179.455 16.2298 179.999 13.8906Z" fill="black"/>
<path d="M181.796 48.2909C174.603 50.8854 166.38 46.3394 166.38 46.3394C166.38 46.3394 169.818 37.5916 177.016 35.0027C184.214 32.4139 191.107 33.3107 192.432 36.9542C193.756 40.5978 188.988 45.6965 181.796 48.2909Z" fill="#8ED16F"/>
<path d="M179.775 42.5466C182.031 41.73 183.612 40.3821 183.306 39.5359C183.001 38.6897 180.924 38.6656 178.668 39.4822C176.411 40.2987 174.831 41.6467 175.136 42.4929C175.442 43.3391 177.519 43.3631 179.775 42.5466Z" fill="#8ED16F"/>
<path opacity="0.3" d="M179.775 42.5466C182.031 41.73 183.612 40.3821 183.306 39.5359C183.001 38.6897 180.924 38.6656 178.668 39.4822C176.411 40.2987 174.831 41.6467 175.136 42.4929C175.442 43.3391 177.519 43.3631 179.775 42.5466Z" fill="black"/>
<path d="M180.122 74.67C172.929 77.2644 164.706 72.7185 164.706 72.7185C164.706 72.7185 168.144 63.9706 175.342 61.3818C182.54 58.7929 189.433 59.6897 190.758 63.3332C192.082 66.9768 187.314 72.0811 180.122 74.67Z" fill="#8ED16F"/>
<path d="M178.185 69.3242C180.443 68.5107 182.027 67.1646 181.722 66.3176C181.417 65.4706 179.34 65.4434 177.082 66.257C174.823 67.0705 173.24 68.4166 173.544 69.2636C173.849 70.1106 175.927 70.1378 178.185 69.3242Z" fill="#8ED16F"/>
<path opacity="0.3" d="M178.185 69.3242C180.443 68.5107 182.027 67.1646 181.722 66.3176C181.417 65.4706 179.34 65.4434 177.082 66.257C174.823 67.0705 173.24 68.4166 173.544 69.2636C173.849 70.1106 175.927 70.1378 178.185 69.3242Z" fill="black"/>
<path d="M188.526 105.617C181.333 108.212 173.11 103.666 173.11 103.666C173.11 103.666 176.548 94.9181 183.746 92.3293C190.944 89.7404 197.837 90.6372 199.162 94.2808C200.486 97.9243 195.718 103.04 188.526 105.617Z" fill="#8ED16F"/>
<path d="M186.59 100.285C188.848 99.472 190.432 98.1258 190.127 97.2788C189.823 96.4318 187.745 96.4047 185.487 97.2182C183.228 98.0317 181.645 99.3779 181.95 100.225C182.254 101.072 184.332 101.099 186.59 100.285Z" fill="#8ED16F"/>
<path opacity="0.3" d="M186.59 100.285C188.848 99.472 190.432 98.1258 190.127 97.2788C189.823 96.4318 187.745 96.4047 185.487 97.2182C183.228 98.0317 181.645 99.3779 181.95 100.225C182.254 101.072 184.332 101.099 186.59 100.285Z" fill="black"/>
<path d="M183.058 133.92C175.866 136.514 167.642 131.968 167.642 131.968C167.642 131.968 171.081 123.22 178.278 120.632C185.476 118.043 192.37 118.939 193.694 122.583C195.019 126.227 190.256 131.331 183.058 133.92Z" fill="#8ED16F"/>
<path d="M181.138 128.107C183.394 127.29 184.975 125.942 184.669 125.096C184.363 124.25 182.286 124.226 180.03 125.042C177.774 125.859 176.193 127.207 176.499 128.053C176.805 128.899 178.882 128.923 181.138 128.107Z" fill="#8ED16F"/>
<path opacity="0.3" d="M181.138 128.107C183.394 127.29 184.975 125.942 184.669 125.096C184.363 124.25 182.286 124.226 180.03 125.042C177.774 125.859 176.193 127.207 176.499 128.053C176.805 128.899 178.882 128.923 181.138 128.107Z" fill="black"/>
<path d="M149.323 55.7867C154.633 61.2915 164.018 60.8629 164.018 60.8629C164.018 60.8629 164.79 51.4946 159.481 45.9898C154.171 40.485 147.593 38.2177 144.786 40.9137C141.979 43.6097 144.014 50.282 149.323 55.7867Z" fill="#8ED16F"/>
<path d="M157.622 53.8332C158.27 53.2079 157.443 51.3003 155.776 49.5724C154.109 47.8446 152.233 46.9507 151.586 47.5759C150.939 48.2012 151.765 50.1087 153.432 51.8366C155.099 53.5645 156.975 54.4584 157.622 53.8332Z" fill="#8ED16F"/>
<path opacity="0.3" d="M157.622 53.8332C158.27 53.2079 157.443 51.3003 155.776 49.5724C154.109 47.8446 152.233 46.9507 151.586 47.5759C150.939 48.2012 151.765 50.1087 153.432 51.8366C155.099 53.5645 156.975 54.4584 157.622 53.8332Z" fill="black"/>
<path d="M146.274 143.203C151.584 148.708 160.969 148.28 160.969 148.28C160.969 148.28 161.741 138.911 156.431 133.406C151.122 127.902 144.544 125.634 141.737 128.33C138.93 131.026 140.964 137.699 146.274 143.203Z" fill="#8ED16F"/>
<path d="M154.565 141.258C155.212 140.632 154.386 138.725 152.719 136.997C151.052 135.269 149.176 134.375 148.529 135C147.881 135.626 148.708 137.533 150.375 139.261C152.042 140.989 153.918 141.883 154.565 141.258Z" fill="#8ED16F"/>
<path opacity="0.3" d="M154.565 141.258C155.212 140.632 154.386 138.725 152.719 136.997C151.052 135.269 149.176 134.375 148.529 135C147.881 135.626 148.708 137.533 150.375 139.261C152.042 140.989 153.918 141.883 154.565 141.258Z" fill="black"/>
<path d="M153.314 86.6834C160.157 90.1014 168.854 86.5481 168.854 86.5481C168.854 86.5481 166.459 77.4618 159.621 74.0439C152.784 70.6259 145.823 70.6598 144.081 74.1792C142.34 77.6987 146.471 83.2655 153.314 86.6834Z" fill="#8ED16F"/>
<path d="M160.466 82.055C160.868 81.2495 159.453 79.7272 157.305 78.6548C155.158 77.5825 153.091 77.3661 152.689 78.1716C152.288 78.9771 153.703 80.4994 155.85 81.5718C157.998 82.6442 160.065 82.8605 160.466 82.055Z" fill="#8ED16F"/>
<path opacity="0.3" d="M160.466 82.055C160.868 81.2495 159.453 79.7272 157.305 78.6548C155.158 77.5825 153.091 77.3661 152.689 78.1716C152.288 78.9771 153.703 80.4994 155.85 81.5718C157.998 82.6442 160.065 82.8605 160.466 82.055Z" fill="black"/>
<path d="M156.183 117.462C163.026 120.88 171.723 117.326 171.723 117.326C171.723 117.326 169.328 108.24 162.49 104.822C155.653 101.404 148.692 101.438 146.95 104.958C145.209 108.477 149.369 114.078 156.183 117.462Z" fill="#8ED16F"/>
<path d="M163.338 112.837C163.739 112.032 162.324 110.51 160.177 109.437C158.029 108.365 155.962 108.148 155.561 108.954C155.159 109.759 156.574 111.282 158.722 112.354C160.869 113.427 162.936 113.643 163.338 112.837Z" fill="#8ED16F"/>
<path opacity="0.3" d="M163.338 112.837C163.739 112.032 162.324 110.51 160.177 109.437C158.029 108.365 155.962 108.148 155.561 108.954C155.159 109.759 156.574 111.282 158.722 112.354C160.869 113.427 162.936 113.643 163.338 112.837Z" fill="black"/>
<path d="M70.8684 88.2514C70.8684 88.2514 110.657 128.065 88.1951 187.146C65.7335 246.226 126.698 344.472 126.698 344.472C126.698 344.472 126.045 344.376 124.833 344.162C43.1027 329.729 2.51955 236.204 47.9502 166.728C64.8204 140.897 78.7144 110.598 70.8684 88.2514Z" fill="#8ED16F"/>
<path d="M0 249.283C0 249.283 45.4024 242.047 49.5396 282.763C53.6769 323.48 136.844 329.125 136.844 329.125C136.844 329.125 136.281 329.498 135.283 330.163C66.6128 375.284 0.96949 358.894 10.8616 299.001C14.5479 276.728 14.2436 254.365 0 249.283Z" fill="#8ED16F"/>
<g opacity="0.3">
<path opacity="0.3" d="M0 249.283C0 249.283 45.4024 242.047 49.5396 282.763C53.6769 323.48 136.844 329.125 136.844 329.125C136.844 329.125 136.281 329.498 135.283 330.163C66.6128 375.284 0.96949 358.894 10.8616 299.001C14.5479 276.728 14.2436 254.365 0 249.283Z" fill="white"/>
</g>
<path d="M59.3754 248.781C66.2707 248.781 71.8604 234.188 71.8604 216.187C71.8604 198.186 66.2707 183.593 59.3754 183.593C52.4802 183.593 46.8905 198.186 46.8905 216.187C46.8905 234.188 52.4802 248.781 59.3754 248.781Z" fill="#8ED16F"/>
<path opacity="0.3" d="M59.3754 248.781C66.2707 248.781 71.8604 234.188 71.8604 216.187C71.8604 198.186 66.2707 183.593 59.3754 183.593C52.4802 183.593 46.8905 198.186 46.8905 216.187C46.8905 234.188 52.4802 248.781 59.3754 248.781Z" fill="black"/>
<path d="M58.2346 334.563C61.521 331.275 58.2555 322.676 50.9409 315.356C43.6263 308.037 35.0325 304.769 31.746 308.058C28.4596 311.346 31.7252 319.946 39.0398 327.265C46.3544 334.584 54.9482 337.852 58.2346 334.563Z" fill="#8ED16F"/>
<path opacity="0.3" d="M58.2346 334.563C61.521 331.275 58.2555 322.676 50.9409 315.356C43.6263 308.037 35.0325 304.769 31.746 308.058C28.4596 311.346 31.7252 319.946 39.0398 327.265C46.3544 334.584 54.9482 337.852 58.2346 334.563Z" fill="black"/>
<path d="M408.024 149.723H112.477C108.906 149.723 105.481 151.143 102.956 153.67C100.43 156.197 99.0117 159.624 99.0117 163.198V336.536C99.0117 340.11 100.43 343.537 102.956 346.064C105.481 348.591 108.906 350.011 112.477 350.011H408.024C411.596 350.011 415.021 348.591 417.546 346.064C420.071 343.537 421.49 340.11 421.49 336.536V163.198C421.49 159.624 420.071 156.197 417.546 153.67C415.021 151.143 411.596 149.723 408.024 149.723Z" fill="url(#paint0_linear)"/>
<path d="M403.707 152.081H116.789C109.066 152.081 102.805 158.346 102.805 166.074V333.66C102.805 341.388 109.066 347.653 116.789 347.653H403.707C411.43 347.653 417.691 341.388 417.691 333.66V166.074C417.691 158.346 411.43 152.081 403.707 152.081Z" fill="#218DFF"/>
<path d="M417.691 186.305H102.805V222.16H417.691V186.305Z" fill="#218DFF"/>
<path opacity="0.3" d="M417.691 186.305H102.805V222.16H417.691V186.305Z" fill="black"/>
<path d="M387.834 248.781H132.667V266.164H387.834V248.781Z" fill="#D6D6E3"/>
<path d="M153.838 334.619C167.632 334.619 178.814 323.43 178.814 309.627C178.814 295.825 167.632 284.636 153.838 284.636C140.045 284.636 128.863 295.825 128.863 309.627C128.863 323.43 140.045 334.619 153.838 334.619Z" fill="#218DFF"/>
<path opacity="0.3" d="M153.838 334.619C167.632 334.619 178.814 323.43 178.814 309.627C178.814 295.825 167.632 284.636 153.838 284.636C140.045 284.636 128.863 295.825 128.863 309.627C128.863 323.43 140.045 334.619 153.838 334.619Z" fill="black"/>
<path d="M399.789 103.858C400.192 105.133 401.049 106.217 402.196 106.903C407.376 110.327 418.638 109.599 419.991 109.599C420.278 109.599 420.656 110.113 421.073 110.976C423.063 115.082 426.146 127.118 426.354 129.825C426.63 133.102 429.674 148.437 434.657 154.151C434.809 154.326 434.961 154.489 435.108 154.642C439.995 159.554 445.727 154.151 445.727 154.151L446.55 151.291C446.319 152.419 446.06 153.734 445.8 155.206C445.671 155.945 445.541 156.728 445.417 157.535C444.675 162.08 444.284 166.675 444.25 171.28C444.238 172.952 444.309 174.624 444.465 176.289C444.51 176.751 444.56 177.208 444.622 177.653C444.877 179.681 445.001 181.724 444.994 183.767C444.949 195.905 441.855 211.004 441.855 211.004L441.973 210.964C441.9 211.342 441.855 211.528 441.855 211.528L442.035 211.472C441.949 212.032 441.866 212.605 441.787 213.192C440.739 220.806 440.136 230.282 439.848 235.753C439.7 238.639 439.828 241.532 440.232 244.393L445.733 283.147V301.195C445.714 303.93 446.048 306.656 446.725 309.306C448.517 316.125 447.04 339.926 446.212 351.218C445.981 354.297 445.8 356.452 445.75 357.072V357.258L445.908 357.196C445.908 357.326 445.908 357.394 445.908 357.394C446.142 357.293 446.388 357.221 446.64 357.179C444.459 360.564 440.508 366.159 437.47 367.1C435.679 367.646 434.087 368.703 432.887 370.141L432.808 370.248L432.695 370.406C432.32 370.909 432.092 371.506 432.036 372.132C431.992 372.024 431.958 371.912 431.935 371.799C431.703 373.056 432.459 374.207 434.832 374.765C436.215 375.03 437.623 375.143 439.031 375.104C447.26 375.104 461.865 372.571 463.477 369.847V360.451L463.742 360.535V360.62L464.751 360.953L467.518 351.658C470.838 349.199 468.082 305.189 467.518 295.076C467.011 285.86 472.709 249.199 473.718 242.741L473.583 242.577L473.735 241.635C473.938 241.783 474.127 241.949 474.299 242.132C474.63 242.525 474.919 242.952 475.161 243.406C475.638 244.213 476.047 245.059 476.384 245.933C481.953 259.83 484.462 299.571 484.462 303.136V340.507C484.45 344.195 484.962 347.866 485.983 351.41C486.495 353.275 486.89 355.17 487.167 357.084C487.285 357.834 487.387 358.578 487.483 359.289C487.579 360 487.674 360.812 487.748 361.477C487.748 361.652 487.787 361.821 487.804 361.979C487.821 362.137 487.804 362.132 487.804 362.21C487.956 363.683 488.035 364.647 488.035 364.647C488.056 364.566 488.094 364.491 488.148 364.427L488.176 364.782C488.216 364.648 488.292 364.527 488.396 364.433C488.625 364.208 488.874 364.004 489.14 363.824V368.573L489.005 368.471V369.289C494.743 373.62 504.082 374.929 511.252 374.878C515.902 374.878 519.667 374.314 520.975 373.66C522.846 372.741 521.821 370.597 520.118 368.956C518.799 367.681 517.08 366.7 515.992 366.824C514.177 367.021 507.972 359.988 504.719 356.136L505.086 355.972L505.604 355.747V293.434C505.604 293.434 506.438 268.832 508.924 244.501C510.104 232.235 508.653 219.86 504.669 208.201L504.59 207.969L505.345 208.088C506.145 208.212 506.574 208.285 506.574 208.285C506.574 208.285 506.574 208.093 506.523 207.721H506.574C506.574 207.721 505.604 197.168 505.593 183.914C505.593 168.889 506.861 150.569 512.109 140.203C515.13 134.236 516.139 129.487 516.054 125.742C516.186 122.446 515.238 119.198 513.354 116.492C512.564 115.402 511.49 114.551 510.249 114.033L510.142 113.971H510.085C509.179 113.604 508.211 113.412 507.233 113.407H495.898C494.586 113.408 493.296 113.067 492.155 112.419L487.719 109.904C486.243 106.672 486.029 102.668 486.344 98.9113C486.344 98.6124 486.4 98.3135 486.429 98.0202L486.75 97.6818C486.998 97.4167 487.229 97.1178 487.455 96.864C487.449 97.0865 487.432 97.3087 487.404 97.5295C487.347 97.8848 487.252 98.0935 487.099 98.1386C489.523 97.8228 492.229 97.3434 493.717 95.4708C493.779 95.3975 493.835 95.3186 493.891 95.2396C494.331 94.5273 494.696 93.7712 494.979 92.9835C495.188 92.4454 495.466 91.9371 495.808 91.472C496.18 90.9869 496.665 90.5921 497.065 90.1296L497.132 90.0506C498.559 88.3586 498.637 85.9333 498.654 83.7224C498.683 78.353 498.525 72.4421 494.934 68.415C491.953 65.0648 487.195 63.7958 482.68 63.6491C478.166 63.5025 473.662 64.3146 469.153 64.3372C466.086 64.3372 462.389 64.2864 460.698 66.8245C459.869 68.071 459.768 69.701 458.866 70.8967C458.347 71.5848 457.553 72.177 457.508 73.0343C457.502 73.4299 457.603 73.8197 457.801 74.1623V74.2018C458.894 76.3564 461.216 77.6987 463.64 78.1217C463.23 78.6152 462.854 79.1352 462.513 79.6784C461.033 82.0455 460.252 84.7826 460.258 87.5746C460.258 87.9018 460.258 88.2232 460.292 88.5447C460.544 92.337 462.233 95.8898 465.015 98.477C464.97 98.7929 464.925 99.1087 464.875 99.4189L464.976 99.5092C465.295 99.7987 465.628 100.073 465.974 100.333L466.098 100.429C466.098 100.626 466.098 100.823 466.098 100.993C466.098 101.32 466.098 101.652 466.064 101.974C466.03 102.295 466.064 102.493 466.03 102.752L465.957 102.69L460.45 98.0879L451.595 89.8871C451.595 89.8871 429.454 73.7619 428.344 81.4269C428.21 82.7882 428.585 84.1509 429.398 85.2509C433.462 91.455 447.435 96.7342 447.435 96.7342C447.435 96.7342 455.766 105.55 461.34 115.053C461.143 115.161 460.946 115.262 460.737 115.358C455.777 117.665 448.54 116.689 448.54 116.689C440.181 117.992 439.425 127.157 439.471 130.863C439.471 131.038 439.471 131.207 439.471 131.359C439.471 131.511 439.471 131.545 439.471 131.63L428.378 105.567L428.344 105.488C427.982 104.639 427.412 103.896 426.687 103.326C425.962 102.756 425.105 102.378 424.196 102.228C416.778 100.981 398.239 98.3812 399.789 103.858ZM446.229 357.1C446.391 357.062 446.554 357.032 446.719 357.01L446.668 357.089L446.229 357.1Z" fill="url(#paint1_linear)"/>
<path d="M501.653 351.771C501.653 351.771 512.159 364.985 514.589 364.715C517.018 364.444 522.672 369.836 519.442 371.483C516.212 373.13 497.617 374.179 488.441 367.168V356.604L501.653 351.771Z" fill="#ACA9C9"/>
<path d="M448.562 352.577C448.562 352.577 442.362 363.632 438.056 364.985C433.749 366.339 429.973 371.19 435.632 372.537C441.291 373.885 461.504 370.919 463.386 367.681V353.384L448.562 352.577Z" fill="#ACA9C9"/>
<path d="M440.778 243.976L446.133 282.205V299.977C446.117 302.673 446.442 305.361 447.102 307.975C448.85 314.703 447.412 338.178 446.601 349.317C446.336 352.949 446.133 355.273 446.133 355.273C449.633 353.654 464.457 358.776 464.457 358.776L465.957 353.671L467.152 349.61C470.387 347.185 467.715 303.773 467.152 293.773C466.785 286.943 469.829 264.799 471.779 251.528C472.343 247.777 472.799 244.76 473.076 242.944C473.25 241.816 473.346 241.19 473.346 241.19C473.94 241.674 474.434 242.27 474.8 242.944C475.264 243.741 475.662 244.575 475.99 245.437C481.412 259.148 483.881 298.347 483.881 301.838V338.702C483.87 342.339 484.369 345.96 485.363 349.458C486.031 352.01 486.519 354.605 486.823 357.224C487.206 360.152 487.387 362.509 487.387 362.509C487.657 360.891 504.364 353.609 504.364 353.609V292.132C504.364 292.132 505.17 267.879 507.6 243.863C508.644 232.939 507.591 221.916 504.499 211.387C503.829 209.092 503.158 207.146 502.577 205.606C501.591 202.983 500.886 201.534 500.886 201.534H445.851C444.927 201.709 444.16 203.57 443.467 206.396C443.016 208.291 442.621 210.614 442.278 213.164C441.257 220.671 440.671 230.017 440.389 235.42C440.247 238.278 440.377 241.143 440.778 243.976Z" fill="#618FD8"/>
<g opacity="0.1">
<path opacity="0.1" d="M503.395 353.784V292.306C503.395 292.306 504.201 268.054 506.63 244.038C509.059 220.022 499.866 201.703 499.866 201.703H500.943C500.943 201.703 510.102 220.039 507.707 244.038C505.311 268.037 504.471 292.306 504.471 292.306V353.784C504.471 353.784 487.765 361.065 487.494 362.684C487.494 362.684 487.494 362.323 487.409 361.703C491.051 359.17 503.395 353.784 503.395 353.784Z" fill="black"/>
<path opacity="0.1" d="M447.751 355.104C447.242 355.114 446.74 355.217 446.268 355.408V355.138C446.761 355.088 447.256 355.077 447.751 355.104Z" fill="black"/>
<path opacity="0.1" d="M466.21 349.746C469.446 347.32 466.774 303.908 466.21 293.908C465.647 283.908 472.411 241.331 472.411 241.331C472.765 241.604 473.078 241.927 473.341 242.29C472.349 248.652 466.802 284.822 467.293 293.908C467.856 303.886 470.528 347.298 467.293 349.746L464.598 358.911L463.618 358.584L466.21 349.746Z" fill="black"/>
</g>
<path d="M451.792 134.974L446.155 154.929C446.155 154.929 440.226 160.569 435.378 154.929C430.531 149.289 427.544 134.168 427.251 130.93C426.957 127.693 422.668 110.976 421.05 110.976C419.433 110.976 403.267 112.053 401.379 105.335C399.868 99.9322 417.916 102.515 425.142 103.728C426.032 103.88 426.869 104.254 427.576 104.816C428.282 105.378 428.836 106.11 429.184 106.943L440.265 133.423C440.265 133.423 446.133 126.616 451.792 134.974Z" fill="#F7C4A7"/>
<path d="M488.17 88.5955C488.17 88.5955 481.164 108.28 490.059 115.29C498.953 122.301 458.252 124.19 458.252 124.19L463.775 118.934C463.775 118.934 467.681 103.429 464.987 90.4849L488.17 88.5955Z" fill="#F7C4A7"/>
<path opacity="0.1" d="M479.546 115.29C479.546 115.29 486.688 113.536 486.688 111.652L493.018 115.29H508.918C508.918 115.29 520.507 121.76 510.807 141.179C501.106 160.598 505.418 208.296 505.418 208.296C505.418 208.296 470.928 202.092 442.362 211.534C442.362 211.534 446.674 190.231 445.056 178.099C443.439 165.967 447.751 148.979 447.751 148.979L450.174 138.731C450.174 138.731 450.039 129.142 440.068 134.01C440.068 134.01 438.586 120.124 448.827 118.505C448.827 118.505 460.664 120.124 464.187 114.19C464.187 114.213 472.005 118.798 479.546 115.29Z" fill="black"/>
<path d="M479.546 114.754C479.546 114.754 486.688 113 486.688 111.117L491.327 113.784C492.435 114.42 493.691 114.754 494.968 114.754H506.089C507.251 114.751 508.398 115.025 509.434 115.552C510.47 116.08 511.365 116.846 512.047 117.789C514.6 121.382 516.889 128.466 510.807 140.643C501.106 160.056 505.418 207.761 505.418 207.761C505.418 207.761 470.928 201.556 442.362 210.998C442.362 210.998 446.674 189.695 445.056 177.563C443.439 165.431 447.751 148.483 447.751 148.483L450.174 138.234C450.174 138.234 450.039 128.646 440.068 133.514C440.068 133.514 438.625 120.011 448.404 118.082C448.676 118.022 448.956 118.003 449.233 118.026C451.324 118.246 461.07 118.951 464.192 113.666C464.187 113.672 472.005 118.257 479.546 114.754Z" fill="#E14B5A"/>
<path opacity="0.1" d="M506.765 139.289C506.765 139.289 498.141 144.681 484.129 139.289C484.129 139.289 468.769 133.649 463.916 122.572C459.063 111.494 488.435 124.461 488.435 124.461C488.435 124.461 494.635 124.461 496.518 123.113C498.401 121.765 511.613 133.356 506.765 139.289Z" fill="black"/>
<path d="M506.765 138.212C506.765 138.212 498.141 143.604 484.129 138.212C484.129 138.212 468.769 132.572 463.916 121.494C459.063 110.417 447.751 98.2853 447.751 98.2853C447.751 98.2853 428.079 90.7331 429.15 83.1866C430.221 75.6401 451.786 91.5453 451.786 91.5453L460.41 99.6333L488.435 123.361C488.435 123.361 494.635 123.361 496.518 122.013C498.401 120.665 511.613 132.278 506.765 138.212Z" fill="#F7C4A7"/>
<path opacity="0.1" d="M464.728 91.2914L487.9 89.402C486.709 92.9667 485.898 96.6477 485.482 100.383C482.788 103.178 479.105 104.804 475.226 104.909C471.346 105.015 467.581 103.592 464.739 100.947C465.33 97.7555 465.326 94.4819 464.728 91.2914Z" fill="black"/>
<path d="M475.105 104.1C483.289 104.1 489.923 97.4615 489.923 89.2723C489.923 81.083 483.289 74.4443 475.105 74.4443C466.921 74.4443 460.286 81.083 460.286 89.2723C460.286 97.4615 466.921 104.1 475.105 104.1Z" fill="#F7C4A7"/>
<path opacity="0.1" d="M483.238 92.4928C482.37 91.0602 484.135 89.1933 483.554 87.6254C483.019 86.1815 480.888 85.9333 480.172 84.5853C479.608 83.4968 480.172 82.1601 479.947 80.9587C479.625 79.4077 477.957 78.4432 476.373 78.3643C474.789 78.2853 473.262 78.8775 471.757 79.3851C469.305 80.2142 466.723 80.8516 464.153 80.5583C461.583 80.265 459.018 78.8662 457.874 76.5707C457.687 76.2363 457.588 75.8597 457.586 75.4765C457.632 74.6305 458.409 74.0495 458.911 73.3727C459.79 72.1939 459.892 70.5865 460.692 69.3569C462.327 66.8527 465.917 66.9148 468.905 66.9035C473.301 66.9035 477.675 66.08 482.072 66.2267C486.468 66.3733 491.09 67.6198 494.004 70.9249C497.499 74.9012 497.657 80.7218 497.628 86.0236C497.628 88.2063 497.538 90.5808 496.146 92.2672C495.74 92.7579 495.244 93.164 494.855 93.666C494.01 94.794 493.784 96.2379 492.99 97.3828C491.58 99.4189 488.83 99.9153 486.378 100.242C487.099 100.147 486.502 95.3129 486.378 94.8673C485.904 92.6451 485.392 92.6902 483.238 92.4928Z" fill="black"/>
<path d="M483.238 91.957C482.37 90.5244 484.135 88.6575 483.554 87.0896C483.019 85.6457 480.888 85.3975 480.172 84.0495C479.608 82.961 480.172 81.6243 479.947 80.4229C479.625 78.8719 477.957 77.9074 476.373 77.8284C474.789 77.7495 473.262 78.3417 471.757 78.8493C469.305 79.6784 466.723 80.3157 464.153 80.0224C461.583 79.7292 459.018 78.3304 457.874 76.0349C457.687 75.7005 457.588 75.3239 457.586 74.9407C457.632 74.0947 458.409 73.5137 458.911 72.8369C459.79 71.6581 459.892 70.0507 460.692 68.8211C462.327 66.3169 465.917 66.3789 468.905 66.3677C473.301 66.3677 477.675 65.5442 482.072 65.6908C486.468 65.8375 491.09 67.0839 494.004 70.3891C497.499 74.3654 497.657 80.186 497.628 85.4878C497.628 87.6705 497.538 90.045 496.146 91.7314C495.74 92.2221 495.244 92.6282 494.855 93.1301C494.01 94.2582 493.784 95.7021 492.99 96.847C491.58 98.8831 488.83 99.3794 486.378 99.7066C487.099 99.6107 486.502 94.7771 486.378 94.3315C485.904 92.0811 485.392 92.1488 483.238 91.957Z" fill="#281C1C"/>
<path opacity="0.1" d="M506.63 139.966C506.63 139.966 499.353 121.088 493.694 120.553C488.035 120.017 504.471 120.553 504.471 120.553L509.86 130.259L506.63 139.966Z" fill="black"/>
<path d="M507.171 139.966C507.171 139.966 499.894 121.088 494.235 120.553C488.576 120.017 505.012 120.553 505.012 120.553L510.401 130.259L507.171 139.966Z" fill="#E14B5A"/>
<path d="M486.801 357.27C487.184 360.197 487.364 362.554 487.364 362.554C487.635 360.936 504.342 353.654 504.342 353.654V349.272C503.916 349.256 503.49 349.277 503.068 349.334C499.827 349.768 496.822 351.342 494.049 353.023C491.707 354.561 489.288 355.978 486.801 357.27Z" fill="#618FD8"/>
<path opacity="0.3" d="M486.801 357.27C487.184 360.197 487.364 362.554 487.364 362.554C487.635 360.936 504.342 353.654 504.342 353.654V349.272C503.916 349.256 503.49 349.277 503.068 349.334C499.827 349.768 496.822 351.342 494.049 353.023C491.707 354.561 489.288 355.978 486.801 357.27Z" fill="black"/>
<path d="M446.133 355.273C449.633 353.654 464.457 358.776 464.457 358.776L465.957 353.671C463.369 353.147 460.799 352.493 458.274 351.714C457.095 351.373 455.942 350.947 454.824 350.439C454.078 350.04 453.31 349.683 452.525 349.368C450.591 348.702 448.579 348.984 446.595 349.317C446.336 352.949 446.133 355.273 446.133 355.273Z" fill="#618FD8"/>
<path opacity="0.3" d="M446.133 355.273C449.633 353.654 464.457 358.776 464.457 358.776L465.957 353.671C463.369 353.147 460.799 352.493 458.274 351.714C457.095 351.373 455.942 350.947 454.824 350.439C454.078 350.04 453.31 349.683 452.525 349.368C450.591 348.702 448.579 348.984 446.595 349.317C446.336 352.949 446.133 355.273 446.133 355.273Z" fill="black"/>
<path opacity="0.4" d="M519.295 370.643C519.521 370.546 519.721 370.399 519.881 370.214C520.042 370.028 520.157 369.808 520.22 369.571C520.32 369.943 520.282 370.339 520.112 370.684C519.941 371.03 519.651 371.302 519.295 371.449C516.06 373.068 497.471 374.145 488.294 367.134V366.328C497.471 373.338 516.06 372.261 519.295 370.643Z" fill="white"/>
<path opacity="0.4" d="M435.491 371.72C441.128 373.068 461.363 370.101 463.246 366.864V367.67C461.357 370.908 441.15 373.874 435.491 372.526C433.18 371.962 432.442 370.834 432.673 369.599C432.853 370.513 433.699 371.268 435.491 371.72Z" fill="white"/>
<path opacity="0.1" d="M468.364 175.29C468.364 175.29 462.434 173.401 460.816 175.29C459.199 177.18 445.372 181.607 445.372 181.607" fill="black"/>
<path d="M401.272 101.201H430.103V100.592H401.272V101.201Z" fill="#8ED16F"/>
<path d="M401.272 101.81H430.103V101.201H401.272V101.81Z" fill="#8ED16F"/>
<path opacity="0.1" d="M401.272 101.81H430.103V101.201H401.272V101.81Z" fill="black"/>
<path d="M401.272 102.419H430.103V101.81H401.272V102.419Z" fill="#8ED16F"/>
<path d="M401.272 103.023H430.103V102.414H401.272V103.023Z" fill="#8ED16F"/>
<path opacity="0.1" d="M401.272 103.023H430.103V102.414H401.272V103.023Z" fill="black"/>
<path d="M401.272 103.632H430.103V103.023H401.272V103.632Z" fill="#8ED16F"/>
<path d="M401.272 104.236H430.103V103.626H401.272V104.236Z" fill="#8ED16F"/>
<path opacity="0.1" d="M401.272 104.236H430.103V103.626H401.272V104.236Z" fill="black"/>
<path d="M401.272 104.845H430.103V104.236H401.272V104.845Z" fill="#8ED16F"/>
<path d="M401.272 105.448H430.103V104.839H401.272V105.448Z" fill="#8ED16F"/>
<path opacity="0.1" d="M401.272 105.448H430.103V104.839H401.272V105.448Z" fill="black"/>
<path d="M401.272 96.3507H430.103V95.7416H401.272V96.3507Z" fill="#8ED16F"/>
<path d="M421.665 81.929L443.831 100.376L444.22 99.9081L422.054 81.4607L421.665 81.929Z" fill="#8ED16F"/>
<path d="M401.455 72.2235L423.622 90.6709L424.011 90.2026L401.845 71.7552L401.455 72.2235Z" fill="#8ED16F"/>
<path d="M401.272 96.9542H430.103V96.345H401.272V96.9542Z" fill="#8ED16F"/>
<path opacity="0.1" d="M401.272 96.9542H430.103V96.345H401.272V96.9542Z" fill="black"/>
<path d="M401.272 97.569H430.103V96.9598H401.272V97.569Z" fill="#8ED16F"/>
<path d="M401.272 98.1724H430.103V97.5633H401.272V98.1724Z" fill="#8ED16F"/>
<path opacity="0.1" d="M401.272 98.1724H430.103V97.5633H401.272V98.1724Z" fill="black"/>
<path d="M401.272 98.7759H430.103V98.1668H401.272V98.7759Z" fill="#8ED16F"/>
<path d="M401.272 99.3851H430.103V98.7759H401.272V99.3851Z" fill="#8ED16F"/>
<path opacity="0.1" d="M401.272 99.3851H430.103V98.7759H401.272V99.3851Z" fill="black"/>
<path d="M401.272 99.9886H430.103V99.3795H401.272V99.9886Z" fill="#8ED16F"/>
<path d="M401.272 100.598H430.103V99.9886H401.272V100.598Z" fill="#8ED16F"/>
<path opacity="0.1" d="M401.272 100.598H430.103V99.9886H401.272V100.598Z" fill="black"/>
<path d="M397.617 124.248L407.947 126.168L411.686 106.022L401.356 104.102L397.617 124.248Z" fill="#8ED16F"/>
<path d="M406.912 115.593C407.347 113.25 406.752 111.174 405.583 110.957C404.413 110.74 403.113 112.463 402.678 114.806C402.244 117.149 402.839 119.224 404.008 119.441C405.177 119.659 406.477 117.936 406.912 115.593Z" fill="#8ED16F"/>
<path opacity="0.1" d="M406.912 115.593C407.347 113.25 406.752 111.174 405.583 110.957C404.413 110.74 403.113 112.463 402.678 114.806C402.244 117.149 402.839 119.224 404.008 119.441C405.177 119.659 406.477 117.936 406.912 115.593Z" fill="black"/>
<path d="M399.385 166.772L409.714 168.691L413.453 148.545L403.123 146.625L399.385 166.772Z" fill="#8ED16F"/>
<path d="M408.674 158.111C409.109 155.768 408.514 153.693 407.345 153.476C406.176 153.258 404.875 154.982 404.44 157.324C404.006 159.667 404.601 161.743 405.77 161.96C406.939 162.177 408.24 160.454 408.674 158.111Z" fill="#8ED16F"/>
<path opacity="0.1" d="M408.674 158.111C409.109 155.768 408.514 153.693 407.345 153.476C406.176 153.258 404.875 154.982 404.44 157.324C404.006 159.667 404.601 161.743 405.77 161.96C406.939 162.177 408.24 160.454 408.674 158.111Z" fill="black"/>
<path d="M362.022 62.2507L357.022 71.4969L375.032 81.2491L380.032 72.0029L362.022 62.2507Z" fill="#8ED16F"/>
<path d="M374.075 74.2176C374.646 73.1705 373.41 71.3944 371.314 70.2506C369.219 69.1068 367.057 69.0284 366.486 70.0755C365.915 71.1226 367.152 72.8987 369.247 74.0426C371.343 75.1864 373.505 75.2647 374.075 74.2176Z" fill="#8ED16F"/>
<path opacity="0.1" d="M374.075 74.2176C374.646 73.1705 373.41 71.3944 371.314 70.2506C369.219 69.1068 367.057 69.0284 366.486 70.0755C365.915 71.1226 367.152 72.8987 369.247 74.0426C371.343 75.1864 373.505 75.2647 374.075 74.2176Z" fill="black"/>
<path d="M322.478 244.723L317.477 253.969L335.487 263.721L340.487 254.475L322.478 244.723Z" fill="#8ED16F"/>
<path d="M332.716 256.399C333.282 255.353 332.043 253.585 329.949 252.451C327.854 251.317 325.698 251.246 325.132 252.292C324.566 253.339 325.805 255.106 327.899 256.241C329.994 257.375 332.15 257.446 332.716 256.399Z" fill="#8ED16F"/>
<path opacity="0.1" d="M332.716 256.399C333.282 255.353 332.043 253.585 329.949 252.451C327.854 251.317 325.698 251.246 325.132 252.292C324.566 253.339 325.805 255.106 327.899 256.241C329.994 257.375 332.15 257.446 332.716 256.399Z" fill="black"/>
<path d="M298.283 94.1407L293.283 103.387L311.292 113.139L316.293 103.893L298.283 94.1407Z" fill="#8ED16F"/>
<path d="M308.517 105.809C309.083 104.762 307.844 102.994 305.749 101.86C303.655 100.726 301.498 100.655 300.932 101.702C300.366 102.748 301.605 104.516 303.7 105.65C305.794 106.784 307.951 106.855 308.517 105.809Z" fill="#8ED16F"/>
<path opacity="0.1" d="M308.517 105.809C309.083 104.762 307.844 102.994 305.749 101.86C303.655 100.726 301.498 100.655 300.932 101.702C300.366 102.748 301.605 104.516 303.7 105.65C305.794 106.784 307.951 106.855 308.517 105.809Z" fill="black"/>
<path d="M328.607 62.2483L323.607 71.4945L341.616 81.2467L346.617 72.0005L328.607 62.2483Z" fill="#8ED16F"/>
<path d="M338.841 73.9162C339.407 72.8697 338.168 71.102 336.073 69.9678C333.979 68.8337 331.822 68.7627 331.256 69.8092C330.69 70.8557 331.929 72.6235 334.024 73.7576C336.118 74.8917 338.275 74.9628 338.841 73.9162Z" fill="#8ED16F"/>
<path opacity="0.1" d="M338.841 73.9162C339.407 72.8697 338.168 71.102 336.073 69.9678C333.979 68.8337 331.822 68.7627 331.256 69.8092C330.69 70.8557 331.929 72.6235 334.024 73.7576C336.118 74.8917 338.275 74.9628 338.841 73.9162Z" fill="black"/>
<path d="M358.883 99.8793L348.438 101.022L350.664 121.391L361.108 120.249L358.883 99.8793Z" fill="#8ED16F"/>
<path d="M355.104 114.942C356.286 114.812 357.035 112.787 356.776 110.418C356.517 108.05 355.349 106.234 354.167 106.363C352.985 106.493 352.236 108.518 352.495 110.887C352.754 113.256 353.922 115.071 355.104 114.942Z" fill="#8ED16F"/>
<path opacity="0.1" d="M355.104 114.942C356.286 114.812 357.035 112.787 356.776 110.418C356.517 108.05 355.349 106.234 354.167 106.363C352.985 106.493 352.236 108.518 352.495 110.887C352.754 113.256 353.922 115.071 355.104 114.942Z" fill="black"/>
<path d="M430.49 211.418L420.046 212.56L422.272 232.93L432.716 231.787L430.49 211.418Z" fill="#8ED16F"/>
<path d="M426.717 226.48C427.899 226.351 428.647 224.326 428.388 221.957C428.129 219.588 426.961 217.773 425.779 217.902C424.597 218.031 423.849 220.056 424.108 222.425C424.366 224.794 425.534 226.61 426.717 226.48Z" fill="#8ED16F"/>
<path opacity="0.1" d="M426.717 226.48C427.899 226.351 428.647 224.326 428.388 221.957C428.129 219.588 426.961 217.773 425.779 217.902C424.597 218.031 423.849 220.056 424.108 222.425C424.366 224.794 425.534 226.61 426.717 226.48Z" fill="black"/>
<path d="M317.986 143.149L312.985 152.395L330.995 162.147L335.996 152.901L317.986 143.149Z" fill="#8ED16F"/>
<path d="M328.216 154.824C328.782 153.778 327.543 152.01 325.449 150.876C323.354 149.742 321.198 149.671 320.632 150.717C320.066 151.764 321.305 153.532 323.399 154.666C325.494 155.8 327.65 155.871 328.216 154.824Z" fill="#8ED16F"/>
<path opacity="0.1" d="M328.216 154.824C328.782 153.778 327.543 152.01 325.449 150.876C323.354 149.742 321.198 149.671 320.632 150.717C320.066 151.764 321.305 153.532 323.399 154.666C325.494 155.8 327.65 155.871 328.216 154.824Z" fill="black"/>
<path d="M272.539 130.161L267.539 139.407L285.548 149.159L290.549 139.913L272.539 130.161Z" fill="#8ED16F"/>
<path d="M284.269 142.45C284.839 141.403 283.603 139.627 281.508 138.483C279.412 137.339 277.25 137.261 276.68 138.308C276.109 139.355 277.345 141.131 279.441 142.275C281.536 143.419 283.698 143.497 284.269 142.45Z" fill="#8ED16F"/>
<path opacity="0.1" d="M284.269 142.45C284.839 141.403 283.603 139.627 281.508 138.483C279.412 137.339 277.25 137.261 276.68 138.308C276.109 139.355 277.345 141.131 279.441 142.275C281.536 143.419 283.698 143.497 284.269 142.45Z" fill="black"/>
<path d="M257.984 348.833L252.983 358.079L270.993 367.832L275.993 358.585L257.984 348.833Z" fill="#8ED16F"/>
<path d="M268.217 360.504C268.783 359.457 267.544 357.689 265.449 356.555C263.355 355.421 261.198 355.35 260.632 356.397C260.066 357.443 261.305 359.211 263.4 360.345C265.494 361.479 267.651 361.55 268.217 360.504Z" fill="#8ED16F"/>
<path opacity="0.1" d="M268.217 360.504C268.783 359.457 267.544 357.689 265.449 356.555C263.355 355.421 261.198 355.35 260.632 356.397C260.066 357.443 261.305 359.211 263.4 360.345C265.494 361.479 267.651 361.55 268.217 360.504Z" fill="black"/>
<path d="M244.88 352.397L242.964 362.734L263.098 366.472L265.014 356.135L244.88 352.397Z" fill="#8ED16F"/>
<path opacity="0.05" d="M244.88 352.397L242.964 362.734L263.098 366.472L265.014 356.135L244.88 352.397Z" fill="black"/>
<path d="M258.208 360.352C258.425 359.182 256.703 357.882 254.362 357.447C252.02 357.012 249.946 357.608 249.729 358.778C249.512 359.948 251.235 361.249 253.576 361.684C255.918 362.118 257.992 361.522 258.208 360.352Z" fill="#8ED16F"/>
<path opacity="0.1" d="M258.208 360.352C258.425 359.182 256.703 357.882 254.362 357.447C252.02 357.012 249.946 357.608 249.729 358.778C249.512 359.948 251.235 361.249 253.576 361.684C255.918 362.118 257.992 361.522 258.208 360.352Z" fill="black"/>
<path d="M246.767 358.596L244.85 368.933L264.984 372.671L266.901 362.334L246.767 358.596Z" fill="#8ED16F"/>
<path d="M260.089 366.551C260.306 365.381 258.584 364.081 256.242 363.646C253.901 363.211 251.827 363.807 251.61 364.977C251.393 366.147 253.115 367.448 255.457 367.883C257.798 368.317 259.872 367.721 260.089 366.551Z" fill="#8ED16F"/>
<path opacity="0.1" d="M260.089 366.551C260.306 365.381 258.584 364.081 256.242 363.646C253.901 363.211 251.827 363.807 251.61 364.977C251.393 366.147 253.115 367.448 255.457 367.883C257.798 368.317 259.872 367.721 260.089 366.551Z" fill="black"/>
<path d="M279.227 375.409L274.227 384.655L292.237 394.407L297.237 385.161L279.227 375.409Z" fill="#8ED16F"/>
<path d="M289.466 387.079C290.032 386.033 288.793 384.265 286.698 383.131C284.604 381.997 282.447 381.926 281.881 382.972C281.315 384.019 282.555 385.786 284.649 386.921C286.743 388.055 288.9 388.126 289.466 387.079Z" fill="#8ED16F"/>
<path opacity="0.1" d="M289.466 387.079C290.032 386.033 288.793 384.265 286.698 383.131C284.604 381.997 282.447 381.926 281.881 382.972C281.315 384.019 282.555 385.786 284.649 386.921C286.743 388.055 288.9 388.126 289.466 387.079Z" fill="black"/>
<path d="M266.128 378.965L264.212 389.302L284.346 393.04L286.262 382.703L266.128 378.965Z" fill="#8ED16F"/>
<path opacity="0.05" d="M266.128 378.965L264.212 389.302L284.346 393.04L286.262 382.703L266.128 378.965Z" fill="black"/>
<path d="M279.451 386.921C279.667 385.751 277.945 384.45 275.604 384.015C273.262 383.581 271.188 384.177 270.971 385.347C270.754 386.517 272.477 387.817 274.818 388.252C277.16 388.687 279.234 388.091 279.451 386.921Z" fill="#8ED16F"/>
<path opacity="0.1" d="M279.451 386.921C279.667 385.751 277.945 384.45 275.604 384.015C273.262 383.581 271.188 384.177 270.971 385.347C270.754 386.517 272.477 387.817 274.818 388.252C277.16 388.687 279.234 388.091 279.451 386.921Z" fill="black"/>
<path d="M268.013 385.171L266.097 395.508L286.231 399.245L288.147 388.909L268.013 385.171Z" fill="#8ED16F"/>
<path d="M281.341 393.126C281.558 391.956 279.836 390.655 277.495 390.221C275.153 389.786 273.079 390.382 272.862 391.552C272.645 392.722 274.368 394.023 276.709 394.458C279.051 394.892 281.125 394.296 281.341 393.126Z" fill="#8ED16F"/>
<path opacity="0.1" d="M281.341 393.126C281.558 391.956 279.836 390.655 277.495 390.221C275.153 389.786 273.079 390.382 272.862 391.552C272.645 392.722 274.368 394.023 276.709 394.458C279.051 394.892 281.125 394.296 281.341 393.126Z" fill="black"/>
<path d="M311.101 358.282L306.1 367.528L324.11 377.28L329.111 368.034L311.101 358.282Z" fill="#8ED16F"/>
<path d="M321.329 369.95C321.895 368.904 320.656 367.136 318.561 366.002C316.467 364.868 314.31 364.797 313.744 365.843C313.178 366.89 314.418 368.657 316.512 369.791C318.606 370.926 320.763 370.997 321.329 369.95Z" fill="#8ED16F"/>
<path opacity="0.1" d="M321.329 369.95C321.895 368.904 320.656 367.136 318.561 366.002C316.467 364.868 314.31 364.797 313.744 365.843C313.178 366.89 314.418 368.657 316.512 369.791C318.606 370.926 320.763 370.997 321.329 369.95Z" fill="black"/>
<path d="M297.999 361.842L296.082 372.179L316.216 375.917L318.133 365.58L297.999 361.842Z" fill="#8ED16F"/>
<path opacity="0.05" d="M297.999 361.842L296.082 372.179L316.216 375.917L318.133 365.58L297.999 361.842Z" fill="black"/>
<path d="M311.321 369.798C311.538 368.628 309.816 367.327 307.474 366.892C305.133 366.457 303.059 367.054 302.842 368.223C302.625 369.393 304.347 370.694 306.689 371.129C309.03 371.564 311.104 370.967 311.321 369.798Z" fill="#8ED16F"/>
<path opacity="0.1" d="M311.321 369.798C311.538 368.628 309.816 367.327 307.474 366.892C305.133 366.457 303.059 367.054 302.842 368.223C302.625 369.393 304.347 370.694 306.689 371.129C309.03 371.564 311.104 370.967 311.321 369.798Z" fill="black"/>
<path d="M299.884 368.047L297.968 378.384L318.102 382.121L320.018 371.784L299.884 368.047Z" fill="#8ED16F"/>
<path d="M313.212 376.003C313.429 374.833 311.707 373.532 309.365 373.098C307.024 372.663 304.95 373.259 304.733 374.429C304.516 375.599 306.238 376.9 308.58 377.334C310.921 377.769 312.995 377.173 313.212 376.003Z" fill="#8ED16F"/>
<path opacity="0.1" d="M313.212 376.003C313.429 374.833 311.707 373.532 309.365 373.098C307.024 372.663 304.95 373.259 304.733 374.429C304.516 375.599 306.238 376.9 308.58 377.334C310.921 377.769 312.995 377.173 313.212 376.003Z" fill="black"/>
</g>
<defs>
<linearGradient id="paint0_linear" x1="260.251" y1="350.011" x2="260.251" y2="149.723" gradientUnits="userSpaceOnUse">
<stop stop-color="#808080" stop-opacity="0.25"/>
<stop offset="0.54" stop-color="#808080" stop-opacity="0.12"/>
<stop offset="1" stop-color="#808080" stop-opacity="0.1"/>
</linearGradient>
<linearGradient id="paint1_linear" x1="-362148" y1="236097" x2="-362148" y2="64103.9" gradientUnits="userSpaceOnUse">
<stop stop-color="#808080" stop-opacity="0.25"/>
<stop offset="0.54" stop-color="#808080" stop-opacity="0.12"/>
<stop offset="1" stop-color="#808080" stop-opacity="0.1"/>
</linearGradient>
<clipPath id="clip0">
<rect width="549" height="403" fill="white"/>
</clipPath>
</defs>
</svg>
