<svg width="449" height="374" viewBox="0 0 449 374" fill="none" xmlns="http://www.w3.org/2000/svg">
<path d="M306.741 3.73748e-05L0 181.363L9.22501 196.897L315.966 15.5339L306.741 3.73748e-05Z" fill="#DDE6F7"/>
<path d="M373.41 15.2052L66.6693 196.568L75.8943 212.102L382.635 30.739L373.41 15.2052Z" fill="#DDE6F7"/>
<path d="M432.46 31.8359L125.719 213.199L134.944 228.733L441.685 47.3697L432.46 31.8359Z" fill="#DDE6F7"/>
<path d="M199.796 212.601C252.836 212.601 295.833 169.699 295.833 116.775C295.833 63.8523 252.836 20.9496 199.796 20.9496C146.757 20.9496 103.76 63.8523 103.76 116.775C103.76 169.699 146.757 212.601 199.796 212.601Z" fill="white"/>
<path d="M103.045 116.776C103.045 63.544 146.448 20.2369 199.796 20.2369C253.145 20.2369 296.548 63.544 296.548 116.776C296.548 170.007 253.145 213.314 199.796 213.314C146.448 213.314 103.045 170.007 103.045 116.776ZM104.474 116.776C104.474 169.221 147.235 211.889 199.796 211.889C252.358 211.889 295.119 169.221 295.119 116.776C295.119 64.3301 252.357 21.6624 199.796 21.6624C147.235 21.6624 104.474 64.3301 104.474 116.776H104.474Z" fill="#3F3D56"/>
<path d="M182.677 117.192C182.677 113.814 183.681 110.511 185.562 107.702C187.443 104.893 190.117 102.703 193.245 101.41C196.373 100.118 199.815 99.7792 203.136 100.438C206.457 101.097 209.508 102.724 211.902 105.113C214.296 107.502 215.927 110.546 216.587 113.86C217.248 117.173 216.909 120.608 215.613 123.729C214.317 126.85 212.123 129.518 209.308 131.395C206.492 133.272 203.182 134.274 199.796 134.274C195.256 134.274 190.902 132.474 187.691 129.271C184.48 126.067 182.677 121.723 182.677 117.192V117.192ZM199.796 100.943C195.479 100.948 191.34 102.662 188.287 105.708C185.234 108.754 183.517 112.884 183.512 117.192V117.192C183.512 120.406 184.467 123.547 186.256 126.22C188.046 128.892 190.589 130.974 193.565 132.204C196.54 133.434 199.814 133.756 202.973 133.129C206.132 132.502 209.034 130.954 211.311 128.682C213.589 126.409 215.14 123.514 215.768 120.362C216.396 117.21 216.074 113.943 214.841 110.974C213.609 108.005 211.522 105.467 208.844 103.682C206.166 101.896 203.017 100.943 199.796 100.943V100.943Z" fill="#3F3D56"/>
<path d="M167.227 117.192C167.227 110.765 169.137 104.482 172.716 99.1374C176.295 93.7932 181.382 89.628 187.333 87.1683C193.284 84.7087 199.832 84.0651 206.15 85.319C212.468 86.573 218.271 89.668 222.826 94.2129C227.381 98.7578 230.483 104.548 231.74 110.852C232.996 117.156 232.351 123.69 229.886 129.628C227.421 135.566 223.247 140.642 217.891 144.213C212.535 147.784 206.238 149.69 199.796 149.69C195.519 149.69 191.284 148.849 187.333 147.216C183.381 145.583 179.791 143.189 176.767 140.171C173.742 137.154 171.343 133.571 169.706 129.628C168.07 125.686 167.227 121.46 167.227 117.192V117.192ZM199.796 85.5278C193.52 85.5278 187.385 87.3849 182.166 90.8642C176.947 94.3435 172.88 99.2888 170.478 105.075C168.076 110.861 167.448 117.227 168.672 123.369C169.897 129.512 172.919 135.154 177.357 139.582C181.795 144.01 187.45 147.026 193.605 148.248C199.761 149.47 206.142 148.843 211.94 146.446C217.739 144.049 222.695 139.991 226.182 134.784C229.669 129.577 231.53 123.455 231.53 117.192C231.521 108.797 228.174 100.749 222.225 94.8125C216.276 88.8764 208.21 85.5373 199.796 85.5278Z" fill="#CCCCCC"/>
<path d="M136.328 117.192C136.328 104.667 140.051 92.423 147.025 82.0087C153.999 71.5944 163.911 63.4774 175.508 58.6843C187.106 53.8911 199.867 52.637 212.178 55.0805C224.49 57.5241 235.799 63.5555 244.675 72.4121C253.551 81.2688 259.596 92.5528 262.045 104.837C264.494 117.122 263.237 129.855 258.433 141.427C253.629 152.999 245.495 162.889 235.057 169.848C224.62 176.806 212.349 180.521 199.796 180.521C182.97 180.502 166.837 173.823 154.939 161.951C143.04 150.079 136.347 133.982 136.328 117.192V117.192ZM199.796 54.697C187.409 54.697 175.299 58.3622 164.999 65.2293C154.7 72.0964 146.672 81.8568 141.931 93.2763C137.191 104.696 135.95 117.261 138.367 129.384C140.784 141.507 146.749 152.643 155.508 161.383C164.268 170.123 175.428 176.075 187.577 178.486C199.727 180.898 212.32 179.66 223.765 174.93C235.21 170.2 244.992 162.19 251.874 151.913C258.756 141.635 262.429 129.553 262.429 117.192C262.41 100.623 255.806 84.7381 244.064 73.0221C232.322 61.306 216.402 54.7157 199.796 54.697V54.697Z" fill="#CCCCCC"/>
<path d="M199.797 124.691C204.178 124.691 207.73 121.147 207.73 116.775C207.73 112.404 204.178 108.859 199.797 108.859C195.415 108.859 191.863 112.404 191.863 116.775C191.863 121.147 195.415 124.691 199.797 124.691Z" fill="#479AFF"/>
<path d="M179.336 147.607C183.718 147.607 187.27 144.062 187.27 139.69C187.27 135.319 183.718 131.774 179.336 131.774C174.955 131.774 171.403 135.319 171.403 139.69C171.403 144.062 174.955 147.607 179.336 147.607Z" fill="#479AFF"/>
<path d="M259.158 144.273C263.539 144.273 267.091 140.729 267.091 136.357C267.091 131.985 263.539 128.441 259.158 128.441C254.776 128.441 251.224 131.985 251.224 136.357C251.224 140.729 254.776 144.273 259.158 144.273Z" fill="#479AFF"/>
<path d="M199.797 120.525C201.872 120.525 203.555 118.846 203.555 116.776C203.555 114.705 201.872 113.026 199.797 113.026C197.721 113.026 196.039 114.705 196.039 116.776C196.039 118.846 197.721 120.525 199.797 120.525Z" fill="#2F2E41"/>
<path d="M259.158 140.107C261.233 140.107 262.916 138.428 262.916 136.357C262.916 134.286 261.233 132.608 259.158 132.608C257.082 132.608 255.4 134.286 255.4 136.357C255.4 138.428 257.082 140.107 259.158 140.107Z" fill="#2F2E41"/>
<path d="M179.336 143.857C181.412 143.857 183.094 142.178 183.094 140.107C183.094 138.036 181.412 136.357 179.336 136.357C177.261 136.357 175.578 138.036 175.578 140.107C175.578 142.178 177.261 143.857 179.336 143.857Z" fill="#2F2E41"/>
<path d="M24.4246 78.4451C26.5001 78.4451 28.1825 76.7663 28.1825 74.6954C28.1825 72.6245 26.5001 70.9457 24.4246 70.9457C22.3491 70.9457 20.6666 72.6245 20.6666 74.6954C20.6666 76.7663 22.3491 78.4451 24.4246 78.4451Z" fill="#479AFF"/>
<path d="M199.588 74.9041H34.6543V74.0708H200.423V116.984H199.588V74.9041Z" fill="#2F2E41"/>
<path d="M13.5682 74.6954C13.5682 72.553 14.2049 70.4586 15.3979 68.6772C16.5908 66.8958 18.2863 65.5074 20.27 64.6875C22.2538 63.8676 24.4366 63.6531 26.5426 64.0711C28.6485 64.489 30.5829 65.5207 32.1012 67.0357C33.6195 68.5506 34.6535 70.4808 35.0723 72.5821C35.4912 74.6834 35.2763 76.8614 34.4546 78.8408C33.6329 80.8202 32.2414 82.512 30.4561 83.7023C28.6708 84.8926 26.5718 85.5279 24.4246 85.5279C22.9989 85.5279 21.5872 85.2477 20.2701 84.7034C18.9529 84.159 17.7561 83.3611 16.748 82.3552C15.7399 81.3493 14.9402 80.1551 14.3946 78.8409C13.849 77.5266 13.5682 76.118 13.5682 74.6954V74.6954ZM24.4246 64.6962C22.4426 64.6962 20.5051 65.2827 18.8571 66.3814C17.2091 67.4801 15.9247 69.0418 15.1662 70.8689C14.4077 72.696 14.2092 74.7065 14.5959 76.6462C14.9826 78.5858 15.937 80.3675 17.3385 81.766C18.74 83.1644 20.5256 84.1167 22.4695 84.5025C24.4135 84.8883 26.4284 84.6903 28.2596 83.9335C30.0907 83.1767 31.6558 81.8951 32.757 80.2507C33.8581 78.6063 34.4458 76.6731 34.4458 74.6954C34.4428 72.0444 33.386 69.5028 31.5073 67.6283C29.6286 65.7537 27.0815 64.6993 24.4246 64.6962V64.6962Z" fill="#2F2E41"/>
<path d="M49.4777 186.353C51.5532 186.353 53.2357 184.675 53.2357 182.604C53.2357 180.533 51.5532 178.854 49.4777 178.854C47.4022 178.854 45.7197 180.533 45.7197 182.604C45.7197 184.675 47.4022 186.353 49.4777 186.353Z" fill="#479AFF"/>
<path d="M38.6213 182.604C38.6213 180.461 39.258 178.367 40.451 176.586C41.6439 174.804 43.3394 173.416 45.3231 172.596C47.3069 171.776 49.4897 171.561 51.5957 171.979C53.7016 172.397 55.636 173.429 57.1543 174.944C58.6726 176.459 59.7065 178.389 60.1254 180.49C60.5443 182.592 60.3293 184.77 59.5076 186.749C58.686 188.729 57.2945 190.42 55.5092 191.611C53.7238 192.801 51.6249 193.436 49.4777 193.436C46.5984 193.436 43.8371 192.295 41.8011 190.263C39.7651 188.232 38.6213 185.477 38.6213 182.604V182.604ZM49.4777 172.605C47.4957 172.605 45.5582 173.191 43.9102 174.29C42.2622 175.388 40.9777 176.95 40.2193 178.777C39.4608 180.604 39.2623 182.615 39.649 184.554C40.0356 186.494 40.9901 188.276 42.3916 189.674C43.7931 191.073 45.5787 192.025 47.5226 192.411C49.4665 192.797 51.4815 192.599 53.3126 191.842C55.1438 191.085 56.7089 189.803 57.81 188.159C58.9112 186.515 59.4989 184.581 59.4989 182.604C59.4959 179.953 58.4391 177.411 56.5604 175.537C54.6817 173.662 52.1345 172.608 49.4777 172.605Z" fill="#2F2E41"/>
<path d="M375.654 95.9438C377.73 95.9438 379.412 94.265 379.412 92.194C379.412 90.1231 377.73 88.4443 375.654 88.4443C373.579 88.4443 371.896 90.1231 371.896 92.194C371.896 94.265 373.579 95.9438 375.654 95.9438Z" fill="#479AFF"/>
<path d="M364.798 92.1941C364.798 90.0516 365.435 87.9572 366.628 86.1759C367.821 84.3945 369.516 83.006 371.5 82.1862C373.484 81.3663 375.667 81.1517 377.773 81.5697C379.879 81.9877 381.813 83.0194 383.331 84.5343C384.85 86.0493 385.884 87.9794 386.302 90.0807C386.721 92.182 386.506 94.3601 385.685 96.3395C384.863 98.3189 383.471 100.011 381.686 101.201C379.901 102.391 377.802 103.027 375.655 103.027C374.229 103.027 372.817 102.746 371.5 102.202C370.183 101.658 368.986 100.86 367.978 99.8538C366.97 98.8479 366.17 97.6537 365.625 96.3395C365.079 95.0252 364.798 93.6166 364.798 92.1941V92.1941ZM375.655 82.1949C372.998 82.1979 370.451 83.2524 368.572 85.1269C366.693 87.0015 365.637 89.543 365.633 92.1941V92.1941C365.633 94.1717 366.221 96.105 367.322 97.7493C368.424 99.3937 369.989 100.675 371.82 101.432C373.651 102.189 375.666 102.387 377.61 102.001C379.554 101.615 381.339 100.663 382.741 99.2646C384.142 97.8661 385.097 96.0845 385.483 94.1448C385.87 92.2051 385.672 90.1946 384.913 88.3675C384.155 86.5404 382.87 84.9787 381.222 83.88C379.574 82.7813 377.637 82.1948 375.655 82.1948V82.1949Z" fill="#2F2E41"/>
<path d="M258.74 93.4504L365.209 91.7776L365.222 92.6103L259.575 94.2707V136.357H258.74V93.4504Z" fill="#2F2E41"/>
<path d="M59.9167 182.187H178.919V140.107H179.754V183.02H59.9167V182.187Z" fill="#2F2E41"/>
<path d="M47.39 94.2772H1.45923V97.1937H47.39V94.2772Z" fill="#CCCCCC"/>
<path d="M47.39 102.61H1.45923V105.526H47.39V102.61Z" fill="#CCCCCC"/>
<path d="M47.39 110.943H1.45923V113.859H47.39V110.943Z" fill="#CCCCCC"/>
<path d="M72.4431 202.186H26.5123V205.102H72.4431V202.186Z" fill="#CCCCCC"/>
<path d="M72.4431 210.518H26.5123V213.435H72.4431V210.518Z" fill="#CCCCCC"/>
<path d="M72.4431 218.851H26.5123V221.767H72.4431V218.851Z" fill="#CCCCCC"/>
<path d="M398.62 112.193H352.689V115.109H398.62V112.193Z" fill="#CCCCCC"/>
<path d="M398.62 120.525H352.689V123.442H398.62V120.525Z" fill="#CCCCCC"/>
<path d="M398.62 128.858H352.689V131.774H398.62V128.858Z" fill="#CCCCCC"/>
</svg>
