<svg width="503" height="284" viewBox="0 0 503 284" fill="none" xmlns="http://www.w3.org/2000/svg">
<g clip-path="url(#clip0)">
<path opacity="0.1" d="M280.043 38.7343C251.023 38.5671 223.207 31.1341 196.614 22.9026C170.021 14.671 143.664 5.50166 115.241 1.47178C96.9616 -1.10957 76.1298 -1.03065 61.6662 7.77659C47.749 16.2542 43.5252 30.4052 41.3902 43.4931C39.7785 53.3403 38.9449 63.6842 44.2246 72.7422C47.888 79.0284 54.2468 84.2329 58.7068 90.2313C74.2171 111.1 64.2644 137.541 48.5178 158.67C41.1077 168.582 32.5119 178.076 26.8802 188.569C21.2485 199.061 18.8171 210.998 24.2172 221.43C29.571 231.774 41.9182 239.342 55.2194 244.555C82.2386 255.136 113.834 257.583 144.604 258.655C212.736 261.032 281.09 257.625 349.258 254.222C374.49 252.959 399.828 251.687 424.578 247.722C438.323 245.512 452.491 242.183 462.328 234.75C474.832 225.307 477.611 209.772 468.811 198.537C454.065 179.683 414.449 175.871 403.973 155.508C398.202 144.296 403.537 131.524 411.272 120.808C427.861 97.8222 456.098 77.3199 456.988 51.4878C457.599 33.7433 443.362 16.3331 421.813 8.46836C399.193 0.195027 368.21 2.05212 352.037 17.0017C335.401 32.3923 305.687 38.8828 280.043 38.7343Z" fill="#54A8FF"/>
<path d="M263.542 113.255C263.542 113.255 250.815 90.6492 231.641 84.1355C223.583 81.4532 216.61 76.224 211.768 69.2323C209.495 65.8957 207.532 62.357 205.905 58.6608" stroke="#535461" stroke-width="2" stroke-miterlimit="10"/>
<path d="M193.854 54.4824C196.035 56.6087 206.21 58.8047 206.21 58.8047C206.21 58.8047 203.714 48.679 201.533 46.5526C200.484 45.5318 199.073 44.9706 197.611 44.9924C196.15 45.0141 194.756 45.6171 193.738 46.6687C192.72 47.7202 192.16 49.1342 192.182 50.5996C192.203 52.0649 192.805 53.4616 193.854 54.4824Z" fill="#54A8FF"/>
<path d="M199.629 72.8211C202.616 73.4154 212.351 69.7152 212.351 69.7152C212.351 69.7152 204.724 62.5654 201.755 61.9711C200.32 61.6885 198.831 61.9891 197.617 62.8066C196.403 63.6242 195.562 64.8918 195.28 66.3306C194.998 67.7694 195.298 69.2616 196.114 70.4788C196.929 71.696 198.194 72.5386 199.629 72.8211Z" fill="#54A8FF"/>
<path d="M220.563 92.6409C223.439 91.6427 229.978 83.5272 229.978 83.5272C229.978 83.5272 219.836 81.2059 216.96 82.1994C216.266 82.429 215.625 82.7945 215.074 83.2745C214.523 83.7546 214.072 84.3397 213.748 84.9959C213.424 85.6521 213.234 86.3662 213.188 87.0968C213.142 87.8274 213.241 88.5599 213.48 89.2517C213.718 89.9435 214.092 90.5809 214.578 91.1268C215.065 91.6726 215.655 92.1161 216.314 92.4315C216.973 92.7468 217.688 92.9277 218.417 92.9637C219.147 92.9996 219.876 92.8899 220.563 92.6409Z" fill="#54A8FF"/>
<path d="M239.792 104.071C242.793 103.575 250.606 96.6801 250.606 96.6801C250.606 96.6801 241.001 92.6688 237.995 93.1655C236.552 93.4044 235.264 94.208 234.412 95.3995C233.56 96.591 233.216 98.0729 233.454 99.5191C233.692 100.965 234.494 102.257 235.683 103.111C236.871 103.965 238.349 104.31 239.792 104.071Z" fill="#54A8FF"/>
<path d="M220.808 61.79C220.808 64.8449 215.302 73.694 215.302 73.694C215.302 73.694 209.786 64.8496 209.786 61.7947C209.786 60.3294 210.366 58.9241 211.4 57.888C212.433 56.8519 213.835 56.2698 215.297 56.2698C216.759 56.2698 218.16 56.8519 219.194 57.888C220.228 58.9241 220.808 60.3294 220.808 61.7947V61.79Z" fill="#54A8FF"/>
<path d="M243.127 75.4397C242.2 78.3553 234.327 85.1476 234.327 85.1476C234.327 85.1476 231.706 75.0497 232.613 72.148C233.05 70.7492 234.023 69.5816 235.319 68.902C236.614 68.2224 238.126 68.0866 239.521 68.5243C240.916 68.9621 242.081 69.9375 242.759 71.2362C243.437 72.5348 243.572 74.0502 243.136 75.4489L243.127 75.4397Z" fill="#54A8FF"/>
<path d="M263 91.6892C262.597 94.7162 255.955 102.753 255.955 102.753C255.955 102.753 251.671 93.2445 252.074 90.2174C252.269 88.7651 253.031 87.4497 254.193 86.5608C255.355 85.6718 256.822 85.2821 258.271 85.4772C259.72 85.6724 261.032 86.4365 261.919 87.6015C262.806 88.7664 263.194 90.2368 263 91.6892Z" fill="#54A8FF"/>
<path opacity="0.25" d="M193.854 54.4824C196.035 56.6087 206.21 58.8047 206.21 58.8047C206.21 58.8047 203.714 48.679 201.533 46.5526C200.484 45.5318 199.073 44.9706 197.611 44.9924C196.15 45.0141 194.756 45.6171 193.738 46.6687C192.72 47.7202 192.16 49.1342 192.182 50.5996C192.203 52.0649 192.805 53.4616 193.854 54.4824Z" fill="black"/>
<path opacity="0.25" d="M199.629 72.8211C202.616 73.4154 212.351 69.7152 212.351 69.7152C212.351 69.7152 204.724 62.5654 201.755 61.9711C200.32 61.6885 198.831 61.9891 197.617 62.8066C196.403 63.6242 195.562 64.8918 195.28 66.3306C194.998 67.7694 195.298 69.2616 196.114 70.4788C196.929 71.696 198.194 72.5386 199.629 72.8211Z" fill="black"/>
<path opacity="0.25" d="M220.563 92.6409C223.439 91.6427 229.978 83.5272 229.978 83.5272C229.978 83.5272 219.836 81.2059 216.96 82.1994C216.266 82.429 215.625 82.7945 215.074 83.2745C214.523 83.7546 214.072 84.3397 213.748 84.9959C213.424 85.6521 213.234 86.3662 213.188 87.0968C213.142 87.8274 213.241 88.5599 213.48 89.2517C213.718 89.9435 214.092 90.5809 214.578 91.1268C215.065 91.6726 215.655 92.1161 216.314 92.4315C216.973 92.7468 217.688 92.9277 218.417 92.9637C219.147 92.9996 219.876 92.8899 220.563 92.6409Z" fill="black"/>
<path opacity="0.25" d="M239.792 104.071C242.793 103.575 250.606 96.6801 250.606 96.6801C250.606 96.6801 241.001 92.6688 237.995 93.1655C236.552 93.4044 235.264 94.208 234.412 95.3995C233.56 96.591 233.216 98.0729 233.454 99.5191C233.692 100.965 234.494 102.257 235.683 103.111C236.871 103.965 238.349 104.31 239.792 104.071Z" fill="black"/>
<path opacity="0.25" d="M220.808 61.79C220.808 64.8449 215.302 73.694 215.302 73.694C215.302 73.694 209.786 64.8496 209.786 61.7947C209.786 60.3294 210.366 58.9241 211.4 57.888C212.433 56.8519 213.835 56.2698 215.297 56.2698C216.759 56.2698 218.16 56.8519 219.194 57.888C220.228 58.9241 220.808 60.3294 220.808 61.7947V61.79Z" fill="black"/>
<path opacity="0.25" d="M243.127 75.4397C242.2 78.3553 234.327 85.1476 234.327 85.1476C234.327 85.1476 231.706 75.0497 232.613 72.148C233.05 70.7492 234.023 69.5816 235.319 68.902C236.614 68.2224 238.126 68.0866 239.521 68.5243C240.916 68.9621 242.081 69.9375 242.759 71.2362C243.437 72.5348 243.572 74.0502 243.136 75.4489L243.127 75.4397Z" fill="black"/>
<path opacity="0.25" d="M263 91.6892C262.597 94.7162 255.955 102.753 255.955 102.753C255.955 102.753 251.671 93.2445 252.074 90.2174C252.269 88.7651 253.031 87.4497 254.193 86.5608C255.355 85.6718 256.822 85.2821 258.271 85.4772C259.72 85.6724 261.032 86.4365 261.919 87.6015C262.806 88.7664 263.194 90.2368 263 91.6892Z" fill="black"/>
<path d="M262.814 112.809C262.814 112.809 260.313 86.9675 245.424 73.225C239.139 67.5014 234.877 59.8886 233.276 51.5296C232.548 47.5553 232.185 43.5225 232.192 39.4818" stroke="#535461" stroke-width="2" stroke-miterlimit="10"/>
<path d="M222.86 30.7627C223.995 33.5948 232.41 39.7371 232.41 39.7371C232.41 39.7371 234.221 29.4627 233.081 26.6307C232.819 25.9466 232.423 25.3217 231.917 24.7925C231.411 24.2632 230.805 23.8402 230.135 23.5479C229.464 23.2557 228.742 23.1001 228.011 23.0903C227.28 23.0805 226.554 23.2167 225.876 23.4908C225.198 23.7649 224.581 24.1716 224.062 24.6871C223.542 25.2026 223.129 25.8166 222.849 26.4934C222.568 27.1702 222.424 27.8962 222.426 28.6292C222.428 29.3621 222.576 30.0874 222.86 30.7627Z" fill="#54A8FF"/>
<path d="M220.711 49.8582C223.202 51.6132 233.591 52.1796 233.591 52.1796C233.591 52.1796 229.543 42.5692 227.056 40.8142C225.86 39.9708 224.379 39.638 222.938 39.8892C221.498 40.1404 220.216 40.955 219.375 42.1537C218.533 43.3523 218.201 44.837 218.452 46.281C218.703 47.7251 219.515 49.0101 220.711 49.8536V49.8582Z" fill="#54A8FF"/>
<path d="M231.854 76.5028C234.887 76.7581 244.145 71.9901 244.145 71.9901C244.145 71.9901 235.809 65.7456 232.775 65.4903C231.319 65.3671 229.873 65.8292 228.756 66.7747C227.639 67.7203 226.942 69.0719 226.82 70.5323C226.697 71.9926 227.158 73.4421 228.101 74.5618C229.044 75.6814 230.392 76.3797 231.849 76.5028H231.854Z" fill="#54A8FF"/>
<path d="M244.812 94.758C247.758 95.524 257.687 92.3949 257.687 92.3949C257.687 92.3949 250.523 84.8272 247.577 84.0379C246.865 83.8126 246.114 83.7348 245.371 83.8094C244.627 83.8839 243.907 84.1092 243.253 84.4715C242.599 84.8339 242.025 85.3258 241.567 85.9172C241.108 86.5087 240.775 87.1874 240.586 87.9122C240.398 88.6369 240.358 89.3925 240.47 90.1331C240.581 90.8736 240.842 91.5837 241.236 92.2201C241.63 92.8565 242.149 93.4059 242.762 93.835C243.374 94.2641 244.067 94.5639 244.798 94.7162L244.812 94.758Z" fill="#54A8FF"/>
<path d="M244.553 48.3958C243.321 51.1814 234.707 57.0405 234.707 57.0405C234.707 57.0405 233.239 46.7151 234.471 43.9248C235.062 42.5845 236.16 41.5346 237.524 41.0061C238.888 40.4776 240.405 40.5138 241.742 41.1067C243.079 41.6996 244.126 42.8006 244.653 44.1676C245.181 45.5345 245.144 47.0555 244.553 48.3958Z" fill="#54A8FF"/>
<path d="M259.433 69.9426C257.423 72.2315 247.457 75.2353 247.457 75.2353C247.457 75.2353 249.138 64.9424 251.162 62.6489C251.64 62.1036 252.22 61.6579 252.869 61.3373C253.519 61.0167 254.225 60.8275 254.948 60.7805C255.67 60.7335 256.395 60.8297 257.08 61.0634C257.766 61.2972 258.398 61.664 258.942 62.1429C259.487 62.6218 259.931 63.2034 260.251 63.8546C260.571 64.5058 260.759 65.2137 260.806 65.9379C260.853 66.6622 260.757 67.3887 260.524 68.0758C260.291 68.7629 259.925 69.3973 259.447 69.9426H259.433Z" fill="#54A8FF"/>
<path d="M271.035 92.8684C269.442 95.4684 260.123 100.12 260.123 100.12C260.123 100.12 260.045 89.6882 261.638 87.0836C262.424 85.8789 263.647 85.0289 265.048 84.7141C266.449 84.3993 267.917 84.6446 269.141 85.3978C270.365 86.151 271.247 87.3528 271.6 88.7478C271.954 90.1428 271.751 91.621 271.035 92.8684Z" fill="#54A8FF"/>
<path opacity="0.1" d="M382.784 277.124C384.151 279.91 374.485 282.904 362.513 283.768C351.787 284.543 342.969 283.28 341.853 281.015C340.737 278.749 347.568 276.001 358.062 274.761C369.775 273.387 381.418 274.366 382.784 277.124Z" fill="#54A8FF"/>
<path d="M101.31 129.787L248.855 77.4035V258.372L101.31 255.289V129.787Z" fill="white"/>
<path opacity="0.2" d="M101.31 129.787L248.855 77.4035V258.372L101.31 255.289V129.787Z" fill="#54A8FF"/>
<path d="M0 159.673L84.1745 129.787V255.289H0V159.673Z" fill="white"/>
<path opacity="0.2" d="M0 159.673L84.1745 129.787V255.289H0V159.673Z" fill="#54A8FF"/>
<path d="M248.855 77.4035L396.396 129.787V255.289L248.855 258.372V77.4035Z" fill="white"/>
<path opacity="0.5" d="M248.855 77.4035L396.396 129.787V255.289L248.855 258.372V77.4035Z" fill="#54A8FF"/>
<path d="M499.23 160.049L413.995 129.787V255.289H499.23V160.049Z" fill="white"/>
<path opacity="0.5" d="M499.23 160.049L413.995 129.787V255.289H499.23V160.049Z" fill="#54A8FF"/>
<path d="M49.0505 181.461C48.453 181.461 47.9668 182.278 47.9668 183.285V205.998C47.9984 208.239 47.4714 210.452 46.4338 212.437C45.4658 214.141 43.9838 215.223 42.5666 215.223H41.6403C40.2509 215.223 38.8893 214.183 37.8241 212.349C36.7135 210.369 36.1343 208.134 36.143 205.863V176.558C36.1139 174.938 36.5306 173.341 37.3471 171.943C38.1205 170.718 39.1348 170.04 40.2 170.04C41.2652 170.04 42.2424 170.718 42.9788 171.934C43.7598 173.354 44.1528 174.956 44.1181 176.577V203.941C44.1181 205.937 43.1918 207.701 42.0989 207.701C41.1726 207.701 40.1352 206.197 40.1352 203.941V188.313C40.1352 187.311 39.6489 186.489 39.0514 186.489C38.454 186.489 37.9631 187.311 37.9631 188.313V203.922C37.9631 208.073 39.7415 211.202 42.0989 211.202C43.2474 211.202 44.308 210.487 45.0722 209.183C45.9268 207.565 46.3466 205.752 46.2902 203.922V176.558C46.3379 174.033 45.7128 171.541 44.4794 169.339C43.3308 167.412 41.7978 166.358 40.163 166.358C38.5281 166.358 36.9951 167.412 35.8327 169.339C34.5961 171.544 33.9724 174.042 34.0264 176.572V205.872C34.0264 209.229 34.8786 212.637 36.2958 214.986C37.713 217.335 39.6304 218.7 41.594 218.7H42.5435C44.4655 218.7 46.3921 217.335 47.8278 214.949C48.5711 213.689 49.131 212.329 49.4905 210.91C49.9055 209.302 50.114 207.649 50.1111 205.988V183.239C50.1111 182.232 49.6479 181.414 49.032 181.414L49.0505 181.461Z" fill="white"/>
<path d="M256.395 232.029C256.395 232.029 259.142 235.632 255.126 241.069C251.111 246.505 247.795 251.102 249.138 254.482C249.138 254.482 255.196 244.384 260.123 244.268C265.051 244.151 261.814 238.102 256.395 232.029Z" fill="#54A8FF"/>
<path opacity="0.1" d="M256.395 232.029C256.634 232.379 256.822 232.76 256.956 233.162C261.763 238.826 264.324 244.11 259.702 244.244C255.395 244.37 250.231 252.086 248.994 254.036C249.032 254.193 249.08 254.349 249.138 254.5C249.138 254.5 255.196 244.402 260.123 244.286C265.051 244.17 261.814 238.102 256.395 232.029Z" fill="black"/>
<path d="M261.499 236.621C261.499 237.888 261.355 238.915 261.179 238.915C261.003 238.915 260.865 237.888 260.865 236.621C260.865 235.354 261.04 235.948 261.216 235.948C261.392 235.948 261.499 235.354 261.499 236.621Z" fill="#FFD037"/>
<path d="M263.25 238.135C262.143 238.738 261.175 239.105 261.091 238.952C261.008 238.798 261.837 238.181 262.944 237.559C264.051 236.937 263.616 237.396 263.699 237.559C263.782 237.721 264.361 237.526 263.25 238.135Z" fill="#FFD037"/>
<path d="M241.885 232.029C241.885 232.029 239.139 235.632 243.154 241.069C247.17 246.505 250.476 251.102 249.138 254.482C249.138 254.482 243.085 244.384 238.152 244.268C233.22 244.151 236.462 238.102 241.885 232.029Z" fill="#54A8FF"/>
<path opacity="0.1" d="M241.885 232.029C241.647 232.379 241.458 232.76 241.325 233.162C236.513 238.826 233.952 244.11 238.579 244.244C242.881 244.37 248.05 252.086 249.286 254.036C249.247 254.194 249.197 254.349 249.138 254.5C249.138 254.5 243.085 244.402 238.152 244.286C233.22 244.17 236.462 238.102 241.885 232.029Z" fill="black"/>
<path d="M236.781 236.621C236.781 237.888 236.92 238.915 237.096 238.915C237.272 238.915 237.416 237.888 237.416 236.621C237.416 235.354 237.235 235.948 237.064 235.948C236.893 235.948 236.781 235.354 236.781 236.621Z" fill="#FFD037"/>
<path d="M235.026 238.135C236.138 238.738 237.106 239.105 237.189 238.952C237.272 238.798 236.443 238.181 235.337 237.559C234.23 236.937 234.665 237.396 234.582 237.559C234.498 237.721 233.901 237.526 235.026 238.135Z" fill="#FFD037"/>
<path opacity="0.1" d="M249.138 282.022C264.997 282.022 277.852 280.045 277.852 277.607C277.852 275.169 264.997 273.192 249.138 273.192C233.28 273.192 220.424 275.169 220.424 277.607C220.424 280.045 233.28 282.022 249.138 282.022Z" fill="#54A8FF"/>
<path d="M263.921 249.63L263.782 250.753L263.588 252.341L263.509 253.001L263.315 254.593L263.231 255.252L263.041 256.84L260.841 274.9C260.647 276.511 258.021 277.769 254.848 277.769H243.432C240.26 277.769 237.638 276.511 237.439 274.9L235.239 256.84L235.045 255.252L234.966 254.593L234.772 253.001L234.688 252.341L234.498 250.753L234.359 249.63C234.248 248.701 235.67 247.945 237.467 247.945H260.818C262.615 247.945 264.032 248.715 263.921 249.63Z" fill="#444053"/>
<path d="M263.782 250.753L263.588 252.341H234.688L234.498 250.753H263.782Z" fill="#9D9CB5"/>
<path d="M263.509 253.005L263.315 254.593H234.966L234.772 253.005H263.509Z" fill="#9D9CB5"/>
<path d="M263.231 255.257L263.041 256.845H235.239L235.045 255.257H263.231Z" fill="#9D9CB5"/>
<path d="M193.312 151.562L188.889 157.453C188.852 157.508 188.8 157.551 188.739 157.577C188.678 157.602 188.611 157.609 188.546 157.597L183.975 156.502C183.889 156.469 183.813 156.412 183.758 156.338C183.702 156.264 183.668 156.176 183.66 156.084L182.845 150.016C182.821 149.853 182.859 149.687 182.952 149.551L187.365 143.669C187.53 143.433 187.61 143.147 187.592 142.86C187.573 142.572 187.457 142.299 187.263 142.086C186.427 141.249 185.312 140.753 184.133 140.693C184.068 140.686 184.003 140.686 183.938 140.693C182.706 140.786 180.066 141.701 178.028 144.574C176.051 147.36 173.981 152.495 175.815 158.233C176.032 158.925 176.278 159.84 175.546 160.81C174.814 161.78 155.886 185.416 155.886 185.416C154.112 187.445 154.242 191.197 155.886 193.379C156.236 193.877 156.696 194.287 157.23 194.577C157.764 194.867 158.359 195.029 158.966 195.05C159.557 195.039 160.136 194.876 160.646 194.576C161.156 194.276 161.581 193.849 161.879 193.337C161.879 193.337 179.543 168.359 180.404 167.222C180.52 167.031 180.68 166.872 180.87 166.756C181.06 166.641 181.275 166.573 181.497 166.558C181.803 166.574 182.097 166.682 182.34 166.869C183.28 167.512 184.394 167.851 185.531 167.839C188.171 167.839 190.945 166.214 192.64 163.967C194.388 161.708 195.405 158.967 195.553 156.112C195.612 154.553 195.249 153.008 194.502 151.641C194.453 151.529 194.374 151.432 194.275 151.361C194.176 151.289 194.059 151.246 193.937 151.236C193.815 151.225 193.693 151.248 193.583 151.301C193.473 151.354 193.379 151.436 193.312 151.538V151.562ZM159.966 190.537C159.86 190.7 159.714 190.834 159.543 190.926C159.372 191.019 159.181 191.067 158.987 191.067C158.792 191.067 158.601 191.019 158.43 190.926C158.259 190.834 158.114 190.7 158.007 190.537C157.748 190.153 157.61 189.701 157.61 189.237C157.61 188.774 157.748 188.321 158.007 187.937C158.114 187.775 158.259 187.641 158.43 187.548C158.601 187.456 158.792 187.407 158.987 187.407C159.181 187.407 159.372 187.456 159.543 187.548C159.714 187.641 159.86 187.775 159.966 187.937C160.226 188.321 160.365 188.773 160.366 189.237C160.367 189.7 160.229 190.153 159.971 190.537H159.966Z" fill="white"/>
<path d="M349.902 162.95C348.679 148.781 339.097 137.74 327.44 137.74C319.724 137.74 312.93 142.564 308.85 149.932C307.598 149.281 306.208 148.939 304.797 148.934C298.906 148.934 294.145 155.434 294.039 162.76C288.018 165.156 284.054 172.51 284.054 180.226C284.054 189.683 290.186 198.031 297.744 198.031H347.503C355.066 198.031 361.198 189.674 361.198 180.226C361.198 171.804 356.316 164.38 349.902 162.95ZM338.662 159.7L318.52 185.003C318.261 185.324 317.594 186.039 316.769 186.039C316.416 185.997 316.076 185.88 315.773 185.695C315.469 185.51 315.209 185.261 315.01 184.966L306.557 174.404C306.441 174.25 306.377 174.061 306.377 173.868C306.377 173.674 306.441 173.486 306.557 173.331L309.239 169.979C309.287 169.912 309.35 169.856 309.423 169.816C309.496 169.777 309.577 169.755 309.66 169.752C309.743 169.755 309.825 169.777 309.898 169.816C309.971 169.855 310.034 169.911 310.082 169.979L316.774 178.336L335.151 155.183C335.2 155.116 335.263 155.061 335.336 155.021C335.409 154.982 335.49 154.96 335.573 154.956C335.656 154.956 335.738 154.977 335.812 155.017C335.885 155.056 335.948 155.113 335.994 155.183L338.629 158.595C338.758 158.746 338.832 158.937 338.838 159.135C338.844 159.334 338.782 159.528 338.662 159.686V159.7Z" fill="white"/>
<path d="M471.877 185.389C474.407 185.389 476.458 182.647 476.458 179.265C476.458 175.883 474.407 173.141 471.877 173.141C469.348 173.141 467.297 175.883 467.297 179.265C467.297 182.647 469.348 185.389 471.877 185.389Z" fill="white"/>
<path d="M471.877 187.752C471.372 187.749 470.871 187.668 470.391 187.51L465.871 193.671C465.833 193.723 465.812 193.786 465.812 193.85C465.812 193.914 465.833 193.977 465.871 194.029L473.054 204.243C473.291 204.588 473.418 204.998 473.418 205.417C473.418 205.837 473.291 206.246 473.054 206.592C472.952 206.731 472.82 206.846 472.668 206.926C472.515 207.007 472.346 207.051 472.174 207.056C472.002 207.051 471.834 207.007 471.682 206.927C471.53 206.846 471.399 206.732 471.299 206.592L464.143 196.378C464.128 196.355 464.107 196.336 464.083 196.323C464.059 196.31 464.032 196.303 464.004 196.303C463.977 196.303 463.95 196.31 463.925 196.323C463.901 196.336 463.88 196.355 463.865 196.378L462.119 198.755C460.66 200.733 458.724 200.436 456.64 200.45C454.556 200.463 452.532 199.275 451.05 197.269L449.374 194.985C449.359 194.962 449.338 194.943 449.314 194.93C449.289 194.917 449.262 194.91 449.235 194.91C449.207 194.91 449.18 194.917 449.156 194.93C449.132 194.943 449.111 194.962 449.096 194.985L441.941 205.199C441.839 205.339 441.707 205.453 441.554 205.533C441.402 205.614 441.233 205.658 441.061 205.663C440.889 205.659 440.721 205.614 440.569 205.534C440.417 205.453 440.286 205.339 440.185 205.199C439.948 204.854 439.821 204.444 439.821 204.024C439.821 203.605 439.948 203.195 440.185 202.85L447.368 192.636C447.4 192.582 447.417 192.52 447.417 192.457C447.417 192.394 447.4 192.333 447.368 192.278L437.092 178.294C436.966 178.127 436.767 178.243 436.767 178.471V206.457C436.767 208.704 438.157 210.543 439.819 210.543L473.406 211.936C475.087 211.936 476.458 210.079 476.458 207.85V185.133C475.305 186.744 473.684 187.752 471.877 187.752Z" fill="white"/>
<path d="M465.532 179.265C465.527 177.865 465.793 176.477 466.315 175.179L439.81 173.786C439.45 173.795 439.096 173.88 438.771 174.034C438.445 174.188 438.156 174.409 437.92 174.682L452.893 195.064C453.302 195.687 453.854 196.202 454.503 196.565C455.152 196.929 455.879 197.131 456.622 197.153C458.011 197.153 459.363 197.808 460.355 196.457L468.033 186.001C466.51 184.446 465.532 182.009 465.532 179.265Z" fill="white"/>
<path d="M502.898 252.671C502.898 252.671 497.484 252.346 498.123 256.144C498.088 256.335 498.114 256.532 498.197 256.708C498.281 256.884 498.417 257.029 498.586 257.123C498.586 257.123 498.586 256.84 499.142 256.938C499.336 256.969 499.534 256.978 499.73 256.965C499.995 256.945 500.246 256.841 500.448 256.668C500.448 256.668 501.967 256.037 502.56 253.544C502.56 253.544 503 253 502.981 252.861L502.055 253.251C502.23 253.632 502.253 254.065 502.12 254.463C502.12 254.463 502.092 253.274 501.916 253.302C501.879 253.302 501.453 253.534 501.453 253.534C501.453 253.534 501.99 254.681 501.587 255.517C501.587 255.517 501.74 254.124 501.286 253.618L500.643 253.994C500.643 253.994 501.273 255.178 500.846 256.148C500.846 256.148 500.958 254.663 500.508 254.082L499.925 254.547C499.925 254.547 500.518 255.721 500.156 256.524C500.156 256.524 500.11 254.793 499.8 254.667C499.579 254.855 499.381 255.068 499.212 255.303C499.212 255.303 499.614 256.153 499.364 256.599C499.364 256.599 499.212 255.447 499.087 255.443C498.821 255.832 498.631 256.269 498.526 256.729C498.552 256.244 498.704 255.776 498.966 255.368C498.673 255.424 498.402 255.564 498.188 255.772C498.188 255.772 498.267 255.234 499.114 255.183C499.267 254.959 499.444 254.754 499.642 254.57C499.198 254.531 498.751 254.583 498.327 254.723C498.327 254.723 498.79 254.212 499.795 254.444L500.369 253.98C499.86 253.897 499.341 253.897 498.832 253.98C498.832 253.98 499.36 253.516 500.522 253.859L501.152 253.483C500.67 253.377 500.177 253.333 499.684 253.353C500.217 253.153 500.806 253.163 501.333 253.381L501.796 253.182C501.796 253.182 501.12 253.047 500.925 253.028C500.731 253.01 500.717 252.949 500.717 252.949C501.143 252.88 501.581 252.929 501.981 253.093C502.298 252.98 502.605 252.838 502.898 252.671Z" fill="#54A8FF"/>
<path opacity="0.1" d="M499.17 258.103C501.285 258.103 503 257.812 503 257.453C503 257.094 501.285 256.803 499.17 256.803C497.055 256.803 495.34 257.094 495.34 257.453C495.34 257.812 497.055 258.103 499.17 258.103Z" fill="#54A8FF"/>
<path d="M419.516 252.829C419.516 252.829 412.986 252.434 413.754 257.007C413.714 257.24 413.749 257.479 413.853 257.691C413.957 257.903 414.125 258.076 414.333 258.186C414.333 258.186 414.333 257.848 415.005 257.964C415.239 258.003 415.477 258.014 415.713 257.996C416.035 257.976 416.341 257.85 416.584 257.639C416.584 257.639 418.437 256.877 419.131 253.869C419.131 253.869 419.664 253.214 419.641 253.042L418.538 253.507C418.749 253.965 418.777 254.486 418.617 254.964C418.617 254.964 418.585 253.534 418.372 253.572C418.33 253.572 417.797 253.846 417.797 253.846C417.797 253.846 418.446 255.238 417.96 256.246C417.96 256.246 418.145 254.533 417.594 253.924L416.82 254.389C416.82 254.389 417.575 255.823 417.066 256.998C417.066 256.998 417.195 255.201 416.658 254.5L415.954 255.053C415.954 255.053 416.667 256.445 416.232 257.434C416.232 257.434 416.177 255.345 415.801 255.187C415.535 255.413 415.297 255.67 415.093 255.953C415.093 255.953 415.556 256.979 415.278 257.523C415.278 257.523 415.093 256.13 414.94 256.13C414.621 256.602 414.392 257.129 414.264 257.685C414.294 257.101 414.476 256.534 414.792 256.042C414.445 256.105 414.124 256.266 413.865 256.506C413.865 256.506 413.963 255.851 414.958 255.795C415.142 255.524 415.357 255.275 415.598 255.053C415.061 255.006 414.521 255.07 414.009 255.238C414.009 255.238 414.537 254.621 415.778 254.899L416.473 254.333C415.859 254.233 415.234 254.233 414.62 254.333C414.62 254.333 415.255 253.79 416.663 254.184L417.418 253.72C416.836 253.591 416.239 253.54 415.644 253.567C415.644 253.567 416.343 253.186 417.64 253.595L418.177 253.353C418.177 253.353 417.367 253.196 417.126 253.168C416.885 253.14 416.876 253.075 416.876 253.075C417.391 252.99 417.92 253.049 418.404 253.247C418.787 253.141 419.159 253.001 419.516 252.829Z" fill="#54A8FF"/>
<path opacity="0.1" d="M415.019 259.389C417.571 259.389 419.641 259.038 419.641 258.604C419.641 258.171 417.571 257.82 415.019 257.82C412.466 257.82 410.396 258.171 410.396 258.604C410.396 259.038 412.466 259.389 415.019 259.389Z" fill="#54A8FF"/>
<path d="M378.547 207.061C378.547 207.061 379.079 206.545 378.903 206.197C378.852 206.089 378.825 205.971 378.825 205.851C378.825 205.732 378.852 205.614 378.903 205.505C378.903 205.505 377.708 200.798 377.264 200.324C376.972 199.979 376.747 199.582 376.602 199.154C376.648 199.062 376.67 198.96 376.666 198.857C376.647 198.383 376.485 197.925 376.203 197.543C375.856 197.028 375.664 196.424 375.652 195.802C375.647 195.725 375.647 195.647 375.652 195.57C375.519 195.221 375.304 194.909 375.025 194.66C374.746 194.412 374.412 194.235 374.05 194.145C374.203 193.147 374.411 192.148 374.476 191.146C374.684 188.002 373.517 184.952 372.368 182.009C372.118 181.279 371.78 180.582 371.364 179.933C370.85 179.255 370.199 178.694 369.453 178.285C368.708 177.877 367.885 177.632 367.038 177.566C366.415 177.487 365.782 177.549 365.185 177.747C364.596 178.012 364.056 178.374 363.588 178.819C363.092 179.237 362.596 179.664 362.138 180.119L362.082 180.175L361.92 180.347L361.855 180.412L361.703 180.583L361.647 180.644C361.582 180.723 361.513 180.802 361.448 180.885C361.388 180.964 361.327 181.038 361.272 181.117L361.216 181.196L361.096 181.368L361.04 181.456C360.999 181.517 360.966 181.577 360.929 181.637L360.878 181.721C360.832 181.809 360.781 181.897 360.735 181.99L360.568 182.362V182.413L360.471 182.659C360.346 182.956 360.225 183.253 360.072 183.536L360.045 183.583L359.711 183.986C359.559 184.187 359.431 184.405 359.331 184.636L359.299 184.711C359.299 184.743 359.276 184.78 359.262 184.813L359.229 184.896C359.221 184.933 359.21 184.968 359.197 185.003C359.197 185.031 359.197 185.059 359.197 185.091L359.169 185.194C359.169 185.226 359.169 185.254 359.169 185.286C359.169 185.319 359.169 185.356 359.146 185.389V185.486V185.588C359.146 185.625 359.146 185.663 359.146 185.704C359.146 185.746 359.146 185.76 359.146 185.783C359.146 185.806 359.146 185.913 359.146 185.978C359.146 186.043 359.146 186.029 359.146 186.057C359.144 186.099 359.144 186.141 359.146 186.182C359.144 186.21 359.144 186.238 359.146 186.266C359.144 186.305 359.144 186.343 359.146 186.382V186.466C359.146 186.507 359.146 186.545 359.146 186.582C359.144 186.61 359.144 186.638 359.146 186.665L359.174 186.786C359.174 186.786 359.174 186.837 359.174 186.86L359.216 186.99C359.216 186.99 359.216 187.032 359.239 187.051C359.262 187.069 359.285 187.181 359.313 187.241C359.455 187.552 359.629 187.848 359.831 188.123C359.966 188.309 360.105 188.49 360.244 188.676L360.443 188.954C360.578 189.139 360.7 189.333 360.809 189.535C361.134 190.157 361.292 190.853 361.266 191.555C361.241 192.256 361.034 192.94 360.665 193.537L360.498 193.792C360.407 193.934 360.343 194.091 360.309 194.256C360.292 194.4 360.307 194.545 360.353 194.682C360.399 194.819 360.474 194.945 360.573 195.05L360.16 195.157C359.822 195.25 359.591 195.324 359.591 195.324C359.31 195.299 359.028 195.299 358.748 195.324C358.358 195.447 358.009 195.671 357.733 195.974C357.733 195.974 355.964 196.188 355.385 195.672C354.806 195.157 352.778 194.98 352.778 194.98C352.778 194.98 352.204 193.857 351.583 193.509C350.962 193.16 349.462 192.515 349.416 192.172C349.286 191.808 349.092 191.471 348.841 191.178C348.537 191.113 348.227 191.075 347.915 191.067L347.818 190.899L346.581 188.759C346.581 188.759 345.03 186.944 344.191 186.772C343.353 186.6 345.372 188.699 345.47 188.796C345.183 188.591 344.828 188.508 344.48 188.566C344.133 188.623 343.823 188.816 343.617 189.103C342.96 189.836 344.706 191.559 345.789 192.511L345.965 192.664C345.973 192.759 345.987 192.854 346.007 192.947C346.493 195.496 349.189 197.701 349.189 197.701C349.189 197.701 349.499 199.126 350.518 199.475C351.328 199.749 355.682 201.726 357.951 202.121C357.761 202.613 357.539 203.755 358.479 205.436C358.479 205.436 358.701 208.416 358.215 208.806C357.729 209.196 357.752 213.514 357.752 213.514C357.752 213.514 355.899 221.031 357.752 222.628C357.869 222.729 358.002 222.81 358.146 222.869C358.146 222.985 358.178 223.106 358.192 223.231C358.275 223.984 358.303 224.764 358.104 225.088C357.641 225.822 358.257 227.809 358.257 227.809C358.257 227.809 356.469 237.963 357.266 241.547C357.769 244.225 358.004 246.947 357.97 249.672C357.97 249.672 357.706 252.824 359.077 254.728C359.227 255.178 359.316 255.646 359.341 256.12C359.43 257.031 359.67 257.921 360.049 258.753C360.359 259.356 360.975 261.91 360.447 262.597C359.919 263.284 361.022 270.81 361.022 270.81C361.022 270.81 360.137 273.131 361.022 274.352L361.05 274.385C360.525 274.379 360.003 274.304 359.498 274.162C358.507 273.828 359.248 275.091 360.424 275.954C359.91 277.124 359.206 278.693 358.97 279.204C357.947 279.381 355.918 279.668 354.728 279.385C353.093 279 355.436 281.632 357.645 282.11C359.205 282.403 360.793 282.518 362.379 282.454L363.805 280.875C364.958 281.031 366.122 281.074 367.283 281.005L367.158 282.473H367.997V280.95C368.524 280.899 369.071 280.829 369.636 280.727C369.636 280.727 369.668 279.121 369.567 277.602L370.081 277.649L370.159 276.808L371.979 277.138L373.614 263.674C373.614 263.674 373.795 258.665 374.193 255.856C374.592 253.047 373.35 243.627 373.35 243.627C373.35 243.627 373.262 243.163 373.174 242.29C373.086 241.417 373.174 236.324 373.174 236.324C373.174 236.324 373.837 233.538 373.707 233.301C373.577 233.065 373.749 231.876 373.749 231.876C376.527 226.198 373.11 221.068 371.919 219.545C371.988 219.481 372.029 219.393 372.035 219.299C372.042 219.267 372.042 219.234 372.035 219.202C371.848 218.721 371.625 218.256 371.368 217.809L372.063 216.922C372.304 217.27 372.475 217.53 372.475 217.53C372.475 217.53 373.225 215.845 373.98 215.209C374.735 214.573 378.357 208.514 378.357 208.514C378.357 208.514 379.2 207.948 378.755 207.474C378.311 207 378.547 207.061 378.547 207.061ZM367.404 254.844C367.344 254.648 367.236 254.47 367.089 254.328C367.089 254.328 366.959 253.4 366.913 252.207C367.177 253.135 367.445 253.808 367.445 253.808L367.404 254.844ZM369.488 276.929C369.488 276.846 369.488 276.762 369.488 276.683H369.553L369.488 276.929ZM370.034 215.469V215.413C370.024 215.294 370.046 215.174 370.096 215.066C370.147 214.958 370.224 214.865 370.321 214.796C370.372 214.764 370.413 214.719 370.44 214.666C370.467 214.613 370.479 214.553 370.474 214.494C370.453 214.298 370.379 214.112 370.261 213.955C370.349 214.02 370.622 214.169 370.808 213.63C370.835 213.546 370.85 213.459 370.849 213.37C370.805 212.92 370.622 212.495 370.326 212.154L372.327 207.929C372.546 207.994 372.768 208.045 372.994 208.082C372.47 209.707 372.04 211.643 372.04 211.643L370.493 215.056C370.598 215.096 370.69 215.163 370.761 215.251L370.034 215.469Z" fill="url(#paint0_linear)"/>
<path d="M363.379 274.278C363.379 274.278 360.781 274.598 359.517 274.162C358.252 273.726 359.906 276.019 361.615 276.581C362.821 276.936 364.064 277.148 365.32 277.212L367.325 275.318L369.455 275.485L369.085 277.579L369.747 277.639L370.002 274.9L363.379 274.278Z" fill="#444053"/>
<path opacity="0.1" d="M363.379 274.278C363.379 274.278 360.781 274.598 359.517 274.162C358.252 273.726 359.906 276.019 361.615 276.581C362.821 276.936 364.064 277.148 365.32 277.212L367.325 275.318L369.455 275.485L369.085 277.579L369.747 277.639L370.002 274.9L363.379 274.278Z" fill="black"/>
<path d="M359.628 279.065C359.628 279.065 356.506 279.747 354.927 279.362C353.348 278.977 355.612 281.59 357.748 282.059C359.253 282.351 360.787 282.467 362.319 282.403L364.542 279.877L367.145 279.836L366.931 282.421H367.747V279.065H359.628Z" fill="#444053"/>
<path opacity="0.1" d="M359.628 279.065C359.628 279.065 356.506 279.747 354.927 279.362C353.348 278.977 355.612 281.59 357.748 282.059C359.253 282.351 360.787 282.467 362.319 282.403L364.542 279.877L367.145 279.836L366.931 282.421H367.747V279.065H359.628Z" fill="black"/>
<path d="M371.16 219.578C371.16 219.578 376.5 225.53 373.299 232.252C373.299 232.252 373.128 233.455 373.253 233.668C373.378 233.882 372.744 236.667 372.744 236.667C372.744 236.667 372.656 241.719 372.744 242.578C372.832 243.437 372.915 243.901 372.915 243.901C372.915 243.901 374.11 253.237 373.726 256.023C373.341 258.809 373.17 263.776 373.17 263.776L371.591 277.138L363.388 275.597L367.093 257.263L367.223 254.013C367.223 254.013 365.686 250.034 366.366 248.019C367.047 246.004 366.195 220.353 366.195 220.353L371.16 219.578Z" fill="#444053"/>
<path opacity="0.02" d="M371.16 219.578C371.16 219.578 376.5 225.53 373.299 232.252C373.299 232.252 373.128 233.455 373.253 233.668C373.378 233.882 372.744 236.667 372.744 236.667C372.744 236.667 372.656 241.719 372.744 242.578C372.832 243.437 372.915 243.901 372.915 243.901C372.915 243.901 374.11 253.237 373.726 256.023C373.341 258.809 373.17 263.776 373.17 263.776L371.591 277.138L363.388 275.597L367.093 257.263L367.223 254.013C367.223 254.013 365.686 250.034 366.366 248.019C367.047 246.004 366.195 220.353 366.195 220.353L371.16 219.578Z" fill="black"/>
<path d="M367.233 248.358C366.306 250.155 366.89 254.523 366.89 254.523C368.126 255.596 367.446 264.932 367.446 264.932C367.446 264.932 368.298 274.139 368.835 275.211C369.372 276.284 369.298 280.69 369.298 280.69C363.018 281.846 358.915 279.362 358.915 279.362C358.915 279.362 360.925 274.78 360.966 274.566C360.989 274.445 361.258 274.77 361.337 274.868L360.966 274.352C360.11 273.155 360.966 270.843 360.966 270.843C360.966 270.843 359.896 263.414 360.411 262.704C360.925 261.993 360.327 259.491 360.026 258.892C359.658 258.064 359.427 257.181 359.341 256.278C359.316 255.813 359.23 255.352 359.086 254.909C357.761 253.024 358.016 249.899 358.016 249.899C358.052 247.2 357.824 244.504 357.335 241.849C356.567 238.292 358.294 228.227 358.294 228.227C358.294 228.227 357.72 226.258 358.146 225.53C358.34 225.205 358.313 224.434 358.229 223.672C358.127 222.744 357.933 221.88 357.933 221.88L369.599 219.819C369.845 220.228 370.062 220.622 370.275 221.003C374.133 228.148 371.53 230.799 371.53 230.799L369.053 238.422C369.053 238.422 368.173 246.556 367.233 248.358Z" fill="#444053"/>
<path d="M348.758 192.469L347.091 193.862C347.091 193.862 346.762 193.602 346.327 193.207C345.28 192.278 343.594 190.556 344.228 189.832C344.324 189.692 344.447 189.573 344.59 189.481C344.732 189.39 344.892 189.328 345.058 189.3C345.225 189.272 345.396 189.278 345.561 189.317C345.725 189.357 345.88 189.429 346.016 189.53C345.924 189.428 343.988 187.352 344.784 187.52C345.581 187.687 347.1 189.488 347.1 189.488L348.295 191.61L348.758 192.469Z" fill="#EFB7B9"/>
<path d="M371.076 215.599L369.113 216.198L370.604 218.807L372.313 216.583L371.076 215.599Z" fill="#EFB7B9"/>
<path d="M366.464 191.057C369.554 191.057 372.058 188.546 372.058 185.449C372.058 182.351 369.554 179.841 366.464 179.841C363.374 179.841 360.869 182.351 360.869 185.449C360.869 188.546 363.374 191.057 366.464 191.057Z" fill="#EFB7B9"/>
<path d="M363.171 187.496C363.171 187.496 368.265 195.589 363.43 196.276C358.595 196.963 369.914 201.884 369.914 201.884L374.142 197.604C374.142 197.604 369.743 189.98 370.437 187.069C371.132 184.158 363.171 187.496 363.171 187.496Z" fill="#EFB7B9"/>
<path opacity="0.1" d="M370.289 221.003C369.161 221.348 368.012 221.616 366.848 221.806C366.848 221.806 360.549 224.592 358.257 223.663C358.155 222.735 357.96 221.871 357.96 221.871L369.599 219.819C369.858 220.228 370.085 220.622 370.289 221.003Z" fill="black"/>
<path d="M376.083 199.832L374.944 202.195L373.661 204.851L373.476 205.232L371.952 208.533L370.016 212.711C370.016 212.711 370.701 213.524 370.479 214.169C370.257 214.814 369.965 214.508 369.928 214.471C369.96 214.522 370.391 215.079 370.007 215.325C369.893 215.423 369.81 215.552 369.765 215.695C369.72 215.838 369.715 215.992 369.752 216.137C369.752 216.137 371.331 218.751 371.632 219.694C371.933 220.636 366.848 221.449 366.848 221.449C366.848 221.449 359.628 224.661 357.831 223.074C356.034 221.486 357.831 214.039 357.831 214.039C357.831 214.039 357.831 209.758 358.294 209.373C358.757 208.988 358.549 206.03 358.549 206.03C357.312 203.76 358.164 202.474 358.164 202.474L357.822 196.652C357.822 196.652 358.377 196.053 358.803 196.011C359.074 195.984 359.348 195.984 359.619 196.011C359.619 196.011 359.841 195.932 360.17 195.844C360.855 195.649 361.99 195.38 362.393 195.579C362.99 195.881 366.839 195.115 366.839 195.115C368.495 194.872 370.163 194.717 371.836 194.651C372.407 194.617 372.981 194.68 373.531 194.837C373.903 194.92 374.247 195.097 374.533 195.349C374.818 195.601 375.036 195.922 375.166 196.28C375.102 196.977 375.284 197.673 375.68 198.249C376.375 199.363 376.083 199.832 376.083 199.832Z" fill="#FF6484"/>
<path opacity="0.1" d="M348.758 192.469L347.091 193.862C347.091 193.862 346.762 193.602 346.327 193.207C346.192 191.763 347.42 191.573 348.286 191.61L348.758 192.469Z" fill="black"/>
<path d="M358.558 196.624L357.831 196.666C357.831 196.666 356.122 196.879 355.566 196.364C355.01 195.849 353.047 195.681 353.047 195.681C353.047 195.681 352.491 194.567 351.893 194.224C351.296 193.88 349.842 193.239 349.8 192.896C349.677 192.536 349.488 192.203 349.244 191.912C349.244 191.912 346.039 191.141 346.512 193.667C346.984 196.192 349.587 198.379 349.587 198.379C349.587 198.379 349.888 199.772 350.87 200.134C351.852 200.496 358.215 203.477 359.243 202.706C360.272 201.935 358.558 196.624 358.558 196.624Z" fill="#FF6484"/>
<path opacity="0.1" d="M375.689 198.235C375.293 197.659 375.111 196.963 375.175 196.266C375.045 195.908 374.828 195.587 374.542 195.335C374.256 195.083 373.912 194.906 373.54 194.823C373.27 194.742 372.992 194.687 372.711 194.66C373.077 194.746 373.417 194.923 373.698 195.173C373.979 195.424 374.194 195.74 374.323 196.095C374.256 196.791 374.438 197.489 374.837 198.063C375.518 199.177 375.221 199.651 375.221 199.651L374.082 202.009L372.795 204.674L372.614 205.055L371.09 208.356L369.154 212.535C369.154 212.535 369.835 213.347 369.618 213.992C369.4 214.638 369.108 214.331 369.066 214.294C369.103 214.345 369.53 214.902 369.15 215.148C369.036 215.247 368.952 215.375 368.907 215.518C368.861 215.661 368.855 215.815 368.89 215.961C368.89 215.961 370.474 218.575 370.771 219.517C371.067 220.46 365.987 221.272 365.987 221.272C365.987 221.272 360.971 223.501 358.261 223.329C360.577 224.234 366.843 221.444 366.843 221.444C366.843 221.444 371.938 220.631 371.628 219.689C371.317 218.746 369.747 216.133 369.747 216.133C369.711 215.987 369.715 215.834 369.76 215.69C369.805 215.547 369.889 215.419 370.002 215.32C370.372 215.074 369.956 214.517 369.923 214.466C369.96 214.503 370.275 214.763 370.474 214.164C370.673 213.565 370.011 212.706 370.011 212.706L371.947 208.528L373.471 205.227L373.656 204.846L374.939 202.191L376.078 199.827C376.078 199.827 376.375 199.349 375.689 198.235Z" fill="black"/>
<path d="M375.305 199.191L376.074 199.832C376.213 200.256 376.432 200.65 376.717 200.993C377.144 201.457 378.297 206.128 378.297 206.128C378.248 206.235 378.223 206.353 378.223 206.471C378.223 206.59 378.248 206.707 378.297 206.815C378.468 207.158 377.954 207.674 377.954 207.674C377.954 207.674 377.699 207.585 378.125 208.059C378.551 208.532 377.741 209.085 377.741 209.085C377.741 209.085 374.24 215.079 373.513 215.724C372.785 216.369 372.058 218.045 372.058 218.045C372.058 218.045 370.539 215.65 370.178 215.603L371.674 212.219C371.674 212.219 372.697 207.511 373.466 206.648C374.235 205.784 373.082 202.836 373.082 202.836L375.305 199.191Z" fill="#FF6484"/>
<path opacity="0.1" d="M375.796 207.924C375.157 208.695 374.027 208.853 373.017 208.746C372.869 208.746 372.725 208.709 372.577 208.681C372.359 208.639 372.142 208.588 371.929 208.528C371.166 208.307 370.448 207.954 369.808 207.483C369.673 207.361 369.516 207.268 369.344 207.209C369.141 207.185 368.935 207.225 368.754 207.322C368.574 207.419 368.427 207.569 368.335 207.753C368.117 208.101 368.015 208.509 367.793 208.858C367.551 209.185 367.234 209.449 366.869 209.629C366.504 209.808 366.101 209.897 365.695 209.888C364.881 209.866 364.077 209.709 363.314 209.424C363.997 208.695 364.517 207.829 364.843 206.884C364.982 206.257 365.023 205.612 364.963 204.972C364.778 201.94 363.727 198.746 361.258 196.981C360.832 196.675 360.332 196.313 360.174 195.853C360.86 195.658 361.994 195.389 362.397 195.589C362.995 195.89 366.843 195.124 366.843 195.124C368.5 194.881 370.168 194.726 371.841 194.66C372.412 194.626 372.985 194.689 373.536 194.846C373.259 196.105 373.212 197.404 373.397 198.681C373.572 199.468 373.856 200.228 374.24 200.937C374.462 201.36 374.703 201.782 374.93 202.205C375.583 203.374 376.203 204.549 376.319 205.868C376.418 206.595 376.23 207.333 375.796 207.924Z" fill="black"/>
<path opacity="0.1" d="M367.348 213.96C367.674 213.873 368.013 213.844 368.349 213.872C368.63 213.956 368.887 214.105 369.099 214.308H366.904C366.339 214.308 365.486 214.341 365.051 213.941C365.431 213.556 366.792 214.025 367.348 213.96Z" fill="black"/>
<path d="M359.739 184.79C359.406 185.249 359.196 185.787 359.129 186.351C359.063 186.915 359.142 187.487 359.359 188.012C359.711 188.843 360.387 189.488 360.804 190.287C361.118 190.906 361.269 191.595 361.245 192.289C361.221 192.984 361.021 193.66 360.665 194.256C360.503 194.466 360.386 194.708 360.323 194.966C360.221 195.621 360.897 196.09 361.434 196.471C363.898 198.235 364.949 201.429 365.139 204.461C365.203 205.101 365.164 205.746 365.023 206.374C364.699 207.319 364.178 208.185 363.495 208.913C364.258 209.196 365.062 209.353 365.876 209.377C366.282 209.384 366.684 209.294 367.049 209.114C367.414 208.934 367.731 208.669 367.974 208.342C368.196 207.999 368.298 207.59 368.515 207.237C368.607 207.053 368.754 206.903 368.934 206.805C369.115 206.708 369.321 206.669 369.525 206.694C369.696 206.754 369.853 206.847 369.988 206.968C370.93 207.662 372.036 208.097 373.198 208.231C374.193 208.347 375.323 208.18 375.976 207.409C376.412 206.813 376.6 206.07 376.5 205.338C376.278 202.743 374.087 200.696 373.582 198.151C373.17 196.085 373.911 193.973 374.045 191.874C374.249 188.764 373.119 185.732 372.012 182.821C371.767 182.099 371.44 181.408 371.039 180.76C370.55 180.097 369.925 179.547 369.206 179.147C368.487 178.746 367.691 178.505 366.871 178.438C366.265 178.358 365.648 178.42 365.07 178.619C364.498 178.882 363.975 179.24 363.523 179.678C362.467 180.607 361.379 181.535 360.744 182.826C360.494 183.346 360.332 183.903 360.054 184.404" fill="#925978"/>
<g opacity="0.1">
<path opacity="0.1" d="M360.748 183.657C361.022 183.151 361.212 182.594 361.434 182.078C361.674 181.596 361.972 181.145 362.323 180.737C361.684 181.331 361.153 182.031 360.753 182.807C360.512 183.313 360.35 183.852 360.086 184.344L360.424 184.056C360.338 184.175 360.259 184.299 360.188 184.427C360.405 184.194 360.593 183.935 360.748 183.657Z" fill="black"/>
<path opacity="0.1" d="M373.888 207.506C372.726 207.37 371.62 206.934 370.678 206.239C370.541 206.122 370.384 206.029 370.215 205.965C370.011 205.943 369.806 205.984 369.625 206.082C369.445 206.18 369.299 206.33 369.205 206.513C369.161 206.586 369.12 206.662 369.085 206.74C369.23 206.675 369.393 206.66 369.548 206.699C369.719 206.759 369.876 206.852 370.011 206.973C370.953 207.667 372.059 208.102 373.221 208.235C374.216 208.351 375.347 208.184 376 207.414C376.081 207.315 376.153 207.207 376.213 207.093C375.507 207.491 374.687 207.637 373.888 207.506Z" fill="black"/>
<path opacity="0.1" d="M366.547 208.649C365.735 208.624 364.933 208.467 364.171 208.184C364.851 207.453 365.371 206.586 365.695 205.64C365.837 205.015 365.877 204.37 365.815 203.732C365.63 200.7 364.583 197.501 362.11 195.742C361.573 195.356 360.901 194.888 360.999 194.233C361.068 193.976 361.186 193.735 361.346 193.523C361.702 192.927 361.901 192.252 361.926 191.558C361.95 190.865 361.798 190.176 361.485 189.558C361.068 188.759 360.392 188.109 360.035 187.283C359.848 186.825 359.764 186.332 359.79 185.838C359.816 185.345 359.95 184.863 360.183 184.427C360.065 184.552 359.94 184.67 359.808 184.78C359.713 184.913 359.609 185.04 359.498 185.161C359.264 185.596 359.13 186.077 359.105 186.57C359.08 187.063 359.165 187.556 359.355 188.012C359.706 188.843 360.383 189.488 360.799 190.287C361.113 190.906 361.265 191.595 361.24 192.289C361.216 192.984 361.017 193.66 360.661 194.256C360.498 194.466 360.381 194.708 360.318 194.966C360.216 195.621 360.892 196.09 361.429 196.471C363.893 198.235 364.945 201.429 365.134 204.461C365.198 205.101 365.159 205.746 365.019 206.374C364.695 207.319 364.174 208.185 363.49 208.913C364.253 209.196 365.057 209.353 365.871 209.377C366.277 209.384 366.68 209.294 367.045 209.114C367.409 208.934 367.726 208.669 367.969 208.342C367.997 208.296 368.024 208.249 368.048 208.203C367.597 208.486 367.078 208.64 366.547 208.649Z" fill="black"/>
</g>
<path opacity="0.1" d="M23.856 204.767L23.3605 204.405C23.4138 204.423 23.4651 204.446 23.5133 204.475C23.6175 204.531 23.7115 204.605 23.7912 204.693L23.9487 204.837L23.856 204.767Z" fill="black"/>
</g>
<defs>
<linearGradient id="paint0_linear" x1="361.198" y1="282.473" x2="361.198" y2="177.524" gradientUnits="userSpaceOnUse">
<stop stop-color="#808080" stop-opacity="0.25"/>
<stop offset="0.54" stop-color="#808080" stop-opacity="0.12"/>
<stop offset="1" stop-color="#808080" stop-opacity="0.1"/>
</linearGradient>
<clipPath id="clip0">
<rect width="503" height="284" fill="white"/>
</clipPath>
</defs>
</svg>
