<svg width="79" height="26" viewBox="0 0 79 26" fill="none" xmlns="http://www.w3.org/2000/svg">
<g clip-path="url(#clip0)">
<path d="M51.698 0.104736C46.169 0.104736 41.2279 2.96518 41.2279 8.25006C41.2279 14.3108 49.9911 14.7294 49.9911 17.7742C49.9911 19.0562 48.5191 20.2038 46.0051 20.2038C42.4371 20.2038 39.7705 18.6003 39.7705 18.6003L38.6294 23.9333C38.6294 23.9333 41.7014 25.2878 45.7799 25.2878C51.8249 25.2878 56.5816 22.2869 56.5816 16.9117C56.5816 10.5074 47.782 10.1012 47.782 7.27517C47.782 6.27089 48.9904 5.17051 51.4972 5.17051C54.3257 5.17051 56.6334 6.33673 56.6334 6.33673L57.7501 1.18592C57.7501 1.18592 55.2391 0.104736 51.698 0.104736ZM1.1124 0.493477L0.978516 1.27096C0.978516 1.27096 3.3046 1.69587 5.39962 2.54347C8.09714 3.51543 8.2893 4.08125 8.7436 5.83866L13.6941 24.8869H20.3304L30.554 0.493477H23.933L17.3637 17.0787L14.683 3.02029C14.4372 1.41131 13.1919 0.493477 11.6677 0.493477H1.1124ZM33.2164 0.493477L28.0224 24.8869H34.3361L39.5118 0.493477H33.2164ZM68.4301 0.493477C66.9076 0.493477 66.101 1.30704 65.5091 2.72873L56.2591 24.8869H62.8801L64.1611 21.1939H72.2274L73.0064 24.8869H78.8484L73.7519 0.493477H68.4301ZM69.2912 7.08384L71.2538 16.2375H65.9959L69.2912 7.08384Z" fill="#1434CB"/>
</g>
<defs>
<clipPath id="clip0">
<rect width="77.9479" height="25.2609" fill="white" transform="translate(0.939453 0.0651855)"/>
</clipPath>
</defs>
</svg>
