<svg width="216" height="70" viewBox="0 0 216 70" fill="none" xmlns="http://www.w3.org/2000/svg">
<path d="M140.656 0.10791C125.334 0.10791 111.642 8.03443 111.642 22.6793C111.642 39.4742 135.926 40.6342 135.926 49.0715C135.926 52.624 131.847 55.8041 124.88 55.8041C114.993 55.8041 107.604 51.3606 107.604 51.3606L104.442 66.1388C104.442 66.1388 112.954 69.8923 124.256 69.8923C141.008 69.8923 154.189 61.5766 154.189 46.6813C154.189 28.9345 129.804 27.809 129.804 19.9778C129.804 17.1948 133.153 14.1456 140.099 14.1456C147.937 14.1456 154.332 17.3773 154.332 17.3773L157.427 3.10396C157.427 3.10396 150.469 0.10791 140.656 0.10791ZM0.478966 1.18514L0.107971 3.33961C0.107971 3.33961 6.55376 4.51707 12.3592 6.86586C19.8343 9.55921 20.3667 11.1271 21.6257 15.9971L35.344 68.7814H53.7336L82.0641 1.18514H63.7167L45.5127 47.1442L38.0843 8.18715C37.4031 3.72854 33.9524 1.18514 29.7285 1.18514H0.478966ZM89.4418 1.18514L75.0489 68.7814H92.5447L106.887 1.18514H89.4418ZM187.022 1.18514C182.803 1.18514 180.568 3.43961 178.927 7.37922L153.295 68.7814H171.642L175.192 58.5477H197.545L199.703 68.7814H215.892L201.769 1.18514H187.022ZM189.408 19.4476L194.846 44.813H180.276L189.408 19.4476Z" fill="#1434CB"/>
</svg>
