<svg width="127" height="42" viewBox="0 0 127 42" fill="none" xmlns="http://www.w3.org/2000/svg">
<g clip-path="url(#clip0)">
<path d="M82.3199 0.79248C73.3866 0.79248 65.4034 5.41411 65.4034 13.9529C65.4034 23.7454 79.562 24.4217 79.562 29.3412C79.562 31.4125 77.1837 33.2667 73.1218 33.2667C67.3571 33.2667 63.0485 30.6758 63.0485 30.6758L61.2049 39.2925C61.2049 39.2925 66.1683 41.481 72.758 41.481C82.525 41.481 90.2104 36.6324 90.2104 27.9476C90.2104 17.6001 75.9928 16.9439 75.9928 12.3778C75.9928 10.7552 77.9452 8.97728 81.9955 8.97728C86.5655 8.97728 90.294 10.8616 90.294 10.8616L92.0982 2.53936C92.0982 2.53936 88.0413 0.79248 82.3199 0.79248ZM0.588382 1.42057L0.37207 2.67675C0.37207 2.67675 4.13035 3.36329 7.51529 4.73277C11.8737 6.30316 12.1841 7.21735 12.9182 10.0568L20.9168 40.8332H31.639L48.1574 1.42057H37.4598L26.8457 28.2175L22.5146 5.50316C22.1174 2.90353 20.1054 1.42057 17.6426 1.42057H0.588382ZM52.459 1.42057L44.0671 40.8332H54.2682L62.6306 1.42057H52.459ZM109.354 1.42057C106.894 1.42057 105.591 2.73506 104.634 5.03209L89.6893 40.8332H100.387L102.457 34.8664H115.489L116.748 40.8332H126.187L117.952 1.42057H109.354ZM110.745 12.0687L113.916 26.8582H105.421L110.745 12.0687Z" fill="#1434CB"/>
</g>
<defs>
<clipPath id="clip0">
<rect width="125.941" height="40.8142" fill="white" transform="translate(0.30957 0.729492)"/>
</clipPath>
</defs>
</svg>
